<?xml version="1.0" encoding="utf-8"?>
<!-- Generator: Adobe Illustrator 22.1.0, SVG Export Plug-In . SVG Version: 6.00 Build 0)  -->
<svg version="1.1" id="Layer_1" xmlns="http://www.w3.org/2000/svg" xmlns:xlink="http://www.w3.org/1999/xlink" x="0px" y="0px"
	 viewBox="0 0 30 30" enable-background="new 0 0 30 30" xml:space="preserve">
<g id="Layer_2_2_">
	<g>
		<circle fill="#FCF2ED" cx="15" cy="15" r="15"/>
	</g>
	<g>
		<g>
			<g>
				<path fill="#97B6EC" d="M13.7,6.1c-2.4,2.4-4.9,4.9-7.3,7.3c-0.2,0.2-0.5,0.5-0.7,0.7c-0.5,0.5-0.5,1.4,0,2
					c2.4,2.4,4.8,4.8,7.2,7.2c0.2,0.2,0.4,0.4,0.6,0.6c0.5,0.5,1.4,0.5,2,0c0.5-0.5,0.5-1.4,0-2c-2.4-2.4-4.8-4.8-7.2-7.2
					c-0.2-0.2-0.4-0.4-0.6-0.6c0,0.7,0,1.3,0,2c2.4-2.4,4.9-4.9,7.3-7.3c0.2-0.2,0.5-0.5,0.7-0.7c0.5-0.5,0.5-1.4,0-2
					C15.2,5.6,14.3,5.6,13.7,6.1L13.7,6.1z"/>
			</g>
		</g>
		<g>
			<g>
				<path fill="#97B6EC" d="M23.3,13.6c-3.3,0-6.6,0-9.9,0c-2,0-4.1,0-6.1,0c-0.8,0-1.4,0.6-1.4,1.4s0.6,1.4,1.4,1.4
					c3.3,0,6.6,0,9.9,0c2,0,4.1,0,6.1,0c0.8,0,1.4-0.6,1.4-1.4S24,13.6,23.3,13.6L23.3,13.6z"/>
			</g>
		</g>
	</g>
</g>
</svg>
