<?xml version="1.0" encoding="utf-8"?>
<!-- Generator: Adobe Illustrator 22.1.0, SVG Export Plug-In . SVG Version: 6.00 Build 0)  -->
<svg version="1.1" xmlns="http://www.w3.org/2000/svg" xmlns:xlink="http://www.w3.org/1999/xlink" x="0px" y="0px"
	 viewBox="0 0 200 200" enable-background="new 0 0 200 200" xml:space="preserve">
<g id="Layer_2" display="none">
	
		<image display="inline" overflow="visible" width="1280" height="1280" xlink:href="C:\Users\user\Downloads\Untitled118_20220419223447.png"  transform="matrix(0.1563 0 0 0.1563 0 -0.2463)">
	</image>
</g>
<g id="Layer_4">
	<g>
		<g>
			<path fill="#282828" d="M151.7,90.5c0,0.2,0.1,0.5-0.1,0.7c-0.2,0.5-0.1,1.1,0.4,1.4c0.4,0.3,1.1,0.1,1.4-0.4
				c0.3-0.5,0.4-1.1,0.3-1.7c-0.1-0.5-0.4-1-1-1C152.2,89.5,151.6,90,151.7,90.5L151.7,90.5z"/>
		</g>
	</g>
</g>
<g id="Layer_5">
	<g>
		<g>
			<path fill="#97B6EC" d="M116.6,134.1c3.1-4.7,10.6-4.2,15.6-4.7c1-0.1,1.5-1.7,0.3-2c-4.2-0.8-8.3-0.6-12.4,0.4
				c-1.2,0.3-0.7,2.3,0.5,1.9c3.8-1,7.5-1.1,11.4-0.4c0.1-0.7,0.2-1.3,0.3-2c-5.9,0.6-13.7,0.1-17.3,5.7
				C114.2,134.1,115.9,135.1,116.6,134.1L116.6,134.1z"/>
		</g>
	</g>
	<g>
		<g>
			<path fill="#97B6EC" d="M128.4,125.9c-4-0.3-8.3,1.5-11.8,3.2c0.5,0.5,0.9,0.9,1.4,1.4c1.4-2.7,5-2.6,7.5-3.6
				c1.2-0.5,0.7-2.1-0.5-1.9c-1.9,0.3-3.7,1-5.4,2c0.5,0.3,1,0.6,1.5,0.9c0-0.1,4.1-0.8,4.3-0.8c1.1-0.2,0.8-1.9-0.3-2
				c-2.7-0.1-5.2,0.4-7.7,1.3c0.3,0.6,0.6,1.1,1,1.7c2.1-1.8,6.7-2.2,9.3-2.5c1.3-0.1,1.3-2.2,0-2c-3.4,0.4-8.1,0.7-10.7,3.1
				c-0.7,0.6,0,2,1,1.7c2.3-0.9,4.7-1.3,7.2-1.3c-0.1-0.7-0.2-1.3-0.3-2c-1.6,0.2-5.9,0.4-5.8,2.7c0,0.8,0.8,1.3,1.5,0.9
				c1.5-0.9,3.1-1.5,4.9-1.8c-0.2-0.6-0.4-1.3-0.5-1.9c-3.1,1.2-6.9,1.2-8.7,4.5c-0.5,0.9,0.5,1.8,1.4,1.4c3.2-1.5,7.2-3.2,10.8-2.9
				C129.7,128,129.7,126,128.4,125.9L128.4,125.9z"/>
		</g>
	</g>
	<g>
		<g>
			<path fill="#97B6EC" d="M127.3,125.4c4.9-1.3,10.7,1.7,14.3,4.8c0.2-0.6,0.5-1.1,0.7-1.7c-5.2-0.6-10.5-0.8-15.8-0.7
				c0.1,0.7,0.2,1.3,0.3,2c2.7-0.5,5.2-0.7,7.9-0.5c-0.2-0.6-0.3-1.2-0.5-1.9c-2.9,1.5-6.8,1.2-9.9,1.4c-1.3,0.1-1.3,2,0,2
				c1.8,0.1,3.5,0.2,5.3,0.5c0-0.6,0-1.3,0-1.9c-3.5,0.9-7.1,0.4-10.7,1.2c-1.1,0.2-0.8,2,0.3,2c2.6,0,5.1,0,7.7-0.2
				c1.3-0.1,1.3-2.1,0-2c-2.6,0.1-5.1,0.2-7.7,0.2c0.1,0.7,0.2,1.3,0.3,2c3.6-0.8,7.2-0.2,10.7-1.2c0.9-0.2,1-1.8,0-1.9
				c-1.9-0.3-3.9-0.5-5.8-0.5c0,0.7,0,1.3,0,2c3.7-0.2,7.6,0,11-1.7c0.9-0.5,0.4-1.8-0.5-1.9c-2.9-0.2-5.6,0-8.4,0.6
				c-1.1,0.2-0.8,2,0.3,2c5.3-0.1,10.5,0.1,15.8,0.7c0.8,0.1,1.3-1.2,0.7-1.7c-4.2-3.5-10.7-6.8-16.3-5.3
				C125.5,123.8,126,125.7,127.3,125.4L127.3,125.4z"/>
		</g>
	</g>
	<g>
		<g>
			<path fill="#97B6EC" d="M130.8,124.2c-2.4,0.1-5.1,0.2-7.3,0.9c-3.1,1-5.3,3.4-6.9,6.1c-2.1,3.3-0.8,8.4,2.7,10.3
				c3.7,1.9,8.1,0.9,10.3-2.7c0.4-0.7,0.3-0.6-0.3,0.3c0.1-0.1,0.2-0.3,0.3-0.4c1-0.9,0.3-0.6-1.8,0.8c0.6-0.1,0.6-0.1-0.1,0
				c-0.7,0.1-0.6,0.1,0.1,0c0.3,0,0.6-0.1,0.9-0.1c0.7-0.1,1.4-0.1,2.1-0.2c3.9-0.2,7.7-3.3,7.5-7.5
				C138.1,127.9,135,124,130.8,124.2L130.8,124.2z"/>
		</g>
	</g>
	<g>
		<g>
			<path fill="#97B6EC" d="M131.6,126.7c-2.8-0.3-5.7,0-8.3,1.1c-0.8,0.3-1.6,0.8-2.4,1c0.7-0.2,0.5-0.2-0.1-0.1
				c-1.4,0.3-3,0.9-4.2,1.7c-3.3,2.1-5,6.8-2.7,10.3c2.1,3.3,6.7,5,10.3,2.7c-0.9,0.2-0.9,0.2,0,0c0.4-0.1,0.8-0.2,1.3-0.3
				c1.1-0.3,2-0.9,3.1-1.3c-1.2,0.4,1.2-0.2,1.2-0.2c-1,0.2,1.7,0.1,2,0.2c3.9,0.4,7.7-3.8,7.5-7.5
				C138.9,129.8,135.8,127.2,131.6,126.7L131.6,126.7z"/>
		</g>
	</g>
	<g>
		<g>
			<path fill="#97B6EC" d="M127.6,126.2c-7.1-1.3-16.6,1.7-16.9,10.2c-0.1,2.4,1.4,5.4,3.7,6.5c2.6,1.2,5,1.7,7.9,1
				c2.7-0.6,4.4-2.7,6.8-3.6c1.2-0.5,2.3-0.2,3.6,0.2c2.9,0.8,4.8,2.1,8,1.7c7.1-0.9,10.6-9.7,3.8-14c-2.5-1.6-5.3-2.1-8.2-2.7
				c-0.7,4.9-1.3,9.8-2,14.7c0.2,0,0.5,0,0.7,0c9.6-0.3,9.7-15.3,0-15c-0.2,0-0.5,0-0.7,0c-8.1,0.3-10.6,12.9-2,14.7
				c1.4,0.3,3.4,0.4,4.6,1.2c1.3-4.7,2.5-9.3,3.8-14c-1.4,0.2-2.4-0.6-3.9-1.1c-2.2-0.8-4.6-1-6.9-0.9c-2.1,0.1-4.1,0.4-6.1,1.2
				c-1.2,0.5-3.8,2.9-4.8,2.9c1.3,0.3,2.5,0.7,3.8,1c-0.2-0.1-0.5-0.2-0.7-0.3c1.2,2.2,2.5,4.3,3.7,6.5c0-0.2,0-0.5,0-0.7
				c-0.7,1.8-1.5,3.5-2.2,5.3c0.4-0.1,0.4-0.2,0.1-0.3c4,0.7,8.1-1.1,9.2-5.2C133.8,131.8,131.6,126.9,127.6,126.2L127.6,126.2z"/>
		</g>
	</g>
	<g>
		<g>
			<path fill="#97B6EC" d="M137.2,140.1c9.7,0,9.7-15,0-15C127.6,125.1,127.6,140.1,137.2,140.1L137.2,140.1z"/>
		</g>
	</g>
	<g>
		<g>
			<path fill="#97B6EC" d="M134.6,139.9c0.8,0.2,1.6,0.5,2.4,0.8c-0.6-0.3-1.2-0.5-1.8-0.8c1,0.5,2,1,2.8,1.7
				c-0.5-0.4-1-0.8-1.5-1.2c0.1,0.1,0.2,0.2,0.3,0.2c1.6,1.3,3.1,2.2,5.3,2.2c1.8,0,4-0.8,5.3-2.2c1.3-1.4,2.3-3.3,2.2-5.3
				c-0.1-1.9-0.7-4.1-2.2-5.3c-2.7-2.1-5.5-3.8-8.9-4.6c-3.8-0.9-8.3,1.2-9.2,5.2C128.5,134.5,130.5,138.9,134.6,139.9L134.6,139.9z
				"/>
		</g>
	</g>
	<g>
		<g>
			<path fill="#97B6EC" d="M111.6,131.4c-2.8,3.4-6.3,6.9-8,11c-1,2.4,2.9,3.4,3.9,1.1c0.7-1.7,2-3.1,3.2-4.5
				c1.3-1.6,2.5-3.2,3.8-4.7C116,132.3,113.2,129.4,111.6,131.4L111.6,131.4z"/>
		</g>
	</g>
	<g>
		<g>
			<path fill="#97B6EC" d="M106.5,145.2c1.9-0.1,4.1-0.1,5.9-0.6c1.7-0.5,2.5-2,2.6-3.7c0.2-4.3-5.8-3.3-6.5,0.1
				c-0.3,1.6,1.4,3.3,2.9,2.3c0.8-0.5,1.4-1.1,1.8-1.9c0.7-1.3-0.2-3.1-1.7-3c-1.7,0.1-3.3,0.5-4.9,1.4c-2.2,1.3-0.2,4.7,2,3.5
				c0.9-0.5,1.8-0.8,2.8-0.8c-0.6-1-1.2-2-1.7-3c-0.1,0.3-0.2,0.3-0.4,0.5c1,0.8,2,1.5,2.9,2.3c0,0.1-0.1-0.1,0.3-0.1
				c-0.3-0.1-0.7-0.2-1-0.3c0.1,0.1,0.2,0.1,0.3,0.2c-0.3-0.4-0.6-0.8-0.9-1.2c0.1,0.2,0,0.3-0.1,0.4c0.3-0.2,0.6-0.3,0.9-0.5
				c-1.6,0.6-3.6,0.5-5.2,0.6C103.9,141.4,103.9,145.4,106.5,145.2L106.5,145.2z"/>
		</g>
	</g>
	<g>
		<g>
			<path fill="#97B6EC" d="M104.3,142.4c-0.6,0.6-1.2,1.2-1.8,1.7c-0.8,0.7-0.8,2.1,0,2.8c0.8,0.8,2,0.7,2.8,0
				c0.6-0.5,1.2-1.1,1.8-1.7c0.7-0.8,0.8-2.1,0-2.8C106.3,141.6,105,141.6,104.3,142.4L104.3,142.4z"/>
		</g>
	</g>
	<g>
		<g>
			<path fill="#97B6EC" d="M147.2,134.4c0.8,2.2,2.3,3.5,3.9,5.1c1.5,1.5,2.1,3.7,4.3,4.3c0.2-1.3,0.4-2.6,0.5-3.9
				c-1.6-0.1-3.2-0.1-4.9-0.2c-0.8,0-1.6-0.1-2.4-0.1c-0.3,0-2-0.3-1.6,0.2c0.1,0.8,0.2,1.6,0.3,2.4c0.3-0.5,1.9-1.7,2.5-1.8
				c-0.6-0.2-1.3-0.3-1.9-0.5c0.1,0.1,0.2,0.1,0.3,0.2c-0.2-0.6-0.3-1.3-0.5-1.9c0,0.1,0,0.2-0.1,0.3c-0.4,2.5,3.4,3.6,3.9,1.1
				c0-0.1,0-0.2,0.1-0.3c0.1-0.7,0.1-1.5-0.5-1.9c-1.1-0.9-2.1-1-3.3-0.3c-1.3,0.7-3,1.9-3.8,3.2c-0.5,0.8-0.3,1.7,0.3,2.4
				c1.1,1.3,3.3,0.9,4.8,1c2.3,0.1,4.6,0.1,6.9,0.2c2.3,0.1,2.7-3.3,0.5-3.9c-0.4-0.1-0.9-1.3-1.1-1.6c-0.4-0.6-0.9-1.1-1.4-1.7
				c-1-1-2.4-1.9-2.9-3.4C150.2,131,146.4,132,147.2,134.4L147.2,134.4z"/>
		</g>
	</g>
	<g>
		<g>
			<path fill="#F1F2F2" d="M131.1,143.5c-2.8,0-5.5,0-8.3,0c0.2,1.3,0.4,2.6,0.5,3.9c1.7-0.7,3.5-0.9,5.4-1.2c2-0.3,4-0.9,5.9-1.6
				c2.1-0.7,1.8-3.9-0.5-3.9c-3,0-6,0.1-8.9,0.3c-2.3,0.1-3.6,1-5.7,1.7c0.5,1.2,1,2.4,1.5,3.7c2.5-1.1,5-2,7.6-2.8
				c2.2-0.7,1.7-3.8-0.5-3.9c-1.5-0.1-3.1-0.1-4.6,0c-2.6,0.1-2.6,4.1,0,4c1.5-0.1,3.1-0.1,4.6,0c-0.2-1.3-0.4-2.6-0.5-3.9
				c-2.9,0.9-5.7,2-8.5,3.2c-2.1,0.9-0.6,4.3,1.5,3.7c0.9-0.3,1.5-0.8,2.3-1.1c1.1-0.4,2.2-0.4,3.3-0.5c2.6-0.1,5.3-0.2,7.9-0.2
				c-0.2-1.3-0.4-2.6-0.5-3.9c-1.9,0.6-3.9,1.2-5.9,1.6c-1.9,0.3-3.6,0.4-5.4,1.2c-2,0.8-1.9,3.9,0.5,3.9c2.8,0,5.5,0.1,8.3,0
				C133.7,147.5,133.7,143.5,131.1,143.5L131.1,143.5z"/>
		</g>
	</g>
	<g>
		<g>
			<path fill="#F1F2F2" d="M121.6,135.8c-2.3-0.2-6.5-0.8-8.3,1.1c-1.9,2.1-0.5,5.5,0.6,7.6c0.9,1.8,2.8,4.3,2.7,6.5
				c-0.1,1.3-1.1,2.6-1.2,4c-0.2,2.9,1,6.1,3.2,8c1.9,1.7,4.8-1.1,2.8-2.8c-3.3-2.8-0.2-7.8-1.3-11.7c-0.5-1.6-1.2-3.1-1.9-4.6
				c-0.7-1.5-2.2-3.4-0.2-4.2c0.8-0.4,2.9,0.1,3.7,0.1C124.2,140,124.1,136,121.6,135.8L121.6,135.8z"/>
		</g>
	</g>
	<g>
		<g>
			<path fill="#F1F2F2" d="M116.9,162.6c1.1,8.8,16.4,4.2,21.9,4.2c-0.2-1.3-0.4-2.6-0.5-3.9c-2.8,1-5.6,1.6-8.5,1.8
				c-2.1,0.2-4.9,0.9-6.7-0.3c-2.2-1.4-4.2,2.1-2,3.5c2.5,1.6,5.1,1.1,8,0.9c3.5-0.3,6.9-0.9,10.3-2.1c2-0.7,1.8-3.9-0.5-3.9
				c-2,0-17.5,2.9-17.9-0.2C120.6,160,116.6,160,116.9,162.6L116.9,162.6z"/>
		</g>
	</g>
	<g>
		<g>
			<path fill="#F1F2F2" d="M138.2,168c5.1-1.4,10-4.4,9-10.4c-0.6-3.8-1.8-7.6-2.5-11.4c-0.6-3.4-1-7.4-3.1-10.3
				c-4.3-6.1-27.3-2.1-25,6.9c0.2,0.7,0.7,1.2,1.4,1.4c6.4,1.6,13.9-10.6,18.2-1c1.4,3.1,3.1,10,2,13.4c-1.2,3.9-9.7,3.2-13.1,3.4
				c-2.6,0.1-2.6,4.1,0,4c4.3-0.2,9.3-0.1,13.4-1.4c3-0.9,3.5-3,3.7-6c0.3-4.9-0.8-9.8-2.2-14.5c-1-3.4-1.7-5.3-5.4-6.1
				c-2.7-0.6-5.9-0.5-8.4,0.7c-1.2,0.5-2.2,1.4-3.3,2.1c-0.7,0.4-4.5,1.9-1.7,1.3c2.8-0.6,5.2-2.1,8.1-2.5c3.6-0.6,7.3-1.1,9.7,2.4
				c1.2,1.7,1.3,5.2,1.6,7.3c0.5,2.8,1.2,5.5,1.6,8.3c0.4,2.5,1,4.6-0.8,6.4c-1.2,1.3-2.9,1.7-4.6,2.2
				C134.6,164.8,135.7,168.7,138.2,168L138.2,168z"/>
		</g>
	</g>
	<g>
		<g>
			<path fill="#F1F2F2" d="M139.7,164.3c4.9-4.7,4-10.5,2.3-16.4c-1.5-5.3-1.4-10.4-7.8-10c-3.5,0.2-12.4,0-12.9,4.9
				c-0.6,5.6,7.4,3.3,10,2.3c-0.6-1.1-1.3-2.2-1.9-3.3c-2.2,1.8-13.3,7-9.6,11.3c0.4,0.5,1.3,0.8,1.9,0.5c2.4-1,4.5-3.4,6.4-5.1
				c1.9-1.7-0.9-4.6-2.8-2.8c-3.4,3.1-6.6,6.3-8.9,10.4c-0.9,1.6,1,4,2.7,2.7c1.9-1.4,3.9-2.9,5.8-4.3c-1-0.6-2-1.2-3-1.7
				c0.3,1.6,0.1,3.2-0.7,4.8c-1,2.1,1.4,3.9,3.1,2.4c0.7-0.7,1.6-1.2,2.5-1.6c-0.9-0.9-1.8-1.8-2.7-2.7c-0.3,0.8-0.7,1.5-1.2,2.1
				c-1.2,1.8,1.1,3.5,2.7,2.7c0.5-0.2,1-0.4,1.5-0.6c-0.6-1.1-1.3-2.2-1.9-3.3c-0.9,0.6-1.9,1.2-2.8,1.9c0.5,1.2,1,2.4,1.5,3.7
				c1.1-0.7,2.3-1.2,3.6-1.3c-0.6-1.1-1.3-2.2-1.9-3.3c-0.8,0.6-1.7,1.2-2.5,1.7c0.5,1.2,1,2.4,1.5,3.7c3.5-2.2,20.8,0.3,15.9-9
				c-0.9-1.8-3.5-4.3-5.7-3.6c-3,1-4.2,7.5-4.8,9.8c-0.5,1.9,1.9,3.3,3.3,1.9c4.2-4.1,5.7-9.4,5.8-15.1c0-2.1-2.6-2.6-3.7-1
				c-2.4,3.4-3.4,7-3.4,11.1c0,1.9,2.8,2.9,3.7,1c1.9-3.9,2-8.8,2.1-13.1c0-1.9-2.9-2.9-3.7-1c-1.6,3.4-2.8,6.9-3.6,10.6
				c1.3,0.4,2.6,0.7,3.9,1.1c0.6-3,0.9-5.6,0.4-8.7c-0.3-1.5-2.4-1.9-3.3-0.9c-2.7,2.9-4.1,6.1-4.3,10.1c-0.1,2.3,3.3,2.6,3.9,0.5
				c1.2-3.8,2.2-7.6,2.8-11.5c0.3-2.2-2.3-3.4-3.7-1.5c-2.2,3-3.3,6.4-4.2,10c1.3,0.2,2.6,0.4,3.9,0.5c0.1-2.6,0.5-5.1-1.3-7.2
				c-0.8-0.9-2.6-0.7-3.1,0.4c-1.3,2.8-2.6,5.7-3.8,8.6c1.3,0.4,2.6,0.7,3.9,1.1c0.2-1.1,0.3-1.6,0.2-2.7c-0.1-1.4-1.7-2.7-3-1.7
				c-2.3,1.6-4.7,3.8-4.7,6.8c0.1,2.4,2.1,5.2,4.4,5.9c0.8,0.2,1.9-0.1,2.3-0.9c0.9-1.9,0.5-4.1,0.1-6c-1-4.2-2-8.1-2-12.5
				c0-2.6-4-2.6-4,0c0,2.8,0.2,5.5,0.8,8.3c0.4,1.9,2.5,6.5,1.7,8.3c0.8-0.3,1.5-0.6,2.3-0.9c-0.8-0.5-1-1.3-0.6-2.3
				c-0.3-1.5,0.2-2.6,1.8-3.1c-1-0.6-2-1.2-3-1.7c0,0.6-0.1,1.1-0.1,1.7c-0.5,2.6,2.9,3.4,3.9,1.1c1-2.6,2.2-5.1,3.3-7.6
				c-1,0.1-2.1,0.3-3.1,0.4c0.5,0.6,0.1,3.6,0.1,4.4c-0.1,2.3,3.4,2.7,3.9,0.5c0.8-3.3,1.8-6.3,3.8-9c-1.2-0.5-2.4-1-3.7-1.5
				c-0.5,4-1.6,7.7-2.8,11.5c1.3,0.2,2.6,0.4,3.9,0.5c0.2-2.9,1.1-5.1,3.1-7.3c-1.1-0.3-2.2-0.6-3.3-0.9c0.4,2.3,0.1,4.3-0.4,6.5
				c-0.5,2.5,3.3,3.6,3.9,1.1c0.8-3.3,1.8-6.5,3.2-9.6c-1.2-0.3-2.5-0.7-3.7-1c0,3.5,0,7.8-1.5,11c1.2,0.3,2.5,0.7,3.7,1
				c-0.1-3.5,0.9-6.3,2.8-9.1c-1.2-0.3-2.5-0.7-3.7-1c0,4.7-1.2,8.9-4.6,12.3c1.1,0.6,2.2,1.3,3.3,1.9c0.2-0.8,1.6-6.7,2.4-6.7
				c0.6,2.5-0.3,3.5-2.9,3c-0.8,0.1-1.6,0.1-2.4,0.2c-2.8,0.2-5.9,0.3-8.4,1.8c-1.8,1.1-0.6,4.5,1.5,3.7c1.7-0.7,2.9-1.4,4.2-2.8
				c1.5-1.5,0-3.7-1.9-3.3c-1.7,0.3-3,0.8-4.5,1.7c-1.9,1.1-0.6,4.5,1.5,3.7c1.8-0.7,3.1-1.5,4.6-2.9c1.5-1.4-0.1-3.9-1.9-3.3
				c-0.9,0.3-1.6,0.5-2.5,1c0.9,0.9,1.8,1.8,2.7,2.7c0.5-0.7,0.9-1.4,1.2-2.1c0.9-1.8-0.9-3.7-2.7-2.7c-1.2,0.6-2.2,1.4-3.3,2.2
				c1,0.8,2.1,1.6,3.1,2.4c1.1-2.3,1.5-4.2,1.3-6.8c-0.1-1.3-1.7-2.7-3-1.7c-1.9,1.4-3.9,2.9-5.8,4.3c0.9,0.9,1.8,1.8,2.7,2.7
				c2.1-3.8,5.1-6.7,8.2-9.5c-0.9-0.9-1.9-1.9-2.8-2.8c-1.3,1.2-3,3.4-4.6,4.1c0.6,0.2,1.3,0.3,1.9,0.5c1.4,1.7,8.4-4.6,9.6-5.6
				c1.5-1.3-0.1-4-1.9-3.3c-0.1,0-3.9,1.1-3.8,1.7c0-0.2,3.6-0.7,3.8-0.7c2.3-0.3,5-1.1,6.2,0.7c1.4,2,1.8,6.3,2.4,8.7
				c1,3.6,0.8,7.2-2,9.9C135,163.2,137.8,166,139.7,164.3L139.7,164.3z"/>
		</g>
	</g>
	<g>
		<g>
			<path fill="#F1F2F2" d="M138.7,136.7c2.6,0,2.6-4,0-4C136.2,132.7,136.1,136.7,138.7,136.7L138.7,136.7z"/>
		</g>
	</g>
	<g>
		<g>
			<path fill="#F1F2F2" d="M137,136.9c1.4,0.8,1.5,2.8,1.7,4.2c0.3,1.9,0.5,3.8,0.8,5.7c0.4,2.5,4.2,1.5,3.9-1.1
				c-0.6-4.1-0.3-10-4.3-12.3C136.8,132.1,134.8,135.6,137,136.9L137,136.9z"/>
		</g>
	</g>
	<g>
		<g>
			<path fill="#FECFCC" d="M99.2,152.3c1.1,1.9,2.3,3.8,3.6,5.6c0.9,1.3,1.9,3,3.5,3.6c3.1,1.2,6.9-3.3,8.6-5.5
				c1.6-2.1,2.9-6.4-0.3-7.9c-3.3-1.5-8.6-0.1-11.9,0.9c-2.5,0.8-1.5,4.4,1.1,3.9c0.7-0.1,1.4-0.2,2.1-0.2c0.4,0,0.8,0.1,1.3,0.1
				c-0.5-0.3-0.8-0.3-1,0.1c-0.7,0.4-1.1,1.6-1.2,2.3c-0.4,1.7,1.4,3.1,2.9,2.3c2-1,3.5-2.4,4.9-4.2c1.4-2-1.5-3.7-3.1-2.4
				c-0.6,0.5-2.3,2.3-3.2,2.3c0.5,0.2,0.9,0.4,1.4,0.6c-0.5-0.6-0.9-1.4-1.2-2c-1.3-2.2-4.7-0.2-3.5,2c0.9,1.5,1.7,3.6,3.8,3.4
				c2-0.2,4-2.3,5.5-3.5c-1-0.8-2.1-1.6-3.1-2.4c-0.9,1.3-2.1,2.1-3.4,2.8c1,0.8,2,1.5,2.9,2.3c0.3-1.3,1.7-2,2-3.4
				c0.2-1,0-2.1-0.7-2.9c-1.7-1.9-5.2-1.3-7.4-0.9c0.4,1.3,0.7,2.6,1.1,3.9c2.2-0.7,4.4-1.1,6.7-1.2c3.7-0.1,0.5,2.9-0.8,4
				c-0.2,0.2-1.7,1.8-2,1.8c-0.1,0-1-1.2-1.3-1.7c-1.3-1.8-2.5-3.7-3.6-5.6C101.4,148,97.9,150,99.2,152.3L99.2,152.3z"/>
		</g>
	</g>
	<g>
		<g>
			<path fill="#FECFCC" d="M157.9,145.8c-0.7,1.9-1.3,3.8-2.1,5.7c-0.5,1.2-0.6,1.9-2.3,1.7c-0.9-0.1-1.7-0.6-2.4-1.2
				c-0.6-0.5-2-1.4-1.1-2.4c0.3-0.3,2-0.2,2.4-0.2c1.8-0.1,3.7-0.4,5.5-0.7c-0.6-1.1-1.3-2.2-1.9-3.3c-1.5,1.7-2.2,3.5-3.3,5.5
				c0.4-0.3,0.8-0.6,1.2-0.9c-0.2,0-0.4,0.1-0.6,0.1c0.5,0.1,1,0.1,1.5,0.2c-0.8-0.4-1.3-0.9-1.9-1.5c-1.8-1.9-4.6,1-2.8,2.8
				c1.2,1.3,3.1,3,5,2.1c0.8-0.4,1.1-1.1,1.5-1.9c0.6-1.3,1.2-2.5,2.1-3.6c1.4-1.5,0-3.7-1.9-3.3c-3.1,0.6-8.3-0.2-10.5,2.6
				c-2.1,2.6,0,5.8,2.2,7.6c2.2,1.8,5.8,3.2,8.4,1.6c2.9-1.7,3.7-6.8,4.8-9.7C162.6,144.4,158.7,143.4,157.9,145.8L157.9,145.8z"/>
		</g>
	</g>
	<g>
		<g>
			<path fill="#FECFCC" d="M135.5,89.6c-6.3-1.2-13.8-3-20.2-1.6c-6.9,1.6-12,9-8.6,15.8c2.9,5.8,11.6,7.5,17.2,4.9
				c5.2-2.4,9.6-10.9,7.8-16.5c-0.8-2.4-2.6-4.7-5.2-5.2c-10.1-2.1-22.3,10.4-16.7,20.4c1.3,2.3,3.9,3.7,6.5,3.7
				c8.7,0.1,11.7-11.4,9-18.2c-3.6-9.3-15.7-9.6-21.5-2.2c-5,6.4-5.7,16.5,1.4,21.6c6.7,4.8,16.2,3.5,20.5-3.7
				c4.9-8.3-8-15.9-13-7.6c1.6-2.7,1.2,2.2,2.2,0.7c1.1-1.6-0.4-2-1.6-2.7c-1.4-1.7-2.1-1.9-2.2-0.7c-0.3,0.7-0.1,0.7,0.5,0
				c1.8-0.7,3.5-1.5,5.3-2.2c-0.2,0-0.4,0-0.7,0c2.2,1.2,4.3,2.5,6.5,3.7c-0.1-0.2-0.3-0.5-0.4-0.7c0.3,1.3,0.7,2.5,1,3.8
				c0.1-1.1,1.4-1.5,2-1.6c-1.3,0-2.7,0-4,0c0.4,0.1,0.7,0.1,1.1,0.2c-1.7-1.7-3.5-3.5-5.2-5.2c0.1,0.3,0.2,0.6,0.3,0.9
				c0-1.3,0-2.7,0-4c-0.1,0.4-1,2.5-1.2,2.6c1.3-0.3,2.5-0.7,3.8-1c-2.6,0.3-1.8-0.4-0.5,1.5c0.3,1.3,0.7,2.5,1,3.8
				c0-0.5-0.1-0.9-0.1-1.4c-0.3,1.3-0.7,2.5-1,3.8c-0.3,0.6-1.4-0.1,0.6,0.2c1.3,0.2,2.7,0.2,4,0.3c2.5,0.3,4.9,0.7,7.3,1.1
				C140.9,105.8,145,91.4,135.5,89.6L135.5,89.6z"/>
		</g>
	</g>
	<g>
		<g>
			<path fill="#FECFCC" d="M96,99.2c2.4,3.9,4,7.4,5.3,11.7c1.1,3.9,5.3,6.3,9.2,5.2c3.9-1.1,6.4-5.3,5.2-9.2
				c-1.6-5.4-3.8-10.5-6.8-15.3c-2.1-3.4-6.7-4.8-10.3-2.7C95.3,91,93.9,95.8,96,99.2L96,99.2z"/>
		</g>
	</g>
	<g>
		<g>
			<path fill="#FECFCC" d="M96.6,99.3c2.2,24.5,33.9,29.4,49.7,13.9c4.2-4.1,5.8-9.4,6.4-15.1c0.5-4.4,1.8-10.7-0.5-14.8
				c-1.5-2.6-4.1-4-7.1-4.1c-3.1-0.1-4.6,1.5-7.2,2.8c-5.3,2.6-11.9-0.2-17-2c-9.2-3.1-13.1,11.4-4,14.5c11.3,3.8,21,4.9,31.5-1.3
				c-1.3,0.3-2.5,0.7-3.8,1c0.3,0,0.7,0.1,1,0.1c-2.2-1.2-4.3-2.5-6.5-3.7c0.1,0.2,0.2,0.4,0.3,0.6c-0.3-1.3-0.7-2.5-1-3.8
				c0.1,3.8,0,8.3-0.9,12c-1,4-4.9,5.7-8.6,6.9c-5.9,1.9-16.5,1.3-17.3-6.9C110.7,89.8,95.7,89.7,96.6,99.3L96.6,99.3z"/>
		</g>
	</g>
	<g>
		<g>
			<path fill="#FECFCC" d="M131.8,96.8c9.7,0,9.7-15,0-15C122.1,81.8,122.1,96.8,131.8,96.8L131.8,96.8z"/>
		</g>
	</g>
	<g>
		<g>
			<path fill="#FECFCC" d="M111.8,93.3c9.7,0,9.7-15,0-15C102.1,78.3,102.1,93.3,111.8,93.3L111.8,93.3z"/>
		</g>
	</g>
	<g>
		<g>
			<path fill="#FECFCC" d="M103.2,85.2c-0.2,0.2-0.9,1.3-0.2,0.3c0.7-0.9,0.1-0.1-0.1,0.1c-0.5,0.5-1,1-1.5,1.5
				c-0.2,0.2-1,0.8-0.1,0.1c1-0.8,0,0-0.3,0.2c-0.6,0.4-1.2,0.7-1.8,1.1c-3.5,1.8-4.8,7-2.7,10.3c2.3,3.6,6.5,4.6,10.3,2.7
				c3.8-2,6.9-5,9.3-8.5c2.2-3.2,0.7-8.5-2.7-10.3C109.7,80.4,105.6,81.7,103.2,85.2L103.2,85.2z"/>
		</g>
	</g>
	<g>
		<g>
			<path fill="#FECFCC" d="M129.5,99.8c-3.5,0.8-7.1,1.2-10.7,1.2c-6.4,0-6.4,10,0,10c4.5,0,9-0.5,13.4-1.5
				C138.4,108,135.8,98.3,129.5,99.8L129.5,99.8z"/>
		</g>
	</g>
	<g>
		<g>
			<path fill="#FECFCC" d="M111.5,86.3c6.4,0,6.4-10,0-10C105,76.3,105,86.3,111.5,86.3L111.5,86.3z"/>
		</g>
	</g>
	<g>
		<g>
			<path fill="#FECFCC" d="M111.5,87.7c10.8,2.1,21.6,4.2,32.6,2.8c6.3-0.8,6.4-10.8,0-10c-10.2,1.2-20-0.5-30-2.5
				C107.9,76.8,105.2,86.5,111.5,87.7L111.5,87.7z"/>
		</g>
	</g>
	<g>
		<g>
			<path fill="#FECFCC" d="M143.2,87.1c0.6,2.2,1.2,4.3,0.7,6.3c-0.8,2.6,0.9,5.4,3.5,6.2c2.7,0.7,5.4-0.9,6.2-3.5
				c1.1-3.9,0.4-7.8-0.7-11.6C151.1,78.3,141.5,80.9,143.2,87.1L143.2,87.1z"/>
		</g>
	</g>
	<g>
		<g>
			<path fill="#FECFCC" d="M144.1,88c0.3,1.7,0.6,3.3,1,5c0.5,2.6,3.7,4.3,6.2,3.5c2.7-0.9,4-3.4,3.5-6.2c-0.3-1.7-0.6-3.3-1-5
				c-0.5-2.6-3.7-4.3-6.2-3.5C144.8,82.7,143.6,85.2,144.1,88L144.1,88z"/>
		</g>
	</g>
	<g>
		<g>
			<path fill="#FECFCC" d="M102.1,86.7c-2.9,1.3-5.8,1.7-8.9,1.5c-5.6-0.3-6.9,8.6-1.3,9.8c2.4,0.5,4.1,5.8,5,7.7
				c1.3,2.7,2.1,5.7,3.7,8.2c2.9,4.7,8,6.3,13.2,7c6.3,0.9,9-8.7,2.7-9.6c-2.8-0.4-5.9-0.6-7.6-3.1c-1.7-2.4-2.5-5.8-3.8-8.4
				c-2.3-4.8-4.9-10.2-10.6-11.5c-0.4,3.3-0.9,6.5-1.3,9.8c5,0.2,9.4-0.8,13.9-2.9C113,92.6,107.9,84,102.1,86.7L102.1,86.7z"/>
		</g>
	</g>
</g>
<g id="Layer_6">
	<g>
		<g>
			<path fill="#58595B" d="M103.8,73c-2.9,1.4-5.9,2.6-7.9,5.2c-1.8,2.4-3.2,5.2-3.3,8.2c0,0.8,0.6,1.8,1.5,1.9
				c6.4,0.9,12.1-6.2,13.4-11.8c0.5-2.1-0.7-5.3-3.4-3.7c-1.3,0.8-2,2.7-2.9,3.9c-1.2,1.6-2.6,3-4.1,4.3c1.1,0.5,2.3,0.9,3.4,1.4
				c0.2-2.3,0.8-4.5,2.5-6.1c1.9-1.8-1-4.6-2.8-2.8c-2.5,2.4-3.3,5.6-3.7,8.9c-0.2,1.9,2.3,2.5,3.4,1.4c1.3-1.2,2.5-2.4,3.6-3.8
				c0.3-0.4,2.4-3.7,2.4-3.7c-0.5-0.1-1-0.1-1.5-0.2c0.1,0,0.2,0.1,0.2,0.1c-0.3-0.4-0.6-0.8-0.9-1.2c0.4,1.5-1.9,4.6-2.8,5.6
				c-1.2,1.5-3.6,4-5.7,3.7c0.5,0.6,1,1.3,1.5,1.9c0.1-2.3,1.5-5,3.2-6.5c1.6-1.6,4.1-2.4,6-3.4C108.1,75.4,106.1,71.9,103.8,73
				L103.8,73z"/>
		</g>
	</g>
	<g>
		<g>
			<path fill="#58595B" d="M97.9,80.8c-1,0.4-1.8,1-2.4,1.9c-0.5,0.9-0.3,2.2,0.7,2.7c0.9,0.5,2.2,0.3,2.7-0.7
				c0-0.1,0.1-0.2,0.1-0.2c-0.2,0.2-0.2,0.2,0,0.1c-0.2,0.2-0.2,0.2-0.1,0.1c0.2-0.1,0.2-0.1-0.1,0c1-0.4,1.7-1.4,1.4-2.5
				C100.1,81.2,99,80.4,97.9,80.8L97.9,80.8z"/>
		</g>
	</g>
	<g>
		<g>
			<path fill="#58595B" d="M110.3,76.4c6.1,1.8,12.4,3.1,18.7,3.9c2.9,0.4,5.9,0.8,8.9,0.6c3.2-0.2,6.2-1.4,9.5-1
				c2.6,0.3,2.5-3.7,0-4c-2.4-0.3-4.3,0.2-6.7,0.6c-3.3,0.6-6.5,0.4-9.8,0c-6.6-0.8-13.1-2.2-19.5-4
				C108.9,71.9,107.8,75.7,110.3,76.4L110.3,76.4z"/>
		</g>
	</g>
	<g>
		<g>
			<path fill="#58595B" d="M139.2,67.4c-0.3-0.2-0.6-0.3-0.8-0.5c-0.7,1.2-1.3,2.3-2,3.5c3,1.5,5.9,2.9,7.5,6c0.6-1,1.2-2,1.7-3
				c-4.8-0.2-9.6-0.4-14.4-0.6c-4.5-0.2-10.3,0.5-14.4-1.7c-0.2,1.2-0.3,2.4-0.5,3.7c4.8-1,9.8-1.1,14.7-1.6
				c1.2-0.1,2.4-0.2,3.7-0.3c-0.9-1.8-2.2-2.4-4-2.1c-2.7-0.9-6-0.8-8.9-1.6c0,1.3,0,2.6,0,3.9c2.2-0.6,5.2-1.1,7.5-0.5
				c-0.5-0.6-1-1.3-1.5-1.9c0.1,1.7-1.9,2.6-1.5,4.4c0.5,2.4,3.3,2.8,5.2,3.1c2.3,0.3,4.9,1,6.7-0.7c1.8-1.7,1.5-4.4,0.9-6.4
				c-0.8,0.8-1.6,1.6-2.5,2.5c0.9,0.2,1.8,0.3,2.7,0.5c1.5,0.3,2.8-0.9,2.5-2.5c-0.1-0.6-0.3-1.2-0.4-1.8c-0.8,0.8-1.6,1.6-2.5,2.5
				c0.8,0.3,1.7,0.5,2.5,0.8c2.3,1.1,4.3-2.4,2-3.5c-1.6-0.7-1.8-0.8-3.4-1.2c-1.5-0.3-2.8,0.9-2.5,2.5c0.1,0.6,0.3,1.2,0.4,1.8
				c0.8-0.8,1.6-1.6,2.5-2.5c-0.9-0.2-1.8-0.3-2.7-0.5c-1.4-0.2-3,0.9-2.5,2.5c0.8,2.5,0.2,2.1-1.6,2.3c-1.1-0.2-2.1-0.3-3.2-0.5
				c0,0.5,0.2,0.5,0.4-0.1c0.1-1.2,1-1.9,0.9-3.3c0-0.9-0.6-1.7-1.5-1.9c-3-0.9-6.7-0.3-9.6,0.5c-1.9,0.5-1.9,3.3,0,3.9
				c2.3,0.6,20.5,4.8,17.4-2.4c-1.2-2.8-5.8-1.5-8-1.3c-4.9,0.4-10,0.7-14.8,1.6c-1.7,0.3-1.9,2.9-0.5,3.7c3.9,2.1,8.3,1.9,12.6,2.1
				c6.1,0.3,12.2,0.5,18.2,0.7c1.6,0.1,2.4-1.7,1.7-3c-1.9-3.7-5.3-5.6-8.9-7.4c-2.3-1.1-4.3,2.1-2,3.5c0.3,0.2,0.6,0.3,0.8,0.5
				C139.4,72.2,141.4,68.7,139.2,67.4L139.2,67.4z"/>
		</g>
	</g>
	<g>
		<g>
			<path fill="#58595B" d="M143.7,74.7c1.5,1.3,2.8,2.9,3.8,4.6c1.3,2.2,4.7,0.2,3.5-2c-1.2-2-2.7-3.9-4.4-5.4c-0.8-0.7-2-0.8-2.8,0
				C143,72.6,142.9,73.9,143.7,74.7L143.7,74.7z"/>
		</g>
	</g>
	<g>
		<g>
			<path fill="#58595B" d="M132.9,67.6c-2.7-0.6-5.3-0.8-8-0.5c-2.5,0.3-2.6,4.3,0,4c2.4-0.3,4.7-0.2,7,0.4
				C134.3,72.1,135.4,68.2,132.9,67.6L132.9,67.6z"/>
		</g>
	</g>
	<g>
		<g>
			<path fill="#58595B" d="M136.5,66.3c-4.8-0.3-9.6-0.3-14.4-0.1c-2.6,0.1-2.6,4.1,0,4c4.8-0.2,9.6-0.2,14.4,0.1
				C139.1,70.5,139,66.5,136.5,66.3L136.5,66.3z"/>
		</g>
	</g>
	<g>
		<g>
			<path fill="#58595B" d="M134.9,65c-9.2-0.6-18.6,0.2-24.6,8c-1.6,2,1.9,4,3.5,2c5-6.6,13.7-6.5,21.2-6
				C137.4,69.2,137.4,65.2,134.9,65L134.9,65z"/>
		</g>
	</g>
	<g>
		<g>
			<path fill="#58595B" d="M103.7,76.5c3.8-1.3,7.6-1.1,11.5-0.9c2.6,0.1,2.6-3.9,0-4c-4.3-0.2-8.5-0.3-12.6,1.1
				C100.2,73.5,101.3,77.3,103.7,76.5L103.7,76.5z"/>
		</g>
	</g>
	<g>
		<g>
			<path fill="#58595B" d="M119.9,66c-3.9,1.5-7.4,3.7-10.4,6.7c-1.8,1.8,1,4.6,2.8,2.8c2.5-2.5,5.4-4.4,8.6-5.6
				C123.4,69,122.3,65.1,119.9,66L119.9,66z"/>
		</g>
	</g>
	<g>
		<g>
			<path fill="#58595B" d="M118,65.8c-3.6,1.6-6.4,4.3-9.2,7c-1.8,1.8,1,4.6,2.8,2.8c2.5-2.5,5.1-4.9,8.4-6.4
				C122.3,68.2,120.3,64.7,118,65.8L118,65.8z"/>
		</g>
	</g>
	<g>
		<g>
			<path fill="#58595B" d="M140.6,80.9c2.1-1.1,4.4-1.9,5.8-3.9c0.6-0.9,0.1-2.2-0.7-2.7c-1-0.6-2.1-0.2-2.7,0.7
				c-0.4,0.5-1.2,0.8-1.8,1.1c-0.9,0.4-1.7,0.9-2.6,1.3C136.3,78.6,138.3,82,140.6,80.9L140.6,80.9z"/>
		</g>
	</g>
	<g>
		<g>
			<path fill="#58595B" d="M146.9,79.3c0.2,0,2.2,2.1,2.3,2.4c1.2-0.5,2.4-1,3.7-1.5c-2.6-3.6-7.8-4.1-12-4c-2.6,0-2.6,4,0,4
				c2.3,0,6.9-0.1,8.5,2c1.3,1.8,4.2,0.8,3.7-1.5c-0.4-1.7-2-2.9-3.2-4c-1.3-1-2.3-1.5-4-1.2C143.3,75.8,144.3,79.6,146.9,79.3
				L146.9,79.3z"/>
		</g>
	</g>
	<g>
		<g>
			<path fill="#97B6EC" d="M71.8,55.1c2.8,3.8,3.5,4.4,6.7,8.3c-2.9-1-8.7-3.9-8.7-3.9s-31.3,10.7-40.2,6.2
				c-6.2-3.1-9.2-21-3.5-27.9c6.2-7.7,33.5-8.5,40.7-5.8C75,35,78.4,48.7,71.8,55.1"/>
		</g>
	</g>
	<g>
		<g>
			<path fill="#FCF2ED" d="M35.2,51c1.9,0,1.9-2.9,0-2.9C33.4,48.1,33.4,51,35.2,51L35.2,51z"/>
		</g>
	</g>
	<g>
		<g>
			<path fill="#FCF2ED" d="M44,50.3c1.9,0,1.9-2.9,0-2.9S42.1,50.3,44,50.3L44,50.3z"/>
		</g>
	</g>
	<g>
		<g>
			<path fill="#FCF2ED" d="M51.7,49.5c1.9,0,1.9-2.9,0-2.9S49.9,49.5,51.7,49.5L51.7,49.5z"/>
		</g>
	</g>
	<g>
		<g>
			<path fill="#FCF2ED" d="M60.1,48.2c1.9,0,1.9-2.9,0-2.9C58.2,45.4,58.2,48.2,60.1,48.2L60.1,48.2z"/>
		</g>
	</g>
	<g>
		<g>
			<path fill="#58595B" d="M138.5,66.2c-0.8-0.4-1.7-0.6-2.6-0.7c-0.5-0.1-1,0.5-1,1c0,0.6,0.5,0.9,1,1c0.5,0.1,1.1,0.2,1.6,0.4
				c0.5,0.2,1.1,0.1,1.4-0.4C139.1,67.1,139,66.4,138.5,66.2L138.5,66.2z"/>
		</g>
	</g>
	<g>
		<g>
			<path fill="#58595B" d="M145.2,70.8c-4.6-4.4-10.3-3.7-16-4.8c-1.3-0.2-1.8,1.7-0.5,1.9c5.3,1,10.9,0.1,15.1,4.2
				C144.7,73.1,146.1,71.7,145.2,70.8L145.2,70.8z"/>
		</g>
	</g>
	<g>
		<g>
			<path fill="#58595B" d="M141.1,81.2c2.5-0.8,4.5-0.3,6.8,0.9c1.4,0.7,2.7,1.2,4.2,1.3c1.3,0.1,1.3-1.9,0-2
				c-2.3-0.1-4-1.7-6.2-2.3c-1.8-0.5-3.6-0.4-5.4,0.2C139.4,79.7,139.9,81.6,141.1,81.2L141.1,81.2z"/>
		</g>
	</g>
	<g>
		<g>
			<path fill="#58595B" d="M93,82.7c-0.7,1.6-2.3,5.6,0.3,6.4c2.2,0.6,4.7-0.3,6.1-2c0.8-1-0.6-2.4-1.4-1.4c-0.9,1-2.1,1.6-3.4,1.6
				c-0.2,0-0.7-0.1-0.7-0.1c0.1,0.1,0.1-0.6,0.1-0.8c0.1-0.9,0.4-1.9,0.7-2.7C95.2,82.5,93.5,81.5,93,82.7L93,82.7z"/>
		</g>
	</g>
	<g>
		<g>
			<path fill="#58595B" d="M92.5,83.6c-0.6,1.4-1.1,2.8-1.4,4.3c-0.2,1.3,1.7,1.8,1.9,0.5c0.2-1.3,0.6-2.6,1.2-3.8
				C94.7,83.5,93,82.5,92.5,83.6L92.5,83.6z"/>
		</g>
	</g>
</g>
<g id="Layer_7">
	<g>
		<g>
			<path fill="#FCBBB9" d="M154.2,85.5c-0.9-3.9-4.2-3.9-7.6-4.5c-6.6-1-13.2,0.4-19.9-0.6c-3.7-0.5-7.2-1.5-10.8-2.6
				c-2-0.6-4.9-2-7.1-1.2c-1.9,0.7-2.9,3.2-3.9,4.7c-2.5,3.4-5.3,6-9.5,7c-2.5,0.6-1.4,4.4,1.1,3.9c4.1-0.9,7.3-3.2,10-6.4
				c1.4-1.6,2.7-4.8,5-5.1c2.1-0.3,6.5,2.1,8.8,2.6c5.1,1.2,10.3,1.8,15.5,1.8c2.3,0,13.8-1.8,14.5,1.5
				C150.9,89.1,154.7,88,154.2,85.5L154.2,85.5z"/>
		</g>
	</g>
	<g>
		<g>
			<path fill="#FCBBB9" d="M108.4,84.5c6.2,1.2,12.5,1.6,18.8,1.8c6.1,0.2,12,0.3,18-1.4c2.5-0.7,1.4-4.6-1.1-3.9
				c-5.6,1.6-11.2,1.5-16.9,1.3c-5.9-0.2-11.9-0.5-17.7-1.6C107,80.2,105.9,84,108.4,84.5L108.4,84.5z"/>
		</g>
	</g>
	<g>
		<g>
			<path fill="#FCBBB9" d="M110.8,82.6c3.3,0.3,6.7,0.6,10,1.1c2.5,0.4,3.6-3.5,1.1-3.9c-3.7-0.5-7.3-1-11-1.3
				C108.2,78.4,108.2,82.4,110.8,82.6L110.8,82.6z"/>
		</g>
	</g>
</g>
<g id="Layer_3">
	<g>
		<g>
			<path fill="#282828" d="M150.7,89.5c0.5-0.6,1.2-1.4,2.1-1.5c1.4-0.1,1.9,1.5,2,2.5c0.1,1.8-1.1,3.2-2.6,4.1
				c-1.1,0.7-0.1,2.4,1,1.7c2.6-1.6,4.4-4.7,3.2-7.8c-1.4-3.3-5-3.1-7-0.5C148.5,89.1,149.9,90.5,150.7,89.5L150.7,89.5z"/>
		</g>
	</g>
	<g>
		<g>
			<path fill="#282828" d="M94.1,88.3c-3.3-0.4-7.6,0.4-7.1,4.7c0.4,3.8,3.3,6.2,7,6.6c1.3,0.2,1.3-1.8,0-2
				c-2.4-0.3-4.3-1.7-4.9-4.1c-0.8-3.4,2.6-3.5,5-3.2C95.3,90.5,95.3,88.5,94.1,88.3L94.1,88.3z"/>
		</g>
	</g>
	<g>
		<g>
			<path fill="#282828" d="M110.2,93.1c1.8,0.7,3.6,1.1,5.5,1.1c1.3,0,1.3-2,0-2c-1.7,0-3.4-0.4-5-1C109.5,90.7,109,92.6,110.2,93.1
				L110.2,93.1z"/>
		</g>
	</g>
	<g>
		<g>
			<path fill="#282828" d="M127.8,86.6c-1.3,1.6-2.8,3-4.4,4.2c-1,0.8,0.4,2.2,1.4,1.4c1.6-1.3,3.1-2.7,4.4-4.2
				C130.1,87,128.7,85.6,127.8,86.6L127.8,86.6z"/>
		</g>
	</g>
	<g>
		<g>
			<path fill="#282828" d="M115.6,98.8c0.8,1.5,1.6,2.9,2.4,4.4c0.6,1.1,2.3,0.1,1.7-1c-0.8-1.5-1.6-2.9-2.4-4.4
				C116.7,96.6,115,97.6,115.6,98.8L115.6,98.8z"/>
		</g>
	</g>
	<g>
		<g>
			<path fill="#282828" d="M125.1,97c0.3,1.8,1,3.4,2.1,4.8c0.8,1,2.2-0.4,1.4-1.4c-0.9-1.2-1.4-2.5-1.6-3.9
				C126.9,95.2,124.9,95.7,125.1,97L125.1,97z"/>
		</g>
	</g>
	<g>
		<g>
			<path fill="#282828" d="M125,112.7c1.3,0,1.3-2,0-2C123.7,110.7,123.7,112.7,125,112.7L125,112.7z"/>
		</g>
	</g>
	<g>
		<g>
			<path fill="#282828" d="M117.3,68.2c8.3-4.4,16.6-4.4,24.6,0.6c5.5,3.4,7.7,8.3,9.9,14.2c0.4,1.2,2.4,0.7,1.9-0.5
				c-2.5-7.1-5.4-12.3-12.2-16.2c-8.2-4.6-16.9-4.2-25.2,0.2C115.2,67.1,116.2,68.8,117.3,68.2L117.3,68.2z"/>
		</g>
	</g>
	<g>
		<g>
			<path fill="#282828" d="M106.3,71c-3.7,0.4-7,1.3-9.7,3.9c-2.6,2.6-4,6-5,9.5c-0.4,1.2,1.6,1.8,1.9,0.5c0.8-2.9,1.9-5.8,4-8
				c2.4-2.6,5.4-3.5,8.8-3.9C107.6,72.9,107.6,70.9,106.3,71L106.3,71z"/>
		</g>
	</g>
	<g>
		<g>
			<path fill="#282828" d="M99.4,88.6c2.9-1.7,5.1-3.9,6.9-6.7c1.1-1.7,1.5-3.9,3.6-4.4c1.4-0.3,5.5,1.7,7,2.1
				c6.9,1.7,17.2,4.3,24.1,1.7c1.2-0.4,0.7-2.4-0.5-1.9c-4.7,1.8-12,0.4-16.8-0.4c-5.1-0.9-10.1-2.3-15-4.1c-0.4-0.1-1,0.1-1.1,0.5
				c-2.2,4.6-4.7,8.8-9.2,11.5C97.3,87.5,98.3,89.2,99.4,88.6L99.4,88.6z"/>
		</g>
	</g>
	<g>
		<g>
			<path fill="#282828" d="M102.1,148.3c5.5-11.8,12.2-23.8,26.7-24.5c12.7-0.6,23.6,10,29.4,20.4c0.6,1.1,2.4,0.1,1.7-1
				c-6.2-11.1-17.7-22-31.1-21.4c-15.3,0.7-22.6,13-28.4,25.5C99.8,148.5,101.5,149.5,102.1,148.3L102.1,148.3z"/>
		</g>
	</g>
	<g>
		<g>
			<path fill="#282828" d="M99.6,151.2c2.7-1.9,13.7-8.6,16-3.3c1,2.3-0.6,5.9-1.8,7.8c-1.4,2.1-3.4,3.6-5.7,4.6
				c-1.2,0.5-0.2,2.2,1,1.7c5.1-2.2,11.3-9.8,8-15.6c-3.4-6.1-14.8,0.6-18.5,3.2C97.6,150.2,98.6,151.9,99.6,151.2L99.6,151.2z"/>
		</g>
	</g>
	<g>
		<g>
			<path fill="#282828" d="M161.6,143.9c-3.9-1.3-8.1-1.7-12.2-1.7c-2.6,0-5,0.6-6,3.2c-2.3,5.9,5.2,11.2,10.2,11.8
				c1.3,0.2,1.3-1.8,0-2c-2.4-0.3-5-2-6.7-3.7c-2.6-2.8-2.7-6.9,2-7.4c3.9-0.4,8.5,0.4,12.2,1.6
				C162.3,146.2,162.8,144.3,161.6,143.9L161.6,143.9z"/>
		</g>
	</g>
	<g>
		<g>
			<path fill="#282828" d="M113.4,143.3c-0.3-2.4-1.4-4.6,1.5-6.1c0.9-0.5,2.8-0.4,3.9-0.6c3.5-0.5,7.1-1.1,10.6-1.6
				c2.6-0.4,6.9-2,9.4-1.5c2.1,0.4,4,7.9,4.7,10.3c0.4,1.2,2.3,0.7,1.9-0.5c-1-3-2-6-3.3-8.9c-0.3-0.7-0.6-2.2-1.5-2.7
				c-0.7-0.4-1.5-0.1-2.2,0c-3.2,0.3-6.5,1-9.6,1.4c-2.9,0.4-5.8,0.9-8.7,1.3c-2.2,0.3-5.9,0.3-7.9,1.2c-3,1.4-1.1,5.5-0.7,8.2
				C111.7,145.1,113.6,144.6,113.4,143.3L113.4,143.3z"/>
		</g>
	</g>
	<g>
		<g>
			<path fill="#282828" d="M114.6,155.8c0.8,3.4,1.6,6.8,2.6,10.2c0.3,1.1,0.4,3.1,1.5,3.8c1.2,0.8,3.4,0.3,4.7,0.3
				c3.1-0.1,6.2-0.3,9.3-0.7c2.8-0.4,5.5-0.9,8.3-1.5c1.7-0.4,5.6-0.7,6.9-2c2-2.1-0.1-9.9-0.4-12.6c-0.1-1.3-2.1-1.3-2,0
				c0.3,3,2.1,9.4-0.6,11.5c-2.5,2-9.5,2.2-12.4,2.6c-3.1,0.4-9.3,1.8-12-0.2c-2.6-2-3.2-8.8-4-11.9
				C116.3,154,114.3,154.5,114.6,155.8L114.6,155.8z"/>
		</g>
	</g>
	<g>
		<g>
			<path fill="#282828" d="M117.6,140.4c2,7.5,3.6,15,4.8,22.7c0.2,1.3,2.1,0.7,1.9-0.5c-1.2-7.7-2.7-15.2-4.8-22.7
				C119.2,138.7,117.3,139.2,117.6,140.4L117.6,140.4z"/>
		</g>
	</g>
	<g>
		<g>
			<path fill="#282828" d="M103.5,122.4c0,2-0.3,4.3,0.5,6.2c0.5,1.2,2.2,0.2,1.7-1c-0.3-0.8-0.2-1.7-0.3-2.5c0-0.9,0-1.8,0-2.6
				C105.5,121.1,103.5,121.1,103.5,122.4L103.5,122.4z"/>
		</g>
	</g>
	<g>
		<g>
			<path fill="#282828" d="M97.4,127c1.1,1.2,2.2,2.4,3.3,3.6c0.9,1,2.3-0.5,1.4-1.4c-1.1-1.2-2.2-2.4-3.3-3.6
				C98,124.6,96.5,126,97.4,127L97.4,127z"/>
		</g>
	</g>
	<g>
		<g>
			<path fill="#282828" d="M95.5,134.3c1.9,0.2,3.7,0.3,5.6,0.3c1.3,0,1.3-2,0-2c-1.9,0-3.7-0.1-5.6-0.3
				C94.2,132.1,94.2,134.1,95.5,134.3L95.5,134.3z"/>
		</g>
	</g>
	<g>
		<g>
			<path fill="#282828" d="M93.2,98.9c1.8,6.9,4,14.4,10.1,18.8c5.9,4.1,14.7,6.2,21.8,6.1c7-0.2,14.4-2.5,19.8-7
				c6-5,7.7-13.7,9.1-21c0.2-1.3-1.7-1.8-1.9-0.5c-1.2,6.3-2.6,14.4-7.3,19c-5,4.9-12.7,7.3-19.6,7.5c-6.3,0.2-14.1-1.8-19.6-5
				c-6.5-3.9-8.6-11.5-10.4-18.4C94.8,97.1,92.9,97.7,93.2,98.9L93.2,98.9z"/>
		</g>
	</g>
	<g>
		<g>
			<path fill="#282828" d="M91.5,93c0.2,0.8,0.8,1.6,1.5,1.9c0.5,0.2,1.1,0.1,1.4-0.4c0.3-0.4,0.1-1.1-0.4-1.4
				c-0.4-0.2-0.5-0.4-0.6-0.7C93.1,91.2,91.2,91.7,91.5,93L91.5,93z"/>
		</g>
	</g>
	<g>
		<g>
			<path fill="#282828" d="M151.7,90.5c0,0.3-0.2,0.6-0.5,0.8c-1.1,0.7-0.1,2.4,1,1.7c0.9-0.6,1.4-1.5,1.5-2.6c0-0.5-0.5-1-1-1
				C152.2,89.5,151.8,89.9,151.7,90.5L151.7,90.5z"/>
		</g>
	</g>
</g>
</svg>
