<?xml version="1.0" encoding="utf-8"?>
<!-- Generator: Adobe Illustrator 22.1.0, SVG Export Plug-In . SVG Version: 6.00 Build 0)  -->
<svg version="1.1" id="Layer_1" xmlns="http://www.w3.org/2000/svg" xmlns:xlink="http://www.w3.org/1999/xlink" x="0px" y="0px"
	 viewBox="0 0 1366 768" enable-background="new 0 0 1366 768" xml:space="preserve">
<g>
	<defs>
		<rect id="SVGID_1_" width="1366" height="768"/>
	</defs>
	<clipPath id="SVGID_2_">
		<use xlink:href="#SVGID_1_"  overflow="visible"/>
	</clipPath>
	<g id="Ayo_belajar" clip-path="url(#SVGID_2_)">
		<rect fill="#FBF2ED" width="1366" height="768"/>
		<g id="Layer_1_1_" transform="translate(341.294 -171.785)">
			<g id="Group_50" transform="translate(341.706 238.359)">
				<path id="Path_22" fill="#97B6EC" d="M182.5,91.6c10.4,14.1,13.1,16.6,24.9,30.9c-10.7-3.9-32.7-14.4-32.7-14.4
					s-116.8,40.1-150.4,23C1.3,119.4-9.9,52.7,11.1,27C34.3-1.9,136.5-4.8,163.2,5.2C194.5,16.9,207.3,67.9,182.5,91.6"/>
			</g>
			<g id="Group_52" transform="translate(382.436 303.949)">
				<g id="Group_51" transform="translate(0 0)">
					<path id="Path_23" fill="#FCF2ED" d="M5.2,10.7c6.9,0,6.9-10.7,0-10.7S-1.7,10.7,5.2,10.7z"/>
				</g>
			</g>
			<g id="Group_54" transform="translate(415.253 301.605)">
				<g id="Group_53" transform="translate(0)">
					<path id="Path_24" fill="#FCF2ED" d="M5.2,10.7c6.9,0,6.9-10.7,0-10.7S-1.7,10.7,5.2,10.7z"/>
				</g>
			</g>
			<g id="Group_56" transform="translate(444.163 298.479)">
				<g id="Group_55" transform="translate(0 0)">
					<path id="Path_25" fill="#FCF2ED" d="M5.2,10.7c6.9,0,6.9-10.7,0-10.7S-1.7,10.7,5.2,10.7z"/>
				</g>
			</g>
			<g id="Group_58" transform="translate(475.418 293.791)">
				<g id="Group_57" transform="translate(0 0)">
					<path id="Path_26" fill="#FCF2ED" d="M5.2,10.7c6.9,0,6.9-10.7,0-10.7S-1.7,10.7,5.2,10.7z"/>
				</g>
			</g>
			<g id="Group_60" transform="translate(579.106 512.898)">
				<g id="Group_59" transform="translate(0 0)">
					<path id="Path_27" fill="#282828" d="M0,3.1c1.9,35.3,7.4,71,20.8,103.9c9.7,23.8,23.8,46.1,43.5,62.9
						c16.4,14,36.1,23.6,57.2,28c20.4,4.2,41.5,3.5,61.7-0.7c20-4.3,39-11.9,56.4-22.6c16.6-10,31.1-22.9,43-38.2
						c10.4-13.7,17.9-29.8,19.9-47c0-0.2,0-0.3,0.1-0.5c0.2-1.8-1.6-3.2-3.2-3.2c-1.8,0-3.2,1.5-3.2,3.2c-0.1,0.5-0.1,1-0.2,1.4
						c0,0.2-0.1,1,0,0.1c0,0.2-0.1,0.5-0.1,0.7c-0.2,1-0.3,2.1-0.5,3.1c-0.4,2-0.8,4-1.4,5.9c-0.5,2-1.2,3.9-1.8,5.9
						c-0.3,0.9-0.7,1.9-1,2.8c-0.2,0.5-0.4,0.9-0.6,1.4c-0.1,0.1-0.4,0.9-0.1,0.2c-0.1,0.3-0.3,0.6-0.4,0.9
						c-3.5,7.9-8,15.4-13.3,22.2c-0.5,0.7,0.4-0.5-0.2,0.2c-0.2,0.2-0.3,0.4-0.5,0.6c-0.3,0.4-0.7,0.8-1,1.3
						c-0.7,0.9-1.5,1.8-2.3,2.7c-1.5,1.7-3,3.4-4.6,5.1c-3.2,3.4-6.6,6.6-10.2,9.7c-7.2,6.3-15,11.9-23.2,16.7
						c-8.5,5.1-17.3,9.4-26.5,13c-9.5,3.7-19.3,6.5-29.3,8.5c-4.8,1-9.7,1.7-14.6,2.1c-5.1,0.5-10.1,0.7-15.2,0.7
						c-10,0-20-1.1-29.7-3.4c-20.5-4.8-39.4-14.8-54.8-29.1c-19-17.6-32.1-40.5-41-64.9c-10.9-30-15.7-62-17.3-93.8
						C6.2-1-0.2-1.1,0,3.1L0,3.1z"/>
				</g>
			</g>
			<g id="Group_62" transform="translate(550.5 533.25)">
				<g id="Group_61" transform="translate(0 0)">
					<path id="Path_28" fill="#282828" d="M22.9,0.1C16,2,10.4,7.5,6.2,13.2c-5,6.6-7.1,15-5.8,23.2c2.7,15.4,17.7,26.4,33.1,25
						c4.1-0.4,4.1-6.8,0-6.4C20.9,56.2,9.4,47.7,6.8,35.3c-1.4-6.6,1-12.9,4.6-18.3c3.1-4.5,7.8-9.1,13.2-10.6
						C28.6,5.2,26.9-1,22.9,0.1L22.9,0.1z"/>
				</g>
			</g>
			<g id="Group_64" transform="translate(869.513 542.936)">
				<g id="Group_63">
					<path id="Path_29" fill="#282828" d="M19.4,5.9C31.4,11.2,37.4,24.9,33,37.3C29,49.1,16,55.9,4,52.9c-4-1-5.7,5.2-1.7,6.2
						c15.4,3.8,30.6-4.5,36.5-19C45,25.1,37.4,6.9,22.6,0.4c-1.5-0.9-3.5-0.3-4.4,1.2C17.4,2.9,17.7,5.2,19.4,5.9L19.4,5.9z"/>
				</g>
			</g>
			<g id="Group_66" transform="translate(675.919 363.088)">
				<g id="Group_65" transform="translate(0 0)">
					<path id="Path_30" fill="#282828" d="M5.9,54C16.4,33.6,34.4,19,55.8,11.9c22.4-7.4,46.7-6.9,69.4-0.8
						c24.5,6.5,46.7,19.7,64.2,38.1c19.1,20.2,30.9,46.5,34.3,74.2c1.9,16.5,1.4,33.3-1.5,49.7c-0.7,4.1,5.5,5.8,6.2,1.7
						c5.5-31.7,3.4-64.5-10.1-94c-11.1-24.5-29.9-45-52.6-59.1C144.2,8.3,119.6,0.9,94.3,0c-23.2-0.7-47.1,5-66.2,18.6
						C16.4,27,6.9,38,0.4,50.8C-1.5,54.5,4.1,57.7,5.9,54L5.9,54z"/>
				</g>
			</g>
			<g id="Group_68" transform="translate(562.21 407.643)">
				<g id="Group_67" transform="translate(0)">
					<path id="Path_31" fill="#282828" d="M111.6,10.2C95.5,1.3,77-2.4,58.8,1.6C42.7,5.1,28.3,14.8,18.1,27.5
						C7.3,40.9,1,57.3,0.1,74.4c-1.1,19,5.2,37.8,16,53.3c0.5,0.7,1,1.4,1.5,2.1c0.9,1.5,2.9,2,4.4,1.2c1.4-0.8,2.2-3,1.2-4.4
						C12,111.4,5.6,93.3,6.6,74.4C7.5,58,13.8,42.3,24.5,29.8c9.6-11.2,22.6-19,37-22.2c16.1-3.4,32.7,0.4,46.9,8.2
						C112,17.8,115.3,12.2,111.6,10.2L111.6,10.2z"/>
				</g>
			</g>
			<g id="Group_70" transform="translate(562.06 551.117)">
				<g id="Group_69" transform="translate(0)">
					<path id="Path_32" fill="#282828" d="M2.7,1.6c-3.5,4.8-3.5,11.3-0.1,16.1c0.9,1.5,2.9,2,4.4,1.2c1.4-0.8,2.2-3,1.2-4.4
						c-2.2-2.8-2.2-6.8,0.1-9.6c1-1.4,0.2-3.6-1.2-4.4C5.5-0.4,3.6,0.1,2.7,1.6L2.7,1.6z"/>
				</g>
			</g>
			<g id="Group_72" transform="translate(643.393 459.98)">
				<g id="Group_71" transform="translate(0)">
					<path id="Path_33" fill="#282828" d="M0.5,4.8c5,7.6,10.7,14.7,17.2,21.1c13,13.2,28.7,24.1,46.5,29.4c6.7,2,15.3,4.2,21.9,0.8
						c4.6-2.4,5.8-7.8,5.1-12.5c-1.4-10.3-7.4-20.1-13.1-28.6c-0.6-0.9-1.2-1.8-1.9-2.7l-5.6,3.3c6.2,8.4,13,16.3,20.5,23.6
						c5.4,5.3,11.2,10.3,17.9,14c4.9,2.7,12.6,5.7,17.6,1.7c3.5-2.7,5.5-7.8,7.4-11.7c1.4-3,2.7-6,3.9-9.1l-5.9,0.8
						c3.3,4.4,7,8.5,11.2,12.2c9.6,8.9,20.6,16.1,32.5,21.5c23.4,10.5,49.2,12.7,74.3,8.6c4.1-0.7,2.4-6.9-1.7-6.2
						c-19.6,3.2-39.8,2.3-58.8-3.9c-13.3-4.4-25.7-11.2-36.6-20c-4.2-3.4-8.2-7.2-11.8-11.2c-1-1.1-2-2.3-3-3.5
						c-0.1-0.2-0.3-0.4-0.4-0.5c-0.2-0.3,0.6,0.8,0.1,0.2c-0.1-0.1-0.2-0.2-0.2-0.3c-1-1.5-3-2-4.5-1c-0.7,0.4-1.2,1.1-1.4,1.8
						c-1.9,5.1-4.2,10-7,14.6c-0.6,1.1-1.4,2.1-2.2,3c-0.4,0.4-0.5,0.3-0.1,0.2c-0.1,0-0.9,0.1-0.2,0.1c-0.4,0-0.8,0.1-1.2,0.1
						c-2.5-0.1-5-0.8-7.3-2c-6.5-3.1-12.1-8.1-17.3-13c-5.1-5-10-10.2-14.5-15.8c-1.5-1.8-3-3.7-4.4-5.5c0.6,0.8-0.1-0.2-0.3-0.4
						c-0.2-0.2-0.3-0.4-0.5-0.6c-0.1-0.2-0.3-0.4-0.4-0.6c-0.9-1.5-2.9-2-4.4-1.2c-1.5,0.9-2.1,2.9-1.2,4.4c1.6,2.1,3,4.4,4.4,6.6
						c1.4,2.2,2.7,4.4,3.9,6.7c0.6,1.2,1.3,2.4,1.9,3.6c0.6,1.3,1.3,2.7,1.6,3.6c1,2.4,1.8,5,2.3,7.5c0,0.1,0.2,1.1,0.1,0.3
						c0,0.3,0.1,0.5,0.1,0.8c0,0.5,0.1,1.1,0.1,1.6c0,0.3-0.2,1.8,0,0.9c-0.1,0.5-0.2,1.1-0.4,1.6c-0.3,0.7,0.3-0.6,0,0.1
						c-0.1,0.2-0.2,0.4-0.3,0.6c-0.4,0.7,0.3-0.2-0.5,0.5C83.6,50,83,50.5,83.7,50c-0.2,0.1-0.4,0.3-0.6,0.4
						c-0.2,0.1-0.4,0.2-0.7,0.3c0.7-0.4-0.3,0.1-0.5,0.2c-2.4,0.8-5.5,0.5-8.5,0C55.1,47.7,38.7,37,25.4,24.3
						C18.1,17.6,11.6,10,6.2,1.7L6.1,1.5C3.9-2-1.7,1.2,0.5,4.8L0.5,4.8z"/>
				</g>
			</g>
			<g id="Group_74" transform="translate(586.993 465.83)">
				<g id="Group_73">
					<path id="Path_34" fill="#282828" d="M49.2,2.3c-1.4,7.8-4.6,14.6-8.4,21.3C32.2,39,18.7,50.9,2.4,57.5c-1.7,0.5-2.7,2.3-2.3,4
						c0.4,1.5,2.3,2.9,4,2.3c17.1-6.8,31.5-19,41-34.6c4.6-7.5,8.5-16.1,10.3-24.9c0-0.1,0-0.1,0-0.2C56.2,0,50-1.8,49.2,2.3
						L49.2,2.3z"/>
				</g>
			</g>
			<g id="Group_76" transform="translate(653.026 553.001)">
				<g id="Group_75">
					<path id="Path_35" fill="#282828" d="M5.2,10.7c6.9,0,6.9-10.7,0-10.7S-1.7,10.7,5.2,10.7z"/>
				</g>
			</g>
			<g id="Group_78" transform="translate(767.914 553.001)">
				<g id="Group_77">
					<path id="Path_36" fill="#282828" d="M5.2,10.7c6.9,0,6.9-10.7,0-10.7S-1.7,10.7,5.2,10.7z"/>
				</g>
			</g>
			<g id="Group_79" transform="translate(617.719 591.262)">
				<path id="Path_37" fill="#FECFCC" d="M38.8,13.3c0,7.3-8.7,13.3-19.4,13.3S0,20.6,0,13.3S8.7,0,19.4,0S38.8,5.9,38.8,13.3z"/>
			</g>
			<g id="Group_80" transform="translate(824.414 583.9)">
				<path id="Path_38" fill="#FECFCC" d="M38.8,13.3c0,7.3-8.7,13.3-19.4,13.3S0,20.6,0,13.3S8.7,0,19.4,0S38.8,5.9,38.8,13.3z"/>
			</g>
			<g id="Group_82" transform="translate(698.883 714.849)">
				<g id="Group_81" transform="translate(0)">
					<path id="Path_39" fill="#282828" d="M0.8,5.6c6,7.1,13.5,12.8,21.8,16.9c6.9,3.3,14.5,5.2,22.1,4.4c9.6-1,17.9-6,24.7-12.7
						c2.6-2.7,5-5.5,7.2-8.6c1-1.4,0.2-3.6-1.2-4.4c-1.5-0.9-3.5-0.3-4.4,1.2c-5.9,8-13.5,15.1-23.4,17.5
						c-6.9,1.7-14.2,0.3-20.6-2.5C18.6,13.7,11.2,8.1,5.4,1.1l0,0C2.7-2.1-1.8,2.5,0.8,5.6L0.8,5.6z"/>
				</g>
			</g>
			<g id="Group_84" transform="translate(569.488 706.99)">
				<g id="Group_83">
					<path id="Path_40" fill="#282828" d="M6.4,186.6c1.6-4.5,3.3-9,5.1-13.4c0.6-1.5,1.2-2.9,1.8-4.4c0.2-0.4,0.3-0.7,0.5-1.1
						l0.2-0.6c0.3-0.7-0.3,0.7,0,0c0.4-0.8,0.7-1.7,1.1-2.5c1.5-3.5,3.1-7,4.7-10.5c7.8-17.3,16.6-34.1,26.4-50.4
						c11-18.5,23-35.7,37.2-51.5C97,37,111.8,23.9,130.1,15c1-0.5,2.1-1,3.1-1.4c1.5-0.7,1.4-0.6,2.9-1.2c2.2-0.9,4.4-1.6,6.6-2.3
						c4.4-1.4,9-2.4,13.6-3.1c-0.7,0.1,0.8-0.1,1.1-0.1c0.6-0.1,1.1-0.1,1.7-0.2c1.2-0.1,2.4-0.2,3.6-0.2c2.4-0.1,4.7-0.1,7.1,0
						c1.1,0.1,2.3,0.1,3.4,0.2c0.6,0.1,1.2,0.1,1.7,0.2c0.3,0,0.6,0.1,0.9,0.1l0.6,0.1c-0.4-0.1-0.4-0.1,0,0
						c2.5,0.3,4.9,0.8,7.3,1.4c23.9,5.6,44.2,21.7,61,39.5c27.9,29.7,48.6,66.1,66.5,102.5c5.4,11,10.6,22.1,15.5,33.3
						c0.7,1.6,3,2,4.4,1.2c1.5-0.9,2-2.9,1.2-4.4c-18.4-41.8-39.5-83.1-67.7-119.2c-17-21.7-37.7-42.7-63.5-53.8
						c-18.7-8.1-39.2-9.8-58.8-4.1C123.2,9,106.3,20.8,91.8,34.3C76.1,48.9,62.8,66.1,50.9,84c-11.1,16.9-21.1,34.4-29.9,52.6
						c-6.6,13.3-12.6,26.9-18,40.8c-1,2.5-1.9,5-2.8,7.6C-1.2,188.8,5,190.5,6.4,186.6L6.4,186.6z"/>
				</g>
			</g>
			<g id="Group_86" transform="translate(764.063 783.864)">
				<path id="Path_41" fill="#97B6EC" d="M50.5,41.6c0,9.8-7.9,17.7-17.7,17.7c0,0,0,0,0,0H21.1c-9.8,0-17.7-7.9-17.7-17.7V21
					c0-9.8,7.9-17.7,17.7-17.7c0,0,0,0,0,0h11.8c9.8,0,17.7,7.9,17.7,17.7c0,0,0,0,0,0L50.5,41.6z"/>
				<g id="Group_85">
					<path id="Path_42" fill="#282828" d="M47.3,41.6C47.2,50.1,40.3,56,32,56c-6.1,0-13.1,1-18.5-2.2c-3.7-2.3-6.2-6.2-6.8-10.5
						c-0.2-2.1-0.2-4.2-0.1-6.4V21c0-8.6,7.1-14.5,15.3-14.5c6.1,0,13.1-1,18.5,2.2c3.7,2.3,6.2,6.2,6.8,10.5
						c0.2,2.1,0.2,4.2,0.1,6.4L47.3,41.6c0,4.2,6.4,4.2,6.4,0v-16c0-2.1,0.1-4.3-0.1-6.4C52.8,8.8,44.4,0.7,34,0.1
						c-2.6-0.2-5.3,0-7.9,0c-2.9-0.1-5.9,0-8.8,0.4C12.5,1.3,8.1,3.8,5,7.6C1.9,11.4,0.2,16.1,0.2,21v6.1c0,5.5-0.5,11.3,0.2,16.8
						c1.3,10.3,9.8,18.1,20.1,18.5c2.6,0.1,5.2,0,7.7,0c3,0.1,6,0,9-0.5c9.7-1.8,16.4-10.9,16.5-20.4C53.8,37.4,47.4,37.4,47.3,41.6
						z"/>
				</g>
			</g>
			<g id="Group_88" transform="translate(768.683 793.414)">
				<g id="Group_87">
					<path id="Path_43" fill="#282828" d="M0.8,5.6c4,4.6,9,8.3,14.7,10.5c4.4,1.8,9.3,2.1,14,1c6.5-1.7,11.4-6.6,15.2-11.8
						c1-1.4,0.2-3.6-1.2-4.4c-1.5-0.9-3.5-0.3-4.4,1.2c-3.1,4.2-7.1,7.8-12.3,9c-3.5,0.6-7.2,0.1-10.4-1.5c-4.3-2-8.1-4.9-11.1-8.5
						C2.7-2.1-1.8,2.5,0.8,5.6L0.8,5.6z"/>
				</g>
			</g>
			<g id="Group_97" transform="translate(710.269 629.415)">
				<g id="Group_90" transform="translate(0.083)">
					<g id="Group_89">
						<path id="Path_44" fill="#FCF2ED" d="M35.2,9.1c-6.4-4-13.4-6.8-20.8-8.2C9.5-0.1,3.3-1.3,0.2,3.7C-0.6,4.9,1.3,5.9,2,4.8
							c2.8-4.5,9.6-2.3,13.8-1.4c6.5,1.4,12.7,4,18.4,7.6C35.3,11.7,36.4,9.8,35.2,9.1L35.2,9.1z"/>
					</g>
				</g>
				<g id="Group_92" transform="translate(0 3.291)">
					<g id="Group_91">
						<path id="Path_45" fill="#FCF2ED" d="M0.1,1.3C2.3,7.5,8.6,9,14.4,10c6.5,1.2,15.4,2.3,21-2.1c1.1-0.9-0.4-2.4-1.5-1.5
							c-2.6,2.1-6.1,2.3-9.3,2.4C21.3,8.8,18.1,8.6,15,8C10.1,7.1,4,6,2.1,0.7C1.7-0.6-0.4,0,0.1,1.3L0.1,1.3z"/>
					</g>
				</g>
				<g id="Group_94" transform="translate(1.854 1.428)">
					<g id="Group_93">
						<path id="Path_46" fill="#FCF2ED" d="M18.6,6.6c1.9,0.4,3.8,0.8,5.7,1.5c1,0.3,1.8,1,2.8,1.4c0.9,0.3,1.9,0.4,2.9,0.4
							c0.1-0.7,0.2-1.4,0.3-2.1c-5.2,0.5-10.2,1.1-15.4,0.6C10.2,7.9,4.2,7.1,2,2.4L1.3,4C4,3.3,7.1,4.4,9.4,2.5
							c0.4-0.4,0.4-1.1,0-1.5C9.3,0.8,9.1,0.7,8.9,0.7C7.3,0.3,3.6-0.9,2.5,1.2C1.2,3.7,4,5.9,5.9,7.1C6.4,7.4,7,7.2,7.3,6.7
							c0-0.1,0.1-0.2,0.1-0.2C7.6,5.9,7.8,5.3,8,4.8c0.4-1.1,1.4-1,2.4-0.9c2,0.3,3.9,0.7,5.8,1.4c3.8,1.2,7.9,1,11.4,3.1l0.5-2
							C26.9,6.5,9.5,7.7,10,4.5c0.1-0.6-0.3-1.4-1-1.4C8.4,3.2,7.4,3.5,7.2,2.6C7,2,6.4,1.7,5.8,1.9C5.6,1.9,5.3,2.1,5.2,2.3
							C4,4.3,5.1,5.9,7.3,6.2c1.2,0.1,2.4,0.1,3.6,0c2.6-0.1,5.3,0.1,7.8,0.7V4.8c-3.5,0.9-7.2,0.4-10.8,0.3l1,1.4
							C9,5.6,9.1,4.8,9.4,3.9c0.5-2,2.3-1.6,3.8-1.2c2.6,0.5,5.1,1.5,7.3,3c1.1,0.8,2.2-1.1,1.1-1.9c-1.4-1-2.9-1.7-4.5-2.2
							c-1.7-0.7-3.6-1.2-5.5-1.4C8,0.1,7.3,2.9,6.8,5.9C6.7,6.5,7.1,7.1,7.6,7.2c0.1,0,0.1,0,0.2,0c3.8,0.1,7.6,0.5,11.4-0.4
							c0.6-0.2,0.9-0.8,0.7-1.3c-0.1-0.3-0.4-0.6-0.7-0.7C16.5,4.2,13.7,4,10.8,4c-0.7,0-4.5,0.4-3.8-0.6l-2-0.3
							c0.5,2,2.1,2.4,3.9,2.2L7.9,4c-0.5,3.6,3.1,4.3,5.9,4.5c4.8,0.5,9.6,0.5,14.3,0c0.6,0,1.1-0.5,1-1.1c0-0.4-0.2-0.7-0.5-0.9
							c-2.2-1.2-4.6-2-7-2.3c-2.8-0.4-5.4-1.3-8.2-2c-1.4-0.3-4.4-1.3-5.7-0.5C6.3,2.6,5.9,4.3,5.4,5.9L7,5.3C6.6,5,3.4,2.6,4.7,2.2
							c1.1-0.3,2.6,0.3,3.7,0.5C8.2,2.2,8.1,1.6,7.9,1C6.2,2.3,2.8,1.4,0.8,1.9C0.2,2.1-0.1,2.7,0,3.2c0,0.1,0.1,0.2,0.1,0.2
							c2.2,4.6,7.1,5.8,11.8,6.7c6.2,1.1,12.2,0.5,18.4-0.1c1.1-0.1,1.6-1.9,0.3-2.1c-1-0.1-2-0.2-3-0.5c-0.7-0.3-1.3-0.8-2-1.1
							c-2.1-0.8-4.2-1.3-6.4-1.7C17.9,4.3,17.3,6.4,18.6,6.6L18.6,6.6z"/>
					</g>
				</g>
				<g id="Group_96" transform="translate(3.165 2.529)">
					<g id="Group_95">
						<path id="Path_47" fill="#FCF2ED" d="M1.4,0C0.8,0.1-0.1,0.2,0,0.9c0,0.1,0.1,0.2,0.2,0.3c0.6,0.2,1.1-0.4,1.5-0.7
							C1.9,0.2,1.6-0.1,1.4,0C0.9,0.2,0.6,0.5,0.2,0.7C0.1,0.8,0.1,1,0.2,1.1c0,0,0.1,0.1,0.1,0.1c2.4,0.9,5.3,0.4,7.8,0.7
							c0-0.2,0-0.4-0.1-0.5C7.3,1.5,6.6,1.5,5.8,1.6c-0.1,0-0.2,0.1-0.2,0.3C5.7,3.1,8.1,3,9,3.1V2.6l-0.6,0l0.1,0.5
							C9,2.8,9.4,2.6,9.9,2.3L9.6,1.9c-0.5,0.3-0.9,0.6-1.3,1C8.1,3,8,3.2,8.2,3.3c1,0.3,2,0.4,3,0.3V3.1c-0.3,0.2-0.6,0.1-0.7-0.2
							c0.1-0.1,0.2-0.2,0.1-0.4c0-0.1-0.1-0.1-0.2-0.1C9.6,2.4,8.8,2.5,8,2.5c-0.1,0-0.3,0.1-0.3,0.3C7.7,3,7.8,3.1,8,3.1
							c0.9,0.1,1.9,0.1,2.8,0.2V2.8C10,3,9,3,8.6,3.9C8.6,4,8.6,4.2,8.7,4.2c0,0,0.1,0,0.1,0c0.4,0,0.8,0,1.1,0L9.8,3.8
							C9,4.5,8.1,5.2,7.2,5.7C6.9,5.9,6.9,6.2,7,6.4c0,0,0,0,0,0c0.3,0.7,1.8,1,2.4,0.7C9.5,7,9.6,6.9,9.6,6.8
							C9.4,6.2,8.2,6.1,7.7,6c0,0.2,0,0.4-0.1,0.5l0.7-0.1c0.1,0,0.3-0.1,0.3-0.3C8.6,6.1,8.5,6,8.4,6L7.7,5.8c0,0.2,0,0.4-0.1,0.5
							c2.1-0.1,4.3,0,6.4,0.3c0.3,0,0.3-0.5,0-0.5c-2.1-0.3-4.3-0.4-6.4-0.3c-0.1,0-0.3,0.1-0.3,0.3c0,0.1,0.1,0.2,0.2,0.2l0.7,0.2
							c0-0.2,0-0.4,0.1-0.5L7.7,6c-0.3,0-0.4,0.5-0.1,0.5c0.3,0,0.5,0.1,0.8,0.2C9.6,7,7.4,6.2,8,6.1C8.7,6,9.6,4.6,10.2,4.2
							c0.2-0.2,0-0.5-0.2-0.5c-1.4,0,0.6-0.4,1-0.5c0.2-0.1,0.3-0.5,0-0.5c-1-0.2-2-0.1-3-0.2v0.5c0.8,0,1.6-0.2,2.4-0.2l-0.1-0.5
							C10,2.6,9.7,2.8,9.5,3c-0.1,0.1-0.1,0.3,0,0.4c0,0,0.1,0.1,0.1,0.1c0.5,0.2,1.1,0.2,1.7,0.2c0.1,0,0.3-0.1,0.3-0.3
							c0-0.1-0.1-0.2-0.3-0.3c-0.5,0-1,0-1.5,0c-1.6,0-0.3-0.5,0.2-0.8c0.2-0.2-0.1-0.6-0.3-0.4C9.2,2.1,8.7,2.3,8.3,2.6
							C8.1,2.7,8.1,2.9,8.2,3c0,0.1,0.1,0.1,0.2,0.1l0.6,0c0.3,0,0.3-0.5,0-0.5C8.3,2.5,7.7,2.5,7,2.3C6,2.1,7.9,1.9,8.2,1.9
							c0.3-0.1,0.2-0.5-0.1-0.5C7,1.2,5.9,1.1,4.7,1.1C4.1,1.1,0,1.3,1.6,0.5L1.4,0c-0.7,0.7-1,0.6,0,0.5C1.7,0.5,1.7,0,1.4,0L1.4,0
							z"/>
					</g>
				</g>
			</g>
			<g id="Group_99" transform="translate(704.426 613.185)">
				<g id="Group_98" transform="translate(0 0)">
					<path id="Path_48" fill="#282828" d="M44.6,15.9c0.3,8.4-11.9,11.5-18.3,11.9c-4.7,0.4-9.4-0.4-13.6-2.3c-2.8-1.3-6-3.7-6.3-7
						c-0.3-3.2,2.2-5.8,4.6-7.5c4.1-2.7,8.8-4.2,13.7-4.4c4.7-0.4,9.4,0.4,13.6,2.3C41.1,10.2,44.3,12.5,44.6,15.9
						c0.3,4.1,6.8,4.1,6.4,0C50.1,5.3,38.8,1,29.6,0.1C19.7-0.8,7,2.5,1.7,11.6c-2.2,3.8-2.2,8.4-0.1,12.3c2.2,4.2,6.6,6.7,10.8,8.4
						c9.9,3.9,23.2,2.4,31.8-4c4-3,7.1-7.3,6.9-12.5C50.9,11.7,44.4,11.7,44.6,15.9z"/>
				</g>
			</g>
		</g>
	</g>
</g>
</svg>
