<?xml version="1.0" encoding="utf-8"?>
<!-- Generator: Adobe Illustrator 16.0.0, SVG Export Plug-In . SVG Version: 6.00 Build 0)  -->
<!DOCTYPE svg PUBLIC "-//W3C//DTD SVG 1.1//EN" "http://www.w3.org/Graphics/SVG/1.1/DTD/svg11.dtd">
<svg version="1.1" xmlns="http://www.w3.org/2000/svg" xmlns:xlink="http://www.w3.org/1999/xlink" x="0px" y="0px" width="2000px"
	 height="2000px" viewBox="0 0 2000 2000" enable-background="new 0 0 2000 2000" xml:space="preserve">
<g id="Layer_1" display="none">
	<g display="inline">
		<path fill="#97B6EC" d="M766.476,451.667c24.265,32.922,30.422,38.569,58.034,72.018c-24.816-9.118-76.025-33.523-76.025-33.523
			S476.55,583.588,398.417,543.71c-53.663-27.387-79.745-182.658-30.77-242.604c53.807-67.154,291.738-73.849,353.982-50.63
			C794.481,277.651,824.388,396.46,766.476,451.667"/>
	</g>
	<g display="inline">
		<g>
			<path fill="#FCF2ED" d="M448.613,416.047c16.122,0,16.122-25,0-25S432.491,416.047,448.613,416.047L448.613,416.047z"/>
		</g>
	</g>
	<g display="inline">
		<g>
			<path fill="#FCF2ED" d="M525.008,410.59c16.122,0,16.122-25,0-25S508.887,410.59,525.008,410.59L525.008,410.59z"/>
		</g>
	</g>
	<g display="inline">
		<g>
			<path fill="#FCF2ED" d="M592.307,403.313c16.122,0,16.122-25,0-25S576.186,403.313,592.307,403.313L592.307,403.313z"/>
		</g>
	</g>
	<g display="inline">
		<g>
			<path fill="#FCF2ED" d="M665.066,392.399c16.122,0,16.122-25,0-25S648.945,392.399,665.066,392.399L665.066,392.399z"/>
		</g>
	</g>
	<g display="inline">
		<g>
			<path fill="#282828" d="M894.365,884.695c4.346,82.146,17.165,165.313,48.422,241.839
				c22.628,55.399,55.426,107.341,101.205,146.488c38.101,32.582,84.029,55,133.135,65.069c47.397,9.719,96.492,8.195,143.715-1.744
				c46.3-9.745,91.023-27.908,131.359-52.59c38.264-23.413,72.841-53.123,100.061-88.872c24.27-31.876,41.718-69.263,46.242-109.31
				c0.041-0.37,0.081-0.741,0.12-1.112c0.433-4.073-3.739-7.5-7.5-7.5c-4.415,0-7.068,3.437-7.5,7.5
				c-0.118,1.113-0.246,2.226-0.383,3.337c-0.047,0.38-0.306,2.297-0.024,0.229c-0.075,0.556-0.156,1.11-0.238,1.666
				c-0.353,2.409-0.768,4.81-1.222,7.203c-0.878,4.633-1.962,9.225-3.196,13.775c-1.248,4.603-2.691,9.151-4.275,13.649
				c-0.768,2.181-1.582,4.345-2.424,6.497c-0.422,1.083-0.858,2.159-1.3,3.234c-0.119,0.292-0.886,2.116-0.143,0.359
				c-0.304,0.717-0.613,1.432-0.925,2.146c-8.05,18.478-18.713,35.757-30.942,51.748c-1.271,1.66,0.928-1.19-0.358,0.462
				c-0.385,0.494-0.773,0.986-1.162,1.479c-0.779,0.988-1.567,1.968-2.359,2.945c-1.726,2.131-3.487,4.232-5.271,6.315
				c-3.47,4.054-7.057,8.007-10.727,11.88c-7.503,7.92-15.423,15.441-23.643,22.612c-16.784,14.642-34.017,26.989-53.949,38.955
				c-19.875,11.932-41.52,22.431-61.709,30.275c-22.062,8.571-44.875,15.211-68.096,19.788c-12.415,2.447-22.034,3.838-33.877,5.003
				c-11.783,1.159-23.625,1.708-35.465,1.675c-24.521-0.068-45.831-2.474-69.18-7.897c-47.99-11.147-91.64-34.5-127.592-67.778
				c-44.24-40.95-74.823-94.353-95.438-150.979c-25.433-69.857-36.448-144.375-40.361-218.348
				C908.856,875.074,893.854,875.024,894.365,884.695L894.365,884.695z"/>
		</g>
	</g>
	<g display="inline">
		<g>
			<path fill="#282828" d="M881.134,925.141c-16.218,4.45-29.259,17.162-38.923,30.377c-11.521,15.755-16.838,34.744-13.437,54.029
				c6.314,35.797,41.087,61.518,76.958,58.272c9.552-0.864,9.637-15.872,0-15c-29.707,2.688-55.832-16.843-62.224-45.895
				c-3.369-15.311,2.261-30.1,10.819-42.654c7.173-10.523,18.209-21.212,30.793-24.666
				C894.438,937.049,890.478,922.577,881.134,925.141L881.134,925.141z"/>
		</g>
	</g>
	<g display="inline">
		<g>
			<path fill="#282828" d="M1615.45,961.221c28.4,12.441,41.759,43.723,31.876,72.985c-9.32,27.597-39.701,43.261-67.586,36.431
				c-9.396-2.301-13.38,12.164-3.988,14.465c35.789,8.766,71.224-10.58,85.054-44.272c14.418-35.126-3.272-77.442-37.785-92.56
				c-3.745-1.641-8.019-1.137-10.261,2.691C1610.875,954.176,1611.703,959.58,1615.45,961.221L1615.45,961.221z"/>
		</g>
	</g>
	<g display="inline">
		<g>
			<path fill="#282828" d="M1133.57,654.515c24.254-47.554,66.183-81.603,116.092-98.144c52.137-17.28,108.787-16,161.556-1.856
				c56.742,15.208,108.998,45.93,149.497,88.782c44.482,47.068,71.986,108.35,79.913,172.642
				c4.738,38.432,2.96,77.558-3.592,115.665c-1.626,9.458,12.828,13.507,14.465,3.987c12.692-73.82,7.807-150.184-23.476-218.909
				c-25.908-56.917-69.556-104.639-122.529-137.548c-49.675-30.86-107.773-48.638-166.254-50.299
				c-54.059-1.535-109.742,11.729-154.178,43.37c-27.165,19.343-49.294,45.03-64.445,74.74
				C1116.234,655.542,1129.175,663.134,1133.57,654.515L1133.57,654.515z"/>
		</g>
	</g>
	<g display="inline">
		<g>
			<path fill="#282828" d="M1114.88,656.25c-37.646-20.731-80.69-29.394-123.012-20.093c-37.368,8.212-70.941,30.669-94.819,60.275
				c-25.04,31.045-39.546,69.436-41.76,109.227c-2.462,44.249,12.039,88.025,37.279,124.088c1.129,1.613,2.295,3.2,3.465,4.782
				c2.426,3.28,6.447,4.925,10.261,2.691c3.242-1.899,5.127-6.967,2.691-10.261c-26.073-35.257-40.854-77.229-38.697-121.3
				c1.856-37.926,16.991-75.116,41.731-103.858c22.38-26,52.439-44.536,86.068-51.662c37.442-7.934,76.113,0.831,109.221,19.063
				C1115.787,673.87,1123.354,660.916,1114.88,656.25L1114.88,656.25z"/>
		</g>
	</g>
	<g display="inline">
		<g>
			<path fill="#282828" d="M860.858,970.148c-8.102,10.971-8.326,26.678-0.214,37.586c2.434,3.273,6.44,4.93,10.261,2.69
				c3.235-1.895,5.136-6.973,2.691-10.261c-5.288-7.111-5.017-15.362,0.214-22.445c2.434-3.296,0.553-8.361-2.691-10.261
				C867.307,965.224,863.281,966.867,860.858,970.148L860.858,970.148z"/>
		</g>
	</g>
	<g display="inline">
		<g>
			<path fill="#282828" d="M1045.186,765.371c11.154,17.851,25.409,34.22,40.114,49.18c30.157,30.68,66.771,56.097,108.273,68.493
				c15.532,4.639,35.615,9.857,50.952,1.804c10.597-5.564,13.428-18.042,11.959-29.028c-3.214-24.025-17.21-46.704-30.493-66.508
				c-1.437-2.143-2.892-4.277-4.411-6.363c-4.316,2.523-8.635,5.047-12.951,7.57c14.334,19.465,30.392,37.931,47.654,54.835
				c12.506,12.245,26.141,24.086,41.573,32.504c11.476,6.261,29.431,13.194,41.056,3.951c8.035-6.389,12.895-18.275,17.156-27.287
				c3.289-6.954,6.348-14.047,9.128-21.221c-4.569,0.597-9.139,1.194-13.708,1.792c7.443,10.378,16.613,19.67,25.957,28.313
				c22.296,20.627,48.039,37.602,75.742,50.03c54.447,24.428,114.5,29.642,173.077,19.957c9.526-1.575,5.472-16.028-3.988-14.464
				c-45.695,7.555-92.601,5.286-136.771-8.99c-30.866-9.976-60.744-26.581-85.226-46.524c-9.819-7.999-19.09-16.707-27.599-26.089
				c-2.405-2.653-4.741-5.371-6.982-8.164c-0.327-0.409-0.651-0.82-0.974-1.232c0,0,1.345,1.764,0.284,0.361
				c-0.192-0.254-0.384-0.51-0.57-0.769c-3.945-5.501-11.283-4.463-13.708,1.792c-4.305,11.107-9.545,22.98-16.265,34.022
				c-1.856,3.051-3.105,4.885-5.229,7.022c-0.931,0.938-1.246,0.812-0.277,0.471c-0.33,0.116-2.005,0.32-0.493,0.139
				c-0.938,0.112-1.886,0.138-2.83,0.154c-5.148,0.087-11.722-2.037-16.964-4.549c-15.165-7.27-28.186-18.753-40.216-30.305
				c-11.978-11.501-23.098-23.9-33.697-36.673c-3.521-4.242-6.97-8.544-10.35-12.899c1.422,1.832-0.319-0.419-0.651-0.854
				c-0.383-0.5-0.764-1.003-1.143-1.506c-0.348-0.46-0.694-0.922-1.037-1.386c-2.419-3.285-6.452-4.922-10.261-2.691
				c-3.261,1.91-5.103,6.95-2.69,10.261c3.619,4.971,6.975,10.146,10.236,15.356c3.206,5.121,6.253,10.34,9.132,15.651
				c1.504,2.776,2.941,5.589,4.326,8.427c1.431,2.934,2.915,6.246,3.762,8.322c2.312,5.671,4.235,11.532,5.351,17.562
				c0.044,0.236,0.379,2.448,0.136,0.631c0.085,0.637,0.145,1.278,0.202,1.918c0.112,1.227,0.141,2.458,0.132,3.689
				c-0.005,0.612-0.401,4.136-0.079,2.025c-0.19,1.25-0.526,2.47-0.937,3.663c-0.59,1.712,0.716-1.49-0.065,0.122
				c-0.224,0.463-0.491,0.903-0.759,1.342c-0.941,1.543,0.622-0.445-1.104,1.276c-0.272,0.272-1.667,1.369-0.116,0.198
				c-0.443,0.335-0.919,0.624-1.394,0.912c-0.495,0.302-1.019,0.555-1.54,0.809c1.68-0.816-0.75,0.234-1.116,0.351
				c-5.623,1.794-12.887,1.214-19.838,0.004c-42.707-7.436-80.991-32.408-111.933-61.831
				c-17.274-16.426-32.334-33.523-44.681-52.821c-0.069-0.108-0.139-0.217-0.207-0.326
				C1053.025,749.62,1040.043,757.143,1045.186,765.371L1045.186,765.371z"/>
		</g>
	</g>
	<g display="inline">
		<g>
			<path fill="#282828" d="M1027.289,773.315c-3.289,18.044-10.665,34.069-19.48,49.659c-20.106,35.555-51.662,63.492-89.575,78.826
				c-3.787,1.531-6.418,4.938-5.238,9.226c0.99,3.598,5.429,6.774,9.226,5.238c39.898-16.136,73.082-43.902,95.554-80.645
				c10.743-17.564,19.809-37.579,23.896-57.887c0.028-0.143,0.057-0.286,0.083-0.429
				C1043.478,767.848,1029.022,763.808,1027.289,773.315L1027.289,773.315z"/>
		</g>
	</g>
	<g display="inline">
		<g>
			<path fill="#282828" d="M1078.524,995.816c16.122,0,16.122-25,0-25S1062.402,995.816,1078.524,995.816L1078.524,995.816z"/>
		</g>
	</g>
	<g display="inline">
		<g>
			<path fill="#282828" d="M1345.973,995.816c16.122,0,16.122-25,0-25S1329.851,995.816,1345.973,995.816L1345.973,995.816z"/>
		</g>
	</g>
	<g display="inline">
		<path fill="#FECFCC" d="M1074.525,1090.744c0,17.044-20.213,30.863-45.145,30.863s-45.146-13.819-45.146-30.863
			c0-17.042,20.215-30.857,45.146-30.857S1074.525,1073.702,1074.525,1090.744z"/>
	</g>
	<g display="inline">
		<path fill="#FECFCC" d="M1555.704,1073.599c0,17.047-20.213,30.859-45.147,30.859s-45.147-13.813-45.147-30.859
			c0-17.043,20.213-30.855,45.147-30.855S1555.704,1056.556,1555.704,1073.599z"/>
	</g>
	<g display="inline">
		<g>
			<path fill="#282828" d="M1175.035,1360.712c13.551,16.249,31.832,30.1,50.793,39.259c15.967,7.712,33.732,12.111,51.517,10.279
				c22.325-2.3,41.716-13.938,57.407-29.554c6.145-6.114,11.558-12.938,16.676-19.92c2.423-3.304,0.563-8.356-2.69-10.261
				c-3.804-2.229-7.849-0.6-10.261,2.69c-13.658,18.628-31.459,35.237-54.437,40.817c-16.005,3.887-33.089,0.814-47.959-5.764
				c-19.403-8.584-36.79-21.853-50.433-38.147c-0.002-0.003-0.004-0.005-0.006-0.008
				C1179.44,1342.668,1168.888,1353.339,1175.035,1360.712L1175.035,1360.712z"/>
		</g>
	</g>
	<g display="inline">
		<g>
			<path fill="#282828" d="M886.883,1763.635c3.667-10.49,7.703-20.852,11.867-31.153c1.385-3.428,2.792-6.848,4.213-10.261
				c0.36-0.864,0.722-1.728,1.084-2.591c0.184-0.438,0.368-0.876,0.552-1.313c0.663-1.574-0.678,1.605-0.009,0.021
				c0.832-1.967,1.67-3.931,2.513-5.893c3.527-8.213,7.152-16.384,10.858-24.518c18.318-40.206,38.698-79.511,61.376-117.433
				c25.707-42.986,53.626-83.155,86.68-119.895c31.739-35.278,66.229-65.72,108.879-86.419c2.389-1.159,4.8-2.27,7.225-3.35
				c3.397-1.514,3.27-1.446,6.72-2.821c5.067-2.02,10.216-3.832,15.42-5.464c10.336-3.241,20.938-5.621,31.665-7.116
				c-1.68,0.234,1.937-0.23,2.524-0.298c1.295-0.148,2.592-0.276,3.889-0.397c2.82-0.263,5.648-0.445,8.478-0.577
				c5.495-0.256,11.001-0.231,16.496,0.012c2.673,0.119,5.342,0.312,8.007,0.547c1.343,0.119,2.685,0.261,4.024,0.409
				c0.673,0.074,1.346,0.156,2.018,0.238c0.449,0.056,0.898,0.113,1.347,0.172c-0.87-0.117-0.86-0.114,0.03,0.009
				c5.712,0.804,11.38,1.904,16.995,3.223c55.592,13.054,102.881,50.49,141.975,92.03
				c65.063,69.136,113.066,153.884,154.829,238.503c12.622,25.575,24.594,51.468,36.112,77.556c1.652,3.742,7.038,4.579,10.262,2.69
				c3.82-2.237,4.342-6.521,2.691-10.261c-42.914-97.192-92.007-193.445-157.695-277.442
				c-39.593-50.627-87.833-99.338-147.71-125.223c-43.497-18.803-91.166-22.855-136.807-9.483
				c-44.704,13.097-83.997,40.503-117.747,71.972c-36.576,34.104-67.582,74.063-95.2,115.622
				c-25.996,39.12-48.964,80.237-69.686,122.371c-15.249,31.005-29.353,62.637-41.803,94.873
				c-2.263,5.858-4.462,11.743-6.535,17.671C869.219,1768.803,883.713,1772.704,886.883,1763.635L886.883,1763.635z"/>
		</g>
	</g>
	<g display="inline">
		<path fill="#97B6EC" d="M1442.54,1605.053c0,22.723-18.415,41.149-41.145,41.149h-27.424c-22.729,0-41.147-18.427-41.147-41.149
			v-47.998c0-22.725,18.419-41.149,41.147-41.149h27.424c22.729,0,41.145,18.425,41.145,41.149V1605.053z"/>
		<g>
			<path fill="#282828" d="M1435.04,1605.053c-0.329,19.939-16.333,33.649-35.676,33.649c-14.099,0-30.498,2.443-43.118-5.04
				c-8.581-5.088-14.57-14.605-15.718-24.487c-0.564-4.858-0.204-9.953-0.204-14.827c0-12.432,0-24.862,0-37.293
				c0-19.947,16.582-33.649,35.679-33.649c14.099,0,30.498-2.443,43.118,5.039c8.581,5.089,14.568,14.606,15.715,24.488
				c0.564,4.858,0.204,9.953,0.204,14.827C1435.04,1580.191,1435.04,1592.622,1435.04,1605.053c0,9.673,15,9.673,15,0
				c0-12.431,0-24.861,0-37.293c0-4.926,0.203-9.912-0.204-14.827c-0.967-11.683-6.245-22.472-14.501-30.729
				c-8.34-8.343-19.57-12.745-31.179-13.707c-6.08-0.503-12.335-0.091-18.426-0.091c-6.907,0-13.709-0.196-20.561,0.828
				c-11.072,1.657-21.542,8.249-28.61,16.782c-7.206,8.697-11.235,19.755-11.235,31.066c0,4.743,0,9.486,0,14.229
				c0,12.902-1.131,26.366,0.36,39.212c2.801,24.121,22.896,41.964,46.901,43.156c5.979,0.297,12.031,0.022,18.016,0.022
				c7.04,0,13.953,0.206,20.917-1.071c22.49-4.124,38.154-25.359,38.521-47.578C1450.2,1595.375,1435.199,1595.391,1435.04,1605.053
				z"/>
		</g>
	</g>
	<g display="inline">
		<g>
			<path fill="#282828" d="M1337.533,1543.599c9.001,10.766,21.315,19.272,34.225,24.536c10.293,4.197,21.813,4.998,32.565,2.22
				c15.024-3.882,26.495-15.317,35.435-27.405c2.437-3.295,0.551-8.362-2.69-10.262c-3.814-2.234-7.836-0.589-10.261,2.691
				c-7.247,9.799-16.514,18.263-28.648,21.042c-8.076,1.85-16.852-0.144-24.229-3.566c-10.042-4.659-18.632-11.302-25.788-19.863
				C1341.929,1525.562,1331.376,1536.232,1337.533,1543.599L1337.533,1543.599z"/>
		</g>
	</g>
	<g display="inline">
		<g>
			<g>
				<path fill="#FCF2ED" d="M1281.884,1169.861c-14.638-9.607-31.35-15.656-48.462-19.108c-11.406-2.301-25.849-5.074-33.141,6.517
					c-1.723,2.737,2.604,5.244,4.316,2.523c6.525-10.37,22.381-5.435,32.026-3.229c15.138,3.462,29.725,9.074,42.736,17.615
					C1282.064,1175.954,1284.566,1171.623,1281.884,1169.861L1281.884,1169.861z"/>
			</g>
		</g>
		<g>
			<g>
				<path fill="#FCF2ED" d="M1199.85,1159.396c5.214,14.334,19.835,17.803,33.384,20.325c15.17,2.823,35.9,5.305,48.835-4.965
					c2.525-2.004-1.038-5.518-3.535-3.535c-6.102,4.844-14.205,5.356-21.711,5.596c-7.452,0.237-14.932-0.642-22.26-1.917
					c-11.361-1.978-25.45-4.622-29.891-16.832C1203.578,1155.063,1198.745,1156.359,1199.85,1159.396L1199.85,1159.396z"/>
			</g>
		</g>
		<g>
			<g>
				<path fill="#FCF2ED" d="M1247.41,1167.479c4.503,0.922,8.96,1.881,13.304,3.406c2.3,0.807,4.253,2.311,6.48,3.275
					c2.203,0.953,4.413,0.596,6.728,1.018c0.221-1.637,0.442-3.273,0.664-4.91c-12.108,1.227-23.764,2.579-35.934,1.289
					c-10.917-1.157-24.797-3.064-30.043-13.96c-0.498,1.224-0.996,2.448-1.494,3.673c6.203-1.448,13.455,0.928,18.8-3.432
					c1.45-1.183,0.625-3.793-1.103-4.178c-3.906-0.872-12.314-3.745-14.909,1.136c-3.128,5.882,3.442,10.873,7.725,13.827
					c1.39,0.96,3.206-0.057,3.673-1.494c0.438-1.348,0.851-2.701,1.328-4.036c0.947-2.646,3.332-2.395,5.658-2.113
					c4.646,0.562,9.092,1.78,13.544,3.183c8.812,2.775,18.476,2.323,26.527,7.266c0.421-1.554,0.841-3.106,1.262-4.659
					c-3.075,0.345-43.445,3.187-42.325-4.187c0.217-1.43-0.633-3.365-2.411-3.165c-1.318,0.148-3.748,0.752-4.247-1.368
					c-0.513-2.179-3.475-2.368-4.57-0.598c-2.874,4.647-0.294,8.305,4.805,8.969c2.779,0.362,5.556,0.212,8.342,0.019
					c6.077-0.422,12.274,0.536,18.234,1.606c0-1.606,0-3.214,0-4.82c-8.254,2.012-16.75,1.039-25.139,0.723
					c0.804,1.055,1.607,2.109,2.41,3.164c0.293-1.994,0.561-3.972,1.041-5.933c1.146-4.68,5.354-3.784,8.903-2.87
					c5.959,1.534,11.926,3.283,16.971,6.912c2.623,1.888,5.115-2.452,2.523-4.316c-3.265-2.35-6.773-3.885-10.564-5.18
					c-3.899-1.332-8.59-3.169-12.755-3.241c-8.266-0.142-9.931,6.418-10.939,13.3c-0.239,1.628,0.642,3.098,2.41,3.164
					c8.868,0.334,17.746,1.225,26.467-0.902c2.308-0.563,2.479-4.376,0-4.82c-6.399-1.15-13.042-2.215-19.563-1.786
					c-1.711,0.112-10.379,1.043-8.828-1.464c-1.523-0.199-3.047-0.398-4.57-0.598c1.085,4.609,4.788,5.521,9.069,5.04
					c-0.804-1.055-1.607-2.109-2.411-3.165c-1.258,8.284,7.287,9.989,13.745,10.551c11.188,0.973,22.21,1.223,33.402-0.034
					c2.375-0.267,3.534-3.264,1.262-4.659c-5.09-3.123-10.501-4.378-16.351-5.272c-6.568-1.005-12.667-3.124-19.097-4.682
					c-3.247-0.787-10.225-3.04-13.368-1.104c-3.475,2.141-4.4,6.091-5.588,9.75c1.225-0.498,2.449-0.996,3.673-1.494
					c-0.888-0.613-8.378-6.141-5.225-7.103c2.541-0.775,6.054,0.719,8.556,1.276c-0.367-1.393-0.735-2.785-1.103-4.178
					c-3.912,3.191-11.831,1.033-16.593,2.145c-1.676,0.392-2.165,2.281-1.494,3.673c5.154,10.708,16.506,13.616,27.422,15.494
					c14.491,2.493,28.369,1.122,42.871-0.347c2.596-0.263,3.647-4.365,0.664-4.91c-2.252-0.412-4.822-0.208-6.936-1.122
					c-1.633-0.707-3.021-1.876-4.691-2.542c-4.816-1.922-9.818-2.999-14.883-4.037
					C1245.593,1162.012,1244.253,1166.831,1247.41,1167.479L1247.41,1167.479z"/>
			</g>
		</g>
		<g>
			<g>
				<path fill="#FCF2ED" d="M1210.25,1154.625c-1.336,0.103-3.352,0.46-3.188,2.125c0.029,0.292,0.172,0.509,0.459,0.603
					c1.398,0.46,2.463-0.836,3.42-1.724c0.55-0.509-0.146-1.274-0.757-0.981c-0.981,0.472-1.803,0.964-2.626,1.661
					c-0.394,0.332-0.123,0.893,0.275,1.044c5.495,2.094,12.407,0.926,18.229,1.647c-0.056-0.409-0.11-0.818-0.166-1.228
					c-1.776,0.343-3.59,0.345-5.375,0.625c-0.251,0.039-0.485,0.352-0.459,0.603c0.299,2.863,5.777,2.669,7.875,2.875
					c0-0.417,0-0.833,0-1.25c-0.438-0.021-0.875-0.042-1.313-0.063c0.105,0.389,0.21,0.776,0.315,1.165
					c1.009-0.647,2.059-1.143,3.125-1.688c-0.253-0.327-0.505-0.655-0.757-0.981c-1.063,0.709-2.104,1.447-3.124,2.214
					c-0.332,0.245-0.476,0.87,0,1.08c2.288,1.011,4.607,0.724,7.065,0.71c0-0.417,0-0.833,0-1.25
					c-0.811,0.351-1.352,0.176-1.622-0.522c0.552-0.303,0.296-1.165-0.315-1.165c-1.906,0-3.782,0.291-5.688,0.375
					c-0.813,0.036-0.798,1.188,0,1.25c2.201,0.172,4.394,0.116,6.584,0.478c0-0.401,0-0.804,0-1.205
					c-1.916,0.576-4.099,0.571-5.062,2.537c-0.214,0.437,0.048,0.911,0.54,0.94c0.873,0.083,1.748,0.104,2.625,0.063
					c-0.147-0.355-0.295-0.711-0.441-1.066c-2.104,1.671-3.898,3.098-6.124,4.401c-0.66,0.388-0.608,1.037-0.371,1.613
					c0.681,1.65,4.187,2.337,5.646,1.615c0.266-0.131,0.335-0.442,0.288-0.706c-0.261-1.447-3.166-1.611-4.27-1.772
					c-0.056,0.409-0.11,0.818-0.166,1.228c0.521-0.042,1.042-0.083,1.563-0.125c0.677-0.055,0.883-1.042,0.166-1.228
					c-0.563-0.146-1.125-0.292-1.688-0.438c-0.056,0.409-0.11,0.818-0.166,1.228c5.021-0.264,9.952,0.188,14.938,0.75
					c0.801,0.09,0.792-1.161,0-1.25c-4.985-0.563-9.917-1.014-14.938-0.75c-0.688,0.036-0.872,1.045-0.166,1.228
					c0.563,0.146,1.125,0.292,1.688,0.438c0.056-0.409,0.11-0.818,0.166-1.228c-0.521,0.042-1.042,0.083-1.563,0.125
					c-0.654,0.053-0.907,1.119-0.166,1.228c0.641,0.094,1.266,0.229,1.897,0.374c2.841,0.647-2.218-1.307-0.919-1.477
					c1.576-0.206,3.805-3.368,5.066-4.371c0.442-0.351,0.063-1.072-0.441-1.066c-3.229,0.038,1.411-0.839,2.229-1.085
					c0.549-0.165,0.644-1.099,0-1.205c-2.306-0.381-4.589-0.341-6.916-0.522c0,0.417,0,0.833,0,1.25
					c1.877-0.083,3.812-0.375,5.688-0.375c-0.105-0.389-0.21-0.776-0.315-1.165c-1.136,0.623-0.937,0.483-1.876,1.349
					c-0.362,0.332-0.152,0.906,0.275,1.044c1.333,0.432,2.435,0.474,3.854,0.46c0.806-0.008,0.807-1.254,0-1.25
					c-1.165,0.006-2.327,0.047-3.492,0.063c-3.697,0.048-0.593-1.105,0.434-1.934c0.58-0.467-0.157-1.287-0.757-0.981
					c-1.066,0.546-2.116,1.04-3.125,1.688c-0.531,0.341-0.311,1.136,0.315,1.165c0.438,0.021,0.875,0.042,1.313,0.063
					c0.816,0.039,0.787-1.173,0-1.25c-1.514-0.148-3.015-0.321-4.51-0.613c-2.352-0.459,2.126-0.903,2.801-1.034
					c0.754-0.146,0.474-1.148-0.166-1.228c-2.683-0.333-5.363-0.496-8.063-0.625c-1.413-0.067-11.043,0.457-7.185-1.397
					c-0.253-0.327-0.505-0.655-0.757-0.981c-1.546,1.432-2.095,1.304,0.191,1.129
					C1211.049,1155.813,1211.055,1154.563,1210.25,1154.625L1210.25,1154.625z"/>
			</g>
		</g>
	</g>
	<g display="inline">
		<g>
			<path fill="#282828" d="M1289.826,1147.817c0.635,19.445-27.793,26.737-42.537,27.743c-10.701,0.729-21.974-0.718-31.721-5.365
				c-6.465-3.082-13.921-8.568-14.572-16.323c-0.624-7.427,5.04-13.577,10.699-17.563c9.226-6.498,20.715-9.421,31.837-10.18
				c10.701-0.73,21.974,0.718,31.722,5.365C1281.718,1134.576,1289.174,1140.063,1289.826,1147.817c0.804,9.566,15.811,9.645,15,0
				c-2.064-24.562-28.541-34.639-49.795-36.569c-23.008-2.091-52.636,5.542-65.074,26.771c-5.231,8.93-4.996,19.509-0.336,28.561
				c5.014,9.738,15.364,15.667,25.173,19.483c23.073,8.977,54.046,5.632,73.999-9.249c9.275-6.918,16.425-16.999,16.033-28.997
				C1304.511,1138.17,1289.51,1138.14,1289.826,1147.817z"/>
		</g>
	</g>
</g>
<g id="Layer_2">
	<g>
		<g>
			<path fill="#282828" d="M1348,781.812c-7.461,78.068-24.934,157.074-62.721,226.419c-27.61,50.67-66.595,94.5-116.158,123.514
				c-43.584,25.512-93.453,38.127-143.542,39.313c-50.336,1.193-99.053-8.455-146.485-26.851
				c-43.513-16.876-86.801-43.047-121.281-74.858c-16.761-15.463-31.469-32.164-43.56-49.84
				c-12.208-17.846-21.528-36.115-27.83-55.186c-3.314-10.03-5.771-20.34-7.333-30.786c-0.605-4.05-5.647-6.223-9.226-5.238
				c-4.292,1.18-5.843,5.186-5.238,9.226c6.419,42.924,28.181,82.029,55.982,114.786c30.897,36.404,70.306,65.622,112.583,87.507
				c45.338,23.469,94.809,38.642,145.563,44.198c50.566,5.535,102.698,0.486,150.566-17.085
				c51.98-19.081,97.33-52.664,131.999-95.718c44.411-55.15,70.939-122.503,86.413-191.07c7.307-32.375,12.111-65.305,15.268-98.331
				C1363.92,772.182,1348.912,772.271,1348,781.812L1348,781.812z"/>
		</g>
	</g>
	<g>
		<g>
			<path fill="#282828" d="M634.5,782.208c-16.218,4.45-29.259,17.162-38.923,30.377c-11.521,15.755-16.838,34.744-13.437,54.029
				c6.314,35.797,41.087,61.518,76.959,58.272c9.552-0.864,9.637-15.872,0-15c-29.707,2.688-55.832-16.843-62.225-45.895
				c-3.369-15.31,2.261-30.099,10.82-42.654c7.173-10.523,18.209-21.212,30.793-24.666
				C647.805,794.116,643.844,779.645,634.5,782.208L634.5,782.208z"/>
		</g>
	</g>
	<g>
		<g>
			<path fill="#282828" d="M1359.01,813.589c28.291,10.171,43.064,41.026,35.505,69.657c-7.38,27.955-36.122,46.488-64.596,41.523
				c-9.458-1.649-13.505,12.805-3.988,14.464c36.555,6.374,71.66-15.17,82.659-50.645c11.467-36.979-9.729-76.571-45.592-89.464
				C1353.872,795.844,1349.979,810.342,1359.01,813.589L1359.01,813.589z"/>
		</g>
	</g>
	<g>
		<g>
			<path fill="#282828" d="M886.937,502.769c24.653-47.79,67.267-81.387,118-96.924c52.675-16.132,109.583-13.071,162.152,3.254
				c56.342,17.496,107.42,51.324,145.325,97.063c42.59,51.393,64.766,116.975,67.419,183.438c1.136,28.47-1.127,57.034-6.005,85.085
				c-1.645,9.458,12.81,13.504,14.465,3.987c12.865-73.995,7.779-150.723-24.495-219.271
				c-26.61-56.519-71.213-103.525-125.004-134.968c-50.18-29.333-108.729-45.345-166.927-44.097
				c-54.616,1.172-108.983,18.569-150.705,54.521c-19.443,16.755-35.425,37.558-47.178,60.34
				C869.558,503.779,882.501,511.368,886.937,502.769L886.937,502.769z"/>
		</g>
	</g>
	<g>
		<g>
			<path fill="#282828" d="M868.246,507.317c-37.646-20.731-80.69-29.394-123.012-20.093c-37.368,8.212-70.941,30.669-94.819,60.275
				c-25.04,31.045-39.547,69.436-41.761,109.227c-2.462,44.249,12.039,88.025,37.28,124.088c1.129,1.613,2.295,3.2,3.465,4.782
				c2.426,3.28,6.447,4.925,10.261,2.691c3.242-1.899,5.127-6.967,2.691-10.261c-26.073-35.257-40.854-77.229-38.697-121.3
				c1.856-37.926,16.992-75.116,41.732-103.858c22.38-26,52.439-44.536,86.068-51.662c37.442-7.934,76.113,0.831,109.221,19.063
				C869.153,524.938,876.72,511.983,868.246,507.317L868.246,507.317z"/>
		</g>
	</g>
	<g>
		<g>
			<path fill="#282828" d="M612.719,834.785c-8.102,10.971-8.326,26.678-0.214,37.586c2.434,3.274,6.44,4.93,10.261,2.691
				c3.235-1.895,5.136-6.973,2.691-10.261c-5.288-7.111-5.017-15.362,0.214-22.445c2.434-3.296,0.553-8.361-2.691-10.261
				C619.167,829.86,615.142,831.503,612.719,834.785L612.719,834.785z"/>
		</g>
	</g>
	<g>
		<g>
			<path fill="#282828" d="M798.551,616.438c11.155,17.851,25.41,34.22,40.115,49.18c30.157,30.68,66.771,56.097,108.273,68.493
				c15.533,4.639,35.616,9.857,50.952,1.804c10.597-5.564,13.429-18.042,11.959-29.028c-3.214-24.025-17.21-46.704-30.493-66.508
				c-1.437-2.143-2.892-4.277-4.411-6.363c-4.317,2.523-8.635,5.047-12.952,7.57c14.334,19.465,30.392,37.931,47.656,54.835
				c12.505,12.245,26.141,24.086,41.572,32.504c11.476,6.261,29.431,13.194,41.056,3.951c8.035-6.389,12.895-18.275,17.156-27.287
				c3.288-6.954,6.348-14.047,9.128-21.221c-4.569,0.597-9.139,1.194-13.709,1.792c7.444,10.378,16.614,19.67,25.958,28.313
				c22.296,20.627,48.039,37.602,75.742,50.03c54.447,24.428,114.499,29.642,173.077,19.957c9.526-1.575,5.472-16.028-3.988-14.464
				c-45.695,7.555-92.6,5.286-136.771-8.99c-30.866-9.976-60.744-26.581-85.226-46.524c-9.819-7.999-19.09-16.707-27.599-26.089
				c-2.405-2.653-4.741-5.371-6.982-8.164c-0.327-0.409-0.651-0.82-0.974-1.232c-0.001,0,1.345,1.764,0.284,0.361
				c-0.192-0.254-0.384-0.51-0.569-0.769c-3.946-5.501-11.285-4.463-13.709,1.792c-4.305,11.107-9.545,22.98-16.265,34.022
				c-1.856,3.051-3.105,4.885-5.228,7.022c-0.932,0.938-1.247,0.812-0.278,0.471c-0.33,0.116-2.005,0.32-0.493,0.139
				c-0.938,0.112-1.886,0.138-2.83,0.154c-5.148,0.087-11.722-2.037-16.964-4.549c-15.165-7.27-28.187-18.753-40.216-30.305
				c-11.978-11.501-23.098-23.9-33.697-36.673c-3.521-4.242-6.97-8.544-10.35-12.899c1.422,1.832-0.32-0.419-0.652-0.854
				c-0.382-0.5-0.763-1.003-1.143-1.506c-0.347-0.46-0.694-0.922-1.036-1.386c-2.419-3.285-6.452-4.922-10.261-2.691
				c-3.261,1.91-5.103,6.95-2.691,10.261c3.62,4.971,6.976,10.146,10.237,15.356c3.206,5.121,6.253,10.34,9.131,15.651
				c1.505,2.776,2.942,5.589,4.327,8.427c1.431,2.934,2.915,6.246,3.762,8.322c2.312,5.671,4.235,11.532,5.351,17.562
				c0.043,0.236,0.378,2.448,0.135,0.631c0.085,0.637,0.144,1.278,0.203,1.918c0.112,1.227,0.141,2.458,0.131,3.689
				c-0.005,0.612-0.401,4.136-0.079,2.025c-0.191,1.25-0.526,2.47-0.937,3.663c-0.589,1.712,0.716-1.49-0.064,0.122
				c-0.224,0.463-0.492,0.903-0.759,1.342c-0.941,1.543,0.622-0.445-1.104,1.276c-0.272,0.272-1.667,1.369-0.116,0.198
				c-0.443,0.335-0.919,0.624-1.393,0.912c-0.496,0.302-1.02,0.555-1.541,0.809c1.68-0.816-0.75,0.234-1.116,0.351
				c-5.624,1.794-12.887,1.214-19.838,0.004c-42.707-7.436-80.992-32.408-111.933-61.831c-17.274-16.426-32.334-33.523-44.68-52.821
				c-0.07-0.108-0.139-0.217-0.207-0.326C806.391,600.687,793.409,608.21,798.551,616.438L798.551,616.438z"/>
		</g>
	</g>
	<g>
		<g>
			<path fill="#282828" d="M780.656,624.382c-3.29,18.044-10.666,34.069-19.481,49.659c-20.106,35.555-51.662,63.492-89.574,78.826
				c-3.787,1.531-6.418,4.938-5.238,9.226c0.99,3.598,5.429,6.774,9.226,5.238c39.898-16.136,73.082-43.902,95.555-80.645
				c10.743-17.564,19.808-37.579,23.895-57.887c0.028-0.143,0.057-0.286,0.083-0.429
				C796.844,618.915,782.389,614.875,780.656,624.382L780.656,624.382z"/>
		</g>
	</g>
	<g>
		<g>
			<g>
				<path fill="#282828" d="M1182.212,846.884c16.122,0,16.122-25,0-25S1166.09,846.884,1182.212,846.884L1182.212,846.884z"/>
			</g>
		</g>
		<g>
			<g>
				<path fill="#282828" d="M914.764,846.884c16.122,0,16.122-25,0-25S898.642,846.884,914.764,846.884L914.764,846.884z"/>
			</g>
		</g>
	</g>
	<g>
		<g>
			<path fill="#282828" d="M1093.015,1017.659c-0.648,0.741-1.356,1.432-2.063,2.115c-0.817,0.79-1.665,1.547-2.523,2.292
				c-0.469,0.406-0.947,0.802-1.426,1.195c-0.26,0.212-0.52,0.422-0.782,0.63c-1.413,1.129,1.328-1.001-0.181,0.135
				c-7.367,5.547-14.376,8.955-22.738,11.206c-30.379,8.178-59.242-11.764-79.69-33.003c-6.719-6.979-17.313,3.641-10.606,10.607
				c24.096,25.028,56.633,45.451,92.604,37.277c13.817-3.141,28.556-11.057,38.014-21.848
				C1109.969,1021.024,1099.402,1010.371,1093.015,1017.659L1093.015,1017.659z"/>
		</g>
	</g>
	<g>
		<path fill="#FECFCC" d="M1208.283,937.298c0.192,17.043,20.561,30.633,45.49,30.35c24.931-0.282,44.987-14.33,44.795-31.373
			c-0.193-17.041-20.563-30.626-45.493-30.344C1228.145,906.214,1208.09,920.257,1208.283,937.298z"/>
	</g>
	<g>
		<path fill="#FECFCC" d="M726.941,925.603c0.193,17.045,20.561,30.628,45.494,30.346c24.933-0.283,44.988-14.323,44.795-31.369
			c-0.193-17.042-20.561-30.625-45.494-30.342C746.803,894.521,726.748,908.561,726.941,925.603z"/>
	</g>
	<g>
		<g>
			<path fill="#282828" d="M928.402,1211.778c13.551,16.249,31.831,30.1,50.793,39.259c15.966,7.712,33.731,12.111,51.516,10.279
				c22.325-2.3,41.716-13.938,57.407-29.553c6.146-6.115,11.558-12.938,16.677-19.92c2.422-3.304,0.561-8.356-2.691-10.262
				c-3.804-2.228-7.85-0.599-10.262,2.691c-13.657,18.628-31.458,35.237-54.436,40.816c-16.006,3.887-33.089,0.814-47.959-5.764
				c-19.403-8.584-36.79-21.853-50.433-38.147c-0.002-0.003-0.004-0.005-0.006-0.008
				C932.806,1193.734,922.254,1204.405,928.402,1211.778L928.402,1211.778z"/>
		</g>
	</g>
	<g>
		<g>
			<path fill="#282828" d="M640.25,1614.701c3.667-10.49,7.703-20.852,11.867-31.153c1.385-3.428,2.792-6.848,4.213-10.261
				c0.36-0.864,0.722-1.728,1.084-2.591c0.184-0.438,0.368-0.876,0.552-1.313c0.663-1.574-0.678,1.605-0.009,0.021
				c0.832-1.967,1.67-3.93,2.513-5.893c3.527-8.213,7.152-16.384,10.858-24.518c18.318-40.206,38.698-79.511,61.376-117.433
				c25.707-42.985,53.626-83.155,86.68-119.894c31.74-35.278,66.23-65.72,108.88-86.42c2.388-1.158,4.799-2.27,7.224-3.35
				c3.398-1.513,3.27-1.446,6.72-2.82c5.067-2.02,10.216-3.832,15.42-5.464c10.336-3.241,20.938-5.621,31.665-7.116
				c-1.68,0.233,1.937-0.231,2.524-0.299c1.294-0.148,2.591-0.275,3.889-0.396c2.821-0.263,5.648-0.445,8.478-0.577
				c5.495-0.256,11.001-0.231,16.496,0.012c2.673,0.119,5.342,0.312,8.007,0.547c1.343,0.119,2.685,0.261,4.024,0.409
				c0.673,0.074,1.346,0.156,2.018,0.238c0.449,0.056,0.898,0.113,1.347,0.172c-0.87-0.117-0.86-0.114,0.03,0.009
				c5.712,0.804,11.38,1.903,16.995,3.222c55.592,13.055,102.881,50.491,141.974,92.031
				c65.064,69.136,113.066,153.884,154.83,238.504c12.622,25.574,24.594,51.467,36.113,77.555c1.651,3.742,7.037,4.579,10.261,2.691
				c3.82-2.238,4.343-6.521,2.69-10.262c-42.913-97.193-92.006-193.445-157.694-277.442
				c-39.593-50.628-87.833-99.338-147.71-125.223c-43.496-18.803-91.166-22.855-136.807-9.484
				c-44.705,13.098-83.997,40.503-117.747,71.973c-36.576,34.103-67.583,74.062-95.2,115.621
				c-25.996,39.12-48.964,80.237-69.686,122.371c-15.249,31.005-29.353,62.637-41.803,94.873
				c-2.263,5.858-4.462,11.743-6.535,17.671C622.585,1619.869,637.079,1623.771,640.25,1614.701L640.25,1614.701z"/>
		</g>
	</g>
	<g>
		<path fill="#97B6EC" d="M1195.906,1456.119c0,22.723-18.415,41.15-41.145,41.15h-27.424c-22.729,0-41.147-18.428-41.147-41.15
			v-47.998c0-22.725,18.419-41.148,41.147-41.148h27.424c22.729,0,41.145,18.424,41.145,41.148V1456.119z"/>
		<g>
			<path fill="#282828" d="M1188.406,1456.119c-0.329,19.939-16.333,33.65-35.676,33.65c-14.099,0-30.498,2.443-43.118-5.04
				c-8.581-5.089-14.57-14.606-15.718-24.488c-0.564-4.858-0.204-9.953-0.204-14.827c0-12.432,0-24.862,0-37.293
				c0-19.947,16.583-33.648,35.679-33.648c14.098,0,30.498-2.443,43.117,5.039c8.582,5.088,14.569,14.605,15.716,24.487
				c0.564,4.858,0.204,9.953,0.204,14.827C1188.406,1431.258,1188.406,1443.688,1188.406,1456.119c0,9.673,15,9.673,15,0
				c0-12.431,0-24.861,0-37.293c0-4.926,0.203-9.912-0.204-14.827c-0.967-11.683-6.245-22.472-14.501-30.729
				c-8.34-8.342-19.57-12.744-31.179-13.706c-6.08-0.503-12.335-0.091-18.426-0.091c-6.907,0-13.709-0.197-20.561,0.828
				c-11.072,1.657-21.542,8.249-28.61,16.781c-7.206,8.697-11.235,19.755-11.235,31.066c0,4.743,0,9.486,0,14.229
				c0,12.902-1.131,26.366,0.36,39.212c2.801,24.121,22.896,41.965,46.901,43.156c5.979,0.297,12.032,0.023,18.016,0.023
				c7.04,0,13.953,0.206,20.917-1.071c22.49-4.124,38.154-25.36,38.521-47.579
				C1203.566,1446.441,1188.566,1446.457,1188.406,1456.119z"/>
		</g>
	</g>
	<g>
		<g>
			<path fill="#282828" d="M1090.899,1394.665c9.001,10.766,21.315,19.272,34.225,24.536c10.293,4.197,21.813,4.998,32.565,2.221
				c15.024-3.882,26.495-15.317,35.436-27.406c2.436-3.295,0.551-8.362-2.691-10.262c-3.814-2.234-7.836-0.589-10.262,2.691
				c-7.246,9.799-16.514,18.264-28.647,21.042c-8.076,1.85-16.852-0.143-24.229-3.566c-10.042-4.659-18.632-11.302-25.788-19.863
				C1095.295,1376.628,1084.742,1387.299,1090.899,1394.665L1090.899,1394.665z"/>
		</g>
	</g>
	<path fill="none" stroke="#282828" stroke-width="3" stroke-miterlimit="10" d="M1357.868,779.957"/>
	<g>
		<g>
			<path fill="#282828" d="M970.301,1011.957c4.716-4.359,9.132-8.986,14.79-12.134c8.452-4.703,0.89-17.659-7.57-12.952
				c-6.759,3.761-12.194,9.274-17.826,14.479C952.577,1007.928,963.21,1018.51,970.301,1011.957L970.301,1011.957z"/>
		</g>
	</g>
</g>
</svg>
