<svg id="Layer_1" data-name="Layer 1" xmlns="http://www.w3.org/2000/svg" viewBox="0 0 1912.69 653.8"><title>contoh_1_dua_besaran</title><rect x="1432.78" y="339.91" width="479.91" height="312.76" style="fill:#cbdbf6"/><rect x="409.99" width="312.76" height="312.76" style="fill:#ffcfcc"/><rect x="750.92" width="312.76" height="312.76" style="fill:#ffcfcc"/><rect x="1091.85" width="312.76" height="312.76" style="fill:#ffcfcc"/><rect x="409.99" y="341.04" width="312.76" height="312.76" style="fill:#cbdbf6"/><rect x="750.92" y="341.04" width="312.76" height="312.76" style="fill:#cbdbf6"/><rect x="1091.85" y="341.04" width="312.76" height="312.76" style="fill:#cbdbf6"/><path d="M715.32,288.47c10,5.76,26,17,19.11,30.76-2.8,5.59-9.72,8.51-14.87,4.06-1-.84-2.25-2.18-2.38-3.56-.63-6.35,4.35-4.74,6.59-3,2,1.57,3,4.27,3.6,6.63,1.35,5.25.9,10.92.6,16.27a182.16,182.16,0,0,1-2.48,21.46,186.6,186.6,0,0,1-12,40.25h4.31Q713,393.86,708.74,386c-1.34-2.48-5.4-.8-4.57,1.92,2.09,6.84,5.68,14.81,11.35,19.49,1.85,1.53,3.64,2,5.93,1,4-1.71,7.84-5.58,11.35-8.13,2.57-1.88.08-6.22-2.53-4.32l-6.57,4.77c-2.78,2-4.15,4-6.73.88a42.86,42.86,0,0,1-8-15l-4.57,1.93q4.26,7.84,9.08,15.34c.9,1.41,3.53,1.84,4.31,0a191.83,191.83,0,0,0,13.7-49.11,147.11,147.11,0,0,0,1.7-25.06c-.2-5.12-1.1-10.68-4.35-14.81-2.94-3.73-8.75-6.43-13.2-3.63-4.67,2.93-4.4,9.47-1.48,13.55,7.14,10,21.15,5.48,25.29-4.67,6.62-16.23-9.39-29-21.63-36-2.79-1.61-5.32,2.71-2.52,4.32Z" transform="translate(-42.16 -26.31)" style="fill:#262626"/><path d="M1057.06,288.47c10,5.76,26,17,19.12,30.76-2.8,5.59-9.73,8.51-14.88,4.06-1-.84-2.24-2.18-2.38-3.56-.62-6.35,4.36-4.74,6.59-3,2,1.57,3,4.27,3.6,6.63,1.36,5.25.9,10.92.6,16.27a180.07,180.07,0,0,1-2.48,21.46,186,186,0,0,1-12,40.25h4.32q-4.83-7.51-9.07-15.34c-1.35-2.48-5.41-.8-4.57,1.92,2.09,6.84,5.68,14.81,11.34,19.49,1.86,1.53,3.64,2,5.94,1,4-1.71,7.83-5.58,11.34-8.13,2.58-1.88.08-6.22-2.52-4.32l-6.57,4.77c-2.79,2-4.16,4-6.74.88a43,43,0,0,1-8-15l-4.57,1.93q4.24,7.84,9.07,15.34c.9,1.41,3.54,1.84,4.32,0a191.41,191.41,0,0,0,13.69-49.11,146.1,146.1,0,0,0,1.7-25.06c-.19-5.12-1.09-10.68-4.35-14.81-2.94-3.73-8.74-6.43-13.2-3.63-4.66,2.93-4.4,9.47-1.48,13.55,7.14,10,21.15,5.48,25.29-4.67,6.62-16.23-9.39-29-21.63-36-2.79-1.61-5.31,2.71-2.52,4.32Z" transform="translate(-42.16 -26.31)" style="fill:#262626"/><path d="M1398.8,288.47c10,5.76,26,17,19.12,30.76-2.8,5.59-9.72,8.51-14.88,4.06-1-.84-2.24-2.18-2.37-3.56-.63-6.35,4.35-4.74,6.59-3,2,1.57,3,4.27,3.6,6.63,1.35,5.25.9,10.92.6,16.27a180.09,180.09,0,0,1-2.49,21.46,186,186,0,0,1-12,40.25h4.31q-4.82-7.51-9.07-15.34c-1.34-2.48-5.4-.8-4.57,1.92,2.09,6.84,5.68,14.81,11.34,19.49,1.86,1.53,3.64,2,5.94,1,4-1.71,7.83-5.58,11.34-8.13,2.58-1.88.09-6.22-2.52-4.32l-6.57,4.77c-2.78,2-4.15,4-6.73.88a42.86,42.86,0,0,1-8-15l-4.57,1.93q4.26,7.84,9.08,15.34c.9,1.41,3.53,1.84,4.31,0A191.41,191.41,0,0,0,1415,354.78a145.1,145.1,0,0,0,1.7-25.06c-.19-5.12-1.09-10.68-4.34-14.81-2.95-3.73-8.75-6.43-13.2-3.63-4.67,2.93-4.41,9.47-1.49,13.55,7.15,10,21.16,5.48,25.3-4.67,6.61-16.23-9.4-29-21.63-36-2.8-1.61-5.32,2.71-2.53,4.32Z" transform="translate(-42.16 -26.31)" style="fill:#262626"/><path d="M853.13,163.19l188,.39c10.73,0,21-9.45,20.5-20.5s-9-20.48-20.5-20.5l-188-.39c-10.72,0-21,9.44-20.5,20.5s9,20.48,20.5,20.5Z" transform="translate(-42.16 -26.31)" style="fill:#ff9f98"/><path d="M850.77,268q33.78-.3,67.56-.09c10.72.07,21-9.48,20.5-20.5-.5-11.17-9-20.43-20.5-20.5q-33.78-.21-67.56.09c-10.71.1-21,9.36-20.5,20.5s9,20.6,20.5,20.5Z" transform="translate(-42.16 -26.31)" style="fill:#ff9f98"/><path d="M849,230.93h193.74c10.73,0,21-9.43,20.5-20.5s-9-20.51-20.5-20.5H849c-10.73,0-21,9.43-20.5,20.5s9,20.51,20.5,20.5Z" transform="translate(-42.16 -26.31)" style="fill:#ff9f98"/><text transform="translate(801.96 91.37)" style="font-size:28.276607513427734px;fill:#262626;font-family:Poppins-Medium, Poppins">Setiap<tspan x="0" y="33.93">bilangannya</tspan><tspan x="0" y="67.86">dibagi dengan</tspan><tspan x="0" y="101.8">bilangan yang</tspan><tspan x="0" y="135.73">sama yaitu 5</tspan></text><path d="M1198.11,163.19l188,.39c10.72,0,21-9.45,20.5-20.5s-9-20.48-20.5-20.5l-188-.39c-10.73,0-21,9.44-20.5,20.5s9,20.48,20.5,20.5Z" transform="translate(-42.16 -26.31)" style="fill:#ff9f98"/><path d="M1195.75,268q33.76-.3,67.55-.09c10.73.07,21-9.48,20.5-20.5-.5-11.17-9-20.43-20.5-20.5q-33.78-.21-67.55.09c-10.72.1-21,9.36-20.5,20.5s9,20.6,20.5,20.5Z" transform="translate(-42.16 -26.31)" style="fill:#ff9f98"/><path d="M1193.92,230.93h193.75c10.72,0,21-9.43,20.5-20.5s-9-20.51-20.5-20.5H1193.92c-10.72,0-21,9.43-20.5,20.5s9,20.51,20.5,20.5Z" transform="translate(-42.16 -26.31)" style="fill:#ff9f98"/><text transform="translate(1146.93 91.37)" style="font-size:28.276607513427734px;fill:#262626;font-family:Poppins-Medium, Poppins">Setiap<tspan x="0" y="33.93">bilangannya</tspan><tspan x="0" y="67.86">dibagi dengan</tspan><tspan x="0" y="101.8">bilangan yang</tspan><tspan x="0" y="135.73">sama yaitu 5</tspan></text><text transform="translate(532.05 484.23)" style="font-size:47.127681732177734px;font-family:Poppins-Medium, Poppins">400<tspan x="7.71" y="64.41">150</tspan></text><line x1="516.61" y1="497.58" x2="640.71" y2="497.58" style="fill:none;stroke:#262626;stroke-linecap:round;stroke-miterlimit:10;stroke-width:6px"/><text transform="translate(465.56 514.08)" style="font-size:47.127681732177734px;font-family:Poppins-Medium, Poppins">=</text><text transform="translate(877.19 484.23)" style="font-size:47.127681732177734px;font-family:Poppins-Medium, Poppins">200<tspan x="16.07" y="64.41">75</tspan></text><line x1="860.15" y1="497.58" x2="984.25" y2="497.58" style="fill:none;stroke:#262626;stroke-linecap:round;stroke-miterlimit:10;stroke-width:6px"/><text transform="translate(809.1 514.08)" style="font-size:47.127681732177734px;font-family:Poppins-Medium, Poppins">=</text><text transform="translate(1236.55 482.66)" style="font-size:47.127681732177734px;font-family:Poppins-Medium, Poppins">40<tspan x="7.71" y="64.41">15</tspan></text><line x1="1223.45" y1="496.01" x2="1310.76" y2="496.01" style="fill:none;stroke:#262626;stroke-linecap:round;stroke-miterlimit:10;stroke-width:6px"/><text transform="translate(1166.38 512.51)" style="font-size:47.127681732177734px;font-family:Poppins-Medium, Poppins">=</text><text transform="translate(1568.65 482.66)" style="font-size:47.127681732177734px;font-family:Poppins-Medium, Poppins">8<tspan x="0.87" y="64.41">3</tspan></text><line x1="1540.78" y1="496.01" x2="1628.09" y2="496.01" style="fill:none;stroke:#262626;stroke-linecap:round;stroke-miterlimit:10;stroke-width:6px"/><text transform="translate(1483.71 512.51)" style="font-size:47.127681732177734px;font-family:Poppins-Medium, Poppins">=</text><text transform="translate(1652.12 510.15)" style="font-size:47.127681732177734px;font-family:Poppins-Medium, Poppins">atau 8 : 3</text><text transform="translate(19.32 299.21)" style="font-size:47.127681732177734px;font-family:Poppins-Medium, Poppins">Sasirangan<tspan x="75.9" y="75">Satin</tspan></text><line x1="3" y1="324.56" x2="309.99" y2="324.56" style="fill:none;stroke:#262626;stroke-linecap:round;stroke-miterlimit:10;stroke-width:6px"/><text transform="translate(332.03 341.06)" style="font-size:47.127681732177734px;font-family:Poppins-Medium, Poppins">=</text><path d="M519.71,163.19l188,.39c10.73,0,21-9.45,20.5-20.5s-9-20.48-20.5-20.5l-188-.39c-10.72,0-21,9.44-20.5,20.5s9,20.48,20.5,20.5Z" transform="translate(-42.16 -26.31)" style="fill:#ff9f98"/><path d="M517.35,268q33.78-.3,67.56-.09c10.72.07,21-9.48,20.5-20.5-.5-11.17-9-20.43-20.5-20.5q-33.78-.21-67.56.09c-10.72.1-21,9.36-20.5,20.5s9,20.6,20.5,20.5Z" transform="translate(-42.16 -26.31)" style="fill:#ff9f98"/><path d="M515.52,230.93H709.27c10.73,0,21-9.43,20.5-20.5s-9-20.51-20.5-20.5H515.52c-10.72,0-21,9.43-20.5,20.5s9,20.51,20.5,20.5Z" transform="translate(-42.16 -26.31)" style="fill:#ff9f98"/><text transform="translate(468.54 91.37)" style="font-size:28.276607513427734px;fill:#262626;font-family:Poppins-Medium, Poppins">Setiap<tspan x="0" y="33.93">bilangannya</tspan><tspan x="0" y="67.86">dibagi dengan</tspan><tspan x="0" y="101.8">bilangan yang</tspan><tspan x="0" y="135.73">sama yaitu 2</tspan></text></svg>