<svg id="Layer_2" data-name="Layer 2" xmlns="http://www.w3.org/2000/svg" viewBox="0 0 922.35 983.94"><title>grafik_berbalik_nilai</title><polyline points="168.89 97.27 168.89 800.55 864.13 800.55" fill="none" stroke="#97b6ec" stroke-linecap="round" stroke-miterlimit="10" stroke-width="10"/><polyline points="154.6 101.17 168.85 86.92 183.18 101.25" fill="none" stroke="#97b6ec" stroke-linecap="round" stroke-miterlimit="10" stroke-width="10"/><polyline points="857.05 786.26 871.3 800.51 856.96 814.84" fill="none" stroke="#97b6ec" stroke-linecap="round" stroke-miterlimit="10" stroke-width="10"/><text transform="translate(154.6 876.63)" font-size="48" font-family="Poppins-Medium, Poppins">0<tspan x="29.9" y="0" letter-spacing="-0.11em">	</tspan><tspan x="36" y="0" letter-spacing="0.52em">	</tspan><tspan x="72" y="0" xml:space="preserve"> 1</tspan><tspan x="97.97" y="0" letter-spacing="-0.02em">	</tspan><tspan x="108" y="0" xml:space="preserve" letter-spacing="0.52em">		</tspan><tspan x="180" y="0" xml:space="preserve">  2</tspan><tspan x="229.68" y="0" letter-spacing="0.23em">	</tspan><tspan x="252" y="0" xml:space="preserve" letter-spacing="0.52em">		</tspan><tspan x="324" y="0">3</tspan><tspan x="352.51" y="0" letter-spacing="-0.08em">	</tspan><tspan x="360" y="0" xml:space="preserve" letter-spacing="0.52em">			</tspan><tspan x="468" y="0">4</tspan><tspan x="498.48" y="0" letter-spacing="-0.12em">	</tspan><tspan x="504" y="0" xml:space="preserve" letter-spacing="0.52em">		</tspan><tspan x="576" y="0" xml:space="preserve">  5</tspan></text><text transform="translate(126.71 738.46) rotate(-90)" font-size="48" font-family="Poppins-Medium, Poppins">10<tspan x="44.64" y="0" letter-spacing="0.34em">	</tspan><tspan x="72" y="0" xml:space="preserve">     15       20</tspan><tspan x="308.58" y="0" letter-spacing="0.09em">	</tspan><tspan x="324" y="0" xml:space="preserve">      25</tspan><tspan x="448.55" y="0" letter-spacing="0.17em">	</tspan><tspan x="467.99" y="0" xml:space="preserve" letter-spacing="0em">     30</tspan></text><line x1="148.85" y1="709.85" x2="188.93" y2="709.85" fill="none" stroke="#97b6ec" stroke-linecap="round" stroke-miterlimit="10" stroke-width="10"/><line x1="148.85" y1="586.48" x2="188.93" y2="586.48" fill="none" stroke="#97b6ec" stroke-linecap="round" stroke-miterlimit="10" stroke-width="10"/><line x1="148.85" y1="463.1" x2="188.93" y2="463.1" fill="none" stroke="#97b6ec" stroke-linecap="round" stroke-miterlimit="10" stroke-width="10"/><line x1="148.85" y1="323.17" x2="188.93" y2="323.17" fill="none" stroke="#97b6ec" stroke-linecap="round" stroke-miterlimit="10" stroke-width="10"/><line x1="148.85" y1="187.97" x2="188.93" y2="187.97" fill="none" stroke="#97b6ec" stroke-linecap="round" stroke-miterlimit="10" stroke-width="10"/><line x1="245.27" y1="780.51" x2="245.27" y2="820.59" fill="none" stroke="#97b6ec" stroke-linecap="round" stroke-miterlimit="10" stroke-width="10"/><line x1="368.64" y1="780.51" x2="368.64" y2="820.59" fill="none" stroke="#97b6ec" stroke-linecap="round" stroke-miterlimit="10" stroke-width="10"/><line x1="492.01" y1="780.51" x2="492.01" y2="820.59" fill="none" stroke="#97b6ec" stroke-linecap="round" stroke-miterlimit="10" stroke-width="10"/><line x1="631.95" y1="780.51" x2="631.95" y2="820.59" fill="none" stroke="#97b6ec" stroke-linecap="round" stroke-miterlimit="10" stroke-width="10"/><line x1="767.14" y1="780.51" x2="767.14" y2="820.59" fill="none" stroke="#97b6ec" stroke-linecap="round" stroke-miterlimit="10" stroke-width="10"/><text transform="translate(342.43 956)" font-size="48" font-family="Poppins-Medium, Poppins">Jumlah Orang</text><text transform="translate(47.52 766.45) rotate(-90)" font-size="48" font-family="Poppins-Medium, Poppins">Waktu Pembuatan (Menit)</text><text transform="translate(896.72 814.84)" font-size="48" font-family="Poppins-Medium, Poppins">x</text><text transform="translate(154.6 40.97)" font-size="48" font-family="Poppins-Medium, Poppins">y</text><line x1="214.1" y1="187.97" x2="229.1" y2="187.97" fill="none" stroke="#97b6ec" stroke-linecap="round" stroke-miterlimit="10" stroke-width="10"/><polyline points="230.27 187.97 245.27 187.97 245.27 202.97" fill="none" stroke="#97b6ec" stroke-linecap="round" stroke-miterlimit="10" stroke-width="10"/><line x1="245.27" y1="234.45" x2="245.27" y2="722.33" fill="none" stroke="#97b6ec" stroke-linecap="round" stroke-miterlimit="10" stroke-width="10" stroke-dasharray="31.48 31.48"/><line x1="245.27" y1="738.07" x2="245.27" y2="753.07" fill="none" stroke="#97b6ec" stroke-linecap="round" stroke-miterlimit="10" stroke-width="10"/><line x1="214.1" y1="583.1" x2="229.1" y2="583.1" fill="none" stroke="#97b6ec" stroke-linecap="round" stroke-miterlimit="10" stroke-width="10"/><line x1="254.01" y1="583.1" x2="341.19" y2="583.1" fill="none" stroke="#97b6ec" stroke-linecap="round" stroke-miterlimit="10" stroke-width="10" stroke-dasharray="24.91 24.91"/><polyline points="353.64 583.1 368.64 583.1 368.64 598.1" fill="none" stroke="#97b6ec" stroke-linecap="round" stroke-miterlimit="10" stroke-width="10"/><line x1="368.64" y1="626.09" x2="368.64" y2="724.07" fill="none" stroke="#97b6ec" stroke-linecap="round" stroke-miterlimit="10" stroke-width="10" stroke-dasharray="27.99 27.99"/><line x1="368.64" y1="738.07" x2="368.64" y2="753.07" fill="none" stroke="#97b6ec" stroke-linecap="round" stroke-miterlimit="10" stroke-width="10"/><line x1="215.1" y1="709.85" x2="230.1" y2="709.85" fill="none" stroke="#97b6ec" stroke-linecap="round" stroke-miterlimit="10" stroke-width="10"/><line x1="257.5" y1="709.85" x2="462.93" y2="709.85" fill="none" stroke="#97b6ec" stroke-linecap="round" stroke-miterlimit="10" stroke-width="10" stroke-dasharray="27.39 27.39"/><polyline points="476.62 709.85 491.62 709.85 491.62 724.85" fill="none" stroke="#97b6ec" stroke-linecap="round" stroke-miterlimit="10" stroke-width="10"/><line x1="491.62" y1="738.07" x2="491.62" y2="753.07" fill="none" stroke="#97b6ec" stroke-linecap="round" stroke-miterlimit="10" stroke-width="10"/><line x1="215.1" y1="586.48" x2="230.1" y2="586.48" fill="none" stroke="#97b6ec" stroke-linecap="round" stroke-miterlimit="10" stroke-width="10"/><line x1="254.81" y1="586.48" x2="341.29" y2="586.48" fill="none" stroke="#97b6ec" stroke-linecap="round" stroke-miterlimit="10" stroke-width="10" stroke-dasharray="24.71 24.71"/><polyline points="353.64 586.48 368.64 586.48 368.64 601.48" fill="none" stroke="#97b6ec" stroke-linecap="round" stroke-miterlimit="10" stroke-width="10"/><line x1="368.64" y1="628.79" x2="368.64" y2="724.41" fill="none" stroke="#97b6ec" stroke-linecap="round" stroke-miterlimit="10" stroke-width="10" stroke-dasharray="27.32 27.32"/><line x1="368.64" y1="738.07" x2="368.64" y2="753.07" fill="none" stroke="#97b6ec" stroke-linecap="round" stroke-miterlimit="10" stroke-width="10"/><path d="M270.15,218.49c11.76,0,23-10.35,22.5-22.5s-9.89-22.5-22.5-22.5c-11.77,0-23,10.34-22.5,22.5s9.88,22.5,22.5,22.5Z" transform="translate(-24.88 -8.01)" fill="#97b6ec"/><path d="M516.89,740.36c11.77,0,23.05-10.35,22.5-22.5s-9.88-22.5-22.5-22.5c-11.77,0-23,10.35-22.5,22.5s9.89,22.5,22.5,22.5Z" transform="translate(-24.88 -8.01)" fill="#97b6ec"/><path d="M393.52,613.61c11.77,0,23-10.35,22.5-22.5s-9.89-22.5-22.5-22.5c-11.77,0-23,10.35-22.5,22.5s9.89,22.5,22.5,22.5Z" transform="translate(-24.88 -8.01)" fill="#97b6ec"/><path d="M223,145.53c12.11,8.55,23,19.71,32.19,31.26,8.13,10.17,12.73,21.45,17.42,33.45,9.81,25.13,18.39,50.73,26.54,76.43,18.41,58.06,34.6,116.79,51.76,175.23,15.26,51.94,30.58,104.31,51.59,154.28C409.92,633.84,418,651.61,429,667.4c12.69,18.3,31,31.71,50,42.84,28.07,16.4,59,28.13,90.21,36.83a458.4,458.4,0,0,0,102.59,16.7q12.47.54,24.93.24c6.43-.16,6.45-10.16,0-10-34.46.84-68.94-3.32-102.53-10.94-32.51-7.38-64.61-17.91-94.42-32.94-21.26-10.71-43.82-24-58.71-43-10.9-14-18.73-30.41-25.85-46.51-21.47-48.54-36.49-100-51.54-150.81-17.14-57.91-33.17-116.16-51.12-173.84-8.13-26.14-16.65-52.18-26.26-77.82-4.17-11.14-8-23-13.7-33.5-7.2-13.28-18.29-24.92-29.25-35.14A144.93,144.93,0,0,0,228,136.9c-5.26-3.72-10.27,4.95-5,8.63Z" transform="translate(-24.88 -8.01)" fill="#ff8e36"/></svg>