<svg id="Layer_1" data-name="Layer 1" xmlns="http://www.w3.org/2000/svg" viewBox="0 0 922.35 983.94"><title>grafik_senilai_contoh2</title><polyline points="168.89 97.27 168.89 800.55 864.13 800.55" fill="none" stroke="#97b6ec" stroke-linecap="round" stroke-miterlimit="10" stroke-width="10"/><polyline points="154.6 101.17 168.85 86.92 183.18 101.25" fill="none" stroke="#97b6ec" stroke-linecap="round" stroke-miterlimit="10" stroke-width="10"/><polyline points="857.05 786.26 871.3 800.51 856.96 814.84" fill="none" stroke="#97b6ec" stroke-linecap="round" stroke-miterlimit="10" stroke-width="10"/><text transform="translate(154.6 876.63)" font-size="48" font-family="Poppins-Medium, Poppins">0<tspan x="29.9" y="0" letter-spacing="-0.11em">	</tspan><tspan x="36" y="0" letter-spacing="0.52em">	</tspan><tspan x="72" y="0" xml:space="preserve"> 1</tspan><tspan x="97.97" y="0" letter-spacing="-0.02em">	</tspan><tspan x="108" y="0" xml:space="preserve" letter-spacing="0.52em">		</tspan><tspan x="180" y="0" xml:space="preserve">    </tspan><tspan x="224.93" y="0" letter-spacing="0.33em">	</tspan><tspan x="252" y="0" xml:space="preserve" letter-spacing="0.52em">						</tspan><tspan x="468" y="0" xml:space="preserve" letter-spacing="0em">   </tspan><tspan x="501.69" y="0" letter-spacing="-0.19em">	</tspan><tspan x="504" y="0" letter-spacing="0.52em">	</tspan><tspan x="540" y="0" xml:space="preserve">     5</tspan></text><text transform="translate(126.71 738.46) rotate(-90)" font-size="48" font-family="Poppins-Medium, Poppins">2<tspan x="27.22" y="0" letter-spacing="-0.05em">	</tspan><tspan x="36" y="0" xml:space="preserve">           </tspan><tspan x="159.55" y="0" letter-spacing="0.19em">	</tspan><tspan x="180" y="0" xml:space="preserve">      </tspan><tspan x="247.39" y="0" letter-spacing="-0.14em">	</tspan><tspan x="252" y="0" xml:space="preserve" letter-spacing="0.52em">					</tspan><tspan x="432" y="0"> </tspan><tspan x="443.23" y="0" letter-spacing="0.28em">	</tspan><tspan x="468" y="0" xml:space="preserve" letter-spacing="0em">      10</tspan></text><line x1="148.85" y1="709.85" x2="188.93" y2="709.85" fill="none" stroke="#97b6ec" stroke-linecap="round" stroke-miterlimit="10" stroke-width="10"/><line x1="148.85" y1="187.97" x2="188.93" y2="187.97" fill="none" stroke="#97b6ec" stroke-linecap="round" stroke-miterlimit="10" stroke-width="10"/><line x1="245.27" y1="780.51" x2="245.27" y2="820.59" fill="none" stroke="#97b6ec" stroke-linecap="round" stroke-miterlimit="10" stroke-width="10"/><line x1="767.14" y1="780.51" x2="767.14" y2="820.59" fill="none" stroke="#97b6ec" stroke-linecap="round" stroke-miterlimit="10" stroke-width="10"/><text transform="translate(201.83 956)" font-size="48" font-family="Poppins-Medium, Poppins">Banyak Mangga (buah)</text><text transform="translate(47.52 680.53) rotate(-90)" font-size="48" font-family="Poppins-Medium, Poppins">Banyak Jus (buah)</text><text transform="translate(896.72 814.84)" font-size="48" font-family="Poppins-Medium, Poppins">x</text><text transform="translate(154.6 40.97)" font-size="48" font-family="Poppins-Medium, Poppins">y</text><line x1="214.1" y1="187.97" x2="229.1" y2="187.97" fill="none" stroke="#97b6ec" stroke-linecap="round" stroke-miterlimit="10" stroke-width="10"/><line x1="259.87" y1="187.97" x2="736.76" y2="187.97" fill="none" stroke="#97b6ec" stroke-linecap="round" stroke-miterlimit="10" stroke-width="10" stroke-dasharray="30.77 30.77"/><polyline points="752.14 187.97 767.14 187.97 767.14 202.97" fill="none" stroke="#97b6ec" stroke-linecap="round" stroke-miterlimit="10" stroke-width="10"/><line x1="767.14" y1="234.45" x2="767.14" y2="722.33" fill="none" stroke="#97b6ec" stroke-linecap="round" stroke-miterlimit="10" stroke-width="10" stroke-dasharray="31.48 31.48"/><line x1="767.14" y1="738.07" x2="767.14" y2="753.07" fill="none" stroke="#97b6ec" stroke-linecap="round" stroke-miterlimit="10" stroke-width="10"/><line x1="201.83" y1="709.85" x2="216.83" y2="709.85" fill="none" stroke="#97b6ec" stroke-linecap="round" stroke-miterlimit="10" stroke-width="10"/><polyline points="230.27 709.85 245.27 709.85 245.27 724.85" fill="none" stroke="#97b6ec" stroke-linecap="round" stroke-miterlimit="10" stroke-width="10"/><line x1="245.27" y1="744.96" x2="245.27" y2="759.96" fill="none" stroke="#97b6ec" stroke-linecap="round" stroke-miterlimit="10" stroke-width="10"/><path d="M786.8,219.65c11.77,0,23.05-10.35,22.5-22.5s-9.88-22.5-22.5-22.5c-11.77,0-23,10.35-22.5,22.5s9.89,22.5,22.5,22.5Z" transform="translate(-21.88 -8.01)" fill="#97b6ec"/><path d="M270.15,741.36c11.76,0,23-10.35,22.5-22.5s-9.89-22.5-22.5-22.5c-11.77,0-23,10.35-22.5,22.5s9.88,22.5,22.5,22.5Z" transform="translate(-21.88 -8.01)" fill="#97b6ec"/><line x1="126.71" y1="844.87" x2="823.94" y2="126.84" fill="none" stroke="#ff8e36" stroke-linecap="round" stroke-miterlimit="10" stroke-width="10"/></svg>