<svg id="Layer_1" data-name="Layer 1" xmlns="http://www.w3.org/2000/svg" viewBox="0 0 915.8 983.94"><title>grafik_senilai_c</title><polyline points="162.34 97.27 162.34 800.55 857.58 800.55" fill="none" stroke="#97b6ec" stroke-linecap="round" stroke-miterlimit="10" stroke-width="10"/><polyline points="148.04 101.17 162.29 86.92 176.63 101.25" fill="none" stroke="#97b6ec" stroke-linecap="round" stroke-miterlimit="10" stroke-width="10"/><polyline points="850.49 786.26 864.74 800.51 850.41 814.84" fill="none" stroke="#97b6ec" stroke-linecap="round" stroke-miterlimit="10" stroke-width="10"/><text transform="translate(148.04 876.63)" font-size="48" font-family="Poppins-Medium, Poppins">0<tspan x="29.9" y="0" letter-spacing="-0.11em">	</tspan><tspan x="36" y="0" letter-spacing="0.52em">	</tspan><tspan x="72" y="0" xml:space="preserve"> 1</tspan><tspan x="97.97" y="0" letter-spacing="-0.02em">	</tspan><tspan x="108" y="0" xml:space="preserve" letter-spacing="0.52em">		</tspan><tspan x="180" y="0" xml:space="preserve">  2</tspan><tspan x="229.68" y="0" letter-spacing="0.23em">	</tspan><tspan x="252" y="0" xml:space="preserve" letter-spacing="0.52em">		</tspan><tspan x="324" y="0">3</tspan><tspan x="352.51" y="0" letter-spacing="-0.08em">	</tspan><tspan x="360" y="0" xml:space="preserve" letter-spacing="0.52em">			</tspan><tspan x="468" y="0">4</tspan><tspan x="498.48" y="0" letter-spacing="-0.12em">	</tspan><tspan x="504" y="0" xml:space="preserve" letter-spacing="0.52em">		</tspan><tspan x="576" y="0" xml:space="preserve">  5</tspan></text><text transform="translate(120.16 738.46) rotate(-90)" font-size="48" font-family="Poppins-Medium, Poppins">60<tspan x="59.81" y="0" letter-spacing="0.02em">	</tspan><tspan x="72" y="0" xml:space="preserve">    120     180</tspan><tspan x="319.86" y="0" letter-spacing="-0.15em">	</tspan><tspan x="324" y="0" xml:space="preserve">    240</tspan><tspan x="456.52" y="0" letter-spacing="0.01em">	</tspan><tspan x="468" y="0" xml:space="preserve">    300</tspan></text><line x1="142.3" y1="709.85" x2="182.37" y2="709.85" fill="none" stroke="#97b6ec" stroke-linecap="round" stroke-miterlimit="10" stroke-width="10"/><line x1="142.3" y1="586.48" x2="182.37" y2="586.48" fill="none" stroke="#97b6ec" stroke-linecap="round" stroke-miterlimit="10" stroke-width="10"/><line x1="142.3" y1="463.1" x2="182.37" y2="463.1" fill="none" stroke="#97b6ec" stroke-linecap="round" stroke-miterlimit="10" stroke-width="10"/><line x1="142.3" y1="323.17" x2="182.37" y2="323.17" fill="none" stroke="#97b6ec" stroke-linecap="round" stroke-miterlimit="10" stroke-width="10"/><line x1="142.3" y1="187.97" x2="182.37" y2="187.97" fill="none" stroke="#97b6ec" stroke-linecap="round" stroke-miterlimit="10" stroke-width="10"/><line x1="238.71" y1="780.51" x2="238.71" y2="820.59" fill="none" stroke="#97b6ec" stroke-linecap="round" stroke-miterlimit="10" stroke-width="10"/><line x1="362.09" y1="780.51" x2="362.09" y2="820.59" fill="none" stroke="#97b6ec" stroke-linecap="round" stroke-miterlimit="10" stroke-width="10"/><line x1="485.46" y1="780.51" x2="485.46" y2="820.59" fill="none" stroke="#97b6ec" stroke-linecap="round" stroke-miterlimit="10" stroke-width="10"/><line x1="625.39" y1="780.51" x2="625.39" y2="820.59" fill="none" stroke="#97b6ec" stroke-linecap="round" stroke-miterlimit="10" stroke-width="10"/><line x1="760.59" y1="780.51" x2="760.59" y2="820.59" fill="none" stroke="#97b6ec" stroke-linecap="round" stroke-miterlimit="10" stroke-width="10"/><text transform="translate(418.23 956)" font-size="48" font-family="Poppins-Medium, Poppins">Detik</text><text transform="translate(40.97 490.36) rotate(-90)" font-size="48" font-family="Poppins-Medium, Poppins">Menit</text><text transform="translate(890.17 814.84)" font-size="48" font-family="Poppins-Medium, Poppins">x</text><text transform="translate(148.04 40.97)" font-size="48" font-family="Poppins-Medium, Poppins">y</text><line x1="207.55" y1="187.97" x2="222.55" y2="187.97" fill="none" stroke="#97b6ec" stroke-linecap="round" stroke-miterlimit="10" stroke-width="10"/><line x1="253.32" y1="187.97" x2="730.21" y2="187.97" fill="none" stroke="#97b6ec" stroke-linecap="round" stroke-miterlimit="10" stroke-width="10" stroke-dasharray="30.77 30.77"/><polyline points="745.59 187.97 760.59 187.97 760.59 202.97" fill="none" stroke="#97b6ec" stroke-linecap="round" stroke-miterlimit="10" stroke-width="10"/><line x1="760.59" y1="234.45" x2="760.59" y2="722.33" fill="none" stroke="#97b6ec" stroke-linecap="round" stroke-miterlimit="10" stroke-width="10" stroke-dasharray="31.48 31.48"/><line x1="760.59" y1="738.07" x2="760.59" y2="753.07" fill="none" stroke="#97b6ec" stroke-linecap="round" stroke-miterlimit="10" stroke-width="10"/><line x1="207.55" y1="323.17" x2="222.55" y2="323.17" fill="none" stroke="#97b6ec" stroke-linecap="round" stroke-miterlimit="10" stroke-width="10"/><line x1="252.39" y1="323.17" x2="595.48" y2="323.17" fill="none" stroke="#97b6ec" stroke-linecap="round" stroke-miterlimit="10" stroke-width="10" stroke-dasharray="29.83 29.83"/><polyline points="610.39 323.17 625.39 323.17 625.39 338.17" fill="none" stroke="#97b6ec" stroke-linecap="round" stroke-miterlimit="10" stroke-width="10"/><line x1="625.39" y1="368.93" x2="625.39" y2="722.69" fill="none" stroke="#97b6ec" stroke-linecap="round" stroke-miterlimit="10" stroke-width="10" stroke-dasharray="30.76 30.76"/><line x1="625.39" y1="738.07" x2="625.39" y2="753.07" fill="none" stroke="#97b6ec" stroke-linecap="round" stroke-miterlimit="10" stroke-width="10"/><line x1="208.55" y1="463.1" x2="223.55" y2="463.1" fill="none" stroke="#97b6ec" stroke-linecap="round" stroke-miterlimit="10" stroke-width="10"/><line x1="250.94" y1="463.1" x2="456.37" y2="463.1" fill="none" stroke="#97b6ec" stroke-linecap="round" stroke-miterlimit="10" stroke-width="10" stroke-dasharray="27.39 27.39"/><polyline points="470.07 463.1 485.07 463.1 485.07 478.1" fill="none" stroke="#97b6ec" stroke-linecap="round" stroke-miterlimit="10" stroke-width="10"/><line x1="485.07" y1="506.99" x2="485.07" y2="723.63" fill="none" stroke="#97b6ec" stroke-linecap="round" stroke-miterlimit="10" stroke-width="10" stroke-dasharray="28.89 28.89"/><line x1="485.07" y1="738.07" x2="485.07" y2="753.07" fill="none" stroke="#97b6ec" stroke-linecap="round" stroke-miterlimit="10" stroke-width="10"/><line x1="208.55" y1="586.48" x2="223.55" y2="586.48" fill="none" stroke="#97b6ec" stroke-linecap="round" stroke-miterlimit="10" stroke-width="10"/><line x1="248.26" y1="586.48" x2="334.73" y2="586.48" fill="none" stroke="#97b6ec" stroke-linecap="round" stroke-miterlimit="10" stroke-width="10" stroke-dasharray="24.71 24.71"/><polyline points="347.09 586.48 362.09 586.48 362.09 601.48" fill="none" stroke="#97b6ec" stroke-linecap="round" stroke-miterlimit="10" stroke-width="10"/><line x1="362.09" y1="628.79" x2="362.09" y2="724.41" fill="none" stroke="#97b6ec" stroke-linecap="round" stroke-miterlimit="10" stroke-width="10" stroke-dasharray="27.32 27.32"/><line x1="362.09" y1="738.07" x2="362.09" y2="753.07" fill="none" stroke="#97b6ec" stroke-linecap="round" stroke-miterlimit="10" stroke-width="10"/><path d="M786.8,219.65c11.77,0,23.05-10.35,22.5-22.5s-9.88-22.5-22.5-22.5c-11.77,0-23,10.35-22.5,22.5s9.89,22.5,22.5,22.5Z" transform="translate(-28.43 -8.01)" fill="#97b6ec"/><path d="M653.83,353.68c11.77,0,23-10.35,22.5-22.5s-9.89-22.5-22.5-22.5c-11.77,0-23.05,10.35-22.5,22.5s9.88,22.5,22.5,22.5Z" transform="translate(-28.43 -8.01)" fill="#97b6ec"/><path d="M513.89,493.61c11.77,0,23.05-10.35,22.5-22.5s-9.88-22.5-22.5-22.5c-11.77,0-23,10.35-22.5,22.5s9.89,22.5,22.5,22.5Z" transform="translate(-28.43 -8.01)" fill="#97b6ec"/><path d="M390.52,613.61c11.77,0,23-10.35,22.5-22.5s-9.89-22.5-22.5-22.5c-11.77,0-23,10.35-22.5,22.5s9.89,22.5,22.5,22.5Z" transform="translate(-28.43 -8.01)" fill="#97b6ec"/></svg>