<svg id="Layer_1" data-name="Layer 1" xmlns="http://www.w3.org/2000/svg" viewBox="0 0 922.35 983.94"><title>grafik_berbalik_nilai_contoh2</title><polyline points="168.89 97.27 168.89 800.55 864.13 800.55" fill="none" stroke="#97b6ec" stroke-linecap="round" stroke-miterlimit="10" stroke-width="10"/><polyline points="154.6 101.17 168.85 86.92 183.18 101.25" fill="none" stroke="#97b6ec" stroke-linecap="round" stroke-miterlimit="10" stroke-width="10"/><polyline points="857.05 786.26 871.3 800.51 856.96 814.84" fill="none" stroke="#97b6ec" stroke-linecap="round" stroke-miterlimit="10" stroke-width="10"/><text transform="translate(154.6 876.63)" font-size="48" font-family="Poppins-Medium, Poppins">0<tspan x="29.9" y="0" letter-spacing="-0.11em">	</tspan><tspan x="36" y="0" letter-spacing="0.52em">	</tspan><tspan x="72" y="0" xml:space="preserve"> 1</tspan><tspan x="97.97" y="0" letter-spacing="-0.02em">	</tspan><tspan x="108" y="0" xml:space="preserve" letter-spacing="0.52em">		</tspan><tspan x="180" y="0" xml:space="preserve">  2</tspan><tspan x="229.68" y="0" letter-spacing="0.23em">	</tspan><tspan x="252" y="0" xml:space="preserve" letter-spacing="0.52em">		</tspan><tspan x="324" y="0">3</tspan><tspan x="352.51" y="0" letter-spacing="-0.08em">	</tspan><tspan x="360" y="0" xml:space="preserve" letter-spacing="0.52em">			</tspan><tspan x="468" y="0">4</tspan><tspan x="498.48" y="0" letter-spacing="-0.12em">	</tspan><tspan x="504" y="0" xml:space="preserve" letter-spacing="0.52em">		</tspan><tspan x="576" y="0" xml:space="preserve">  5</tspan></text><text transform="translate(126.71 745.46) rotate(-90)" font-size="30" font-family="Poppins-Medium, Poppins"><tspan xml:space="preserve">10.000    20.000    30.000    40.000    50.000</tspan></text><line x1="148.85" y1="709.85" x2="188.93" y2="709.85" fill="none" stroke="#97b6ec" stroke-linecap="round" stroke-miterlimit="10" stroke-width="10"/><line x1="148.85" y1="586.48" x2="188.93" y2="586.48" fill="none" stroke="#97b6ec" stroke-linecap="round" stroke-miterlimit="10" stroke-width="10"/><line x1="148.85" y1="463.1" x2="188.93" y2="463.1" fill="none" stroke="#97b6ec" stroke-linecap="round" stroke-miterlimit="10" stroke-width="10"/><line x1="148.85" y1="323.17" x2="188.93" y2="323.17" fill="none" stroke="#97b6ec" stroke-linecap="round" stroke-miterlimit="10" stroke-width="10"/><line x1="148.85" y1="187.97" x2="188.93" y2="187.97" fill="none" stroke="#97b6ec" stroke-linecap="round" stroke-miterlimit="10" stroke-width="10"/><line x1="245.27" y1="780.51" x2="245.27" y2="820.59" fill="none" stroke="#97b6ec" stroke-linecap="round" stroke-miterlimit="10" stroke-width="10"/><line x1="368.64" y1="780.51" x2="368.64" y2="820.59" fill="none" stroke="#97b6ec" stroke-linecap="round" stroke-miterlimit="10" stroke-width="10"/><line x1="492.01" y1="780.51" x2="492.01" y2="820.59" fill="none" stroke="#97b6ec" stroke-linecap="round" stroke-miterlimit="10" stroke-width="10"/><line x1="631.95" y1="780.51" x2="631.95" y2="820.59" fill="none" stroke="#97b6ec" stroke-linecap="round" stroke-miterlimit="10" stroke-width="10"/><line x1="767.14" y1="780.51" x2="767.14" y2="820.59" fill="none" stroke="#97b6ec" stroke-linecap="round" stroke-miterlimit="10" stroke-width="10"/><text transform="translate(315.43 956)" font-size="48" font-family="Poppins-Medium, Poppins">Banyaknya Baju</text><text transform="translate(47.52 731.45) rotate(-90)" font-size="48" font-family="Poppins-Medium, Poppins">Harga Baju (per lembar)</text><text transform="translate(896.72 814.84)" font-size="48" font-family="Poppins-Medium, Poppins">x</text><text transform="translate(154.6 40.97)" font-size="48" font-family="Poppins-Medium, Poppins">y</text><line x1="214.1" y1="187.97" x2="229.1" y2="187.97" fill="none" stroke="#97b6ec" stroke-linecap="round" stroke-miterlimit="10" stroke-width="10"/><line x1="258.94" y1="187.97" x2="602.03" y2="187.97" fill="none" stroke="#97b6ec" stroke-linecap="round" stroke-miterlimit="10" stroke-width="10" stroke-dasharray="29.83 29.83"/><polyline points="616.95 187.97 631.95 187.97 631.95 202.97" fill="none" stroke="#97b6ec" stroke-linecap="round" stroke-miterlimit="10" stroke-width="10"/><line x1="631.95" y1="234.45" x2="631.95" y2="722.33" fill="none" stroke="#97b6ec" stroke-linecap="round" stroke-miterlimit="10" stroke-width="10" stroke-dasharray="31.48 31.48"/><line x1="631.95" y1="738.07" x2="631.95" y2="753.07" fill="none" stroke="#97b6ec" stroke-linecap="round" stroke-miterlimit="10" stroke-width="10"/><line x1="215.1" y1="323.17" x2="230.1" y2="323.17" fill="none" stroke="#97b6ec" stroke-linecap="round" stroke-miterlimit="10" stroke-width="10"/><line x1="260.81" y1="323.17" x2="736.79" y2="323.17" fill="none" stroke="#97b6ec" stroke-linecap="round" stroke-miterlimit="10" stroke-width="10" stroke-dasharray="30.71 30.71"/><polyline points="752.14 323.17 767.14 323.17 767.14 338.17" fill="none" stroke="#97b6ec" stroke-linecap="round" stroke-miterlimit="10" stroke-width="10"/><line x1="767.14" y1="368.93" x2="767.14" y2="722.69" fill="none" stroke="#97b6ec" stroke-linecap="round" stroke-miterlimit="10" stroke-width="10" stroke-dasharray="30.76 30.76"/><line x1="767.14" y1="738.07" x2="767.14" y2="753.07" fill="none" stroke="#97b6ec" stroke-linecap="round" stroke-miterlimit="10" stroke-width="10"/><path d="M656.83,218.49c11.77,0,23-10.35,22.5-22.5s-9.89-22.5-22.5-22.5c-11.77,0-23.05,10.34-22.5,22.5s9.88,22.5,22.5,22.5Z" transform="translate(-24.88 -8.01)" fill="#97b6ec"/><path d="M792,353.68c11.77,0,23-10.35,22.5-22.5s-9.89-22.5-22.5-22.5c-11.77,0-23,10.35-22.5,22.5s9.89,22.5,22.5,22.5Z" transform="translate(-24.88 -8.01)" fill="#97b6ec"/><path d="M607.87,110.59c18.38,50.69,44.08,99.43,78.69,141A299.36,299.36,0,0,0,808,338.68c28.09,11,58,17.41,88.23,17.54,6.43,0,6.44-10,0-10-51.35-.22-101.56-19.35-143.71-48-41-27.82-72.44-66.63-97.17-109.18a501.56,501.56,0,0,1-37.79-81.16c-2.18-6-11.85-3.41-9.64,2.66Z" transform="translate(-24.88 -8.01)" fill="#ff8e36"/></svg>