<svg id="Layer_2" data-name="Layer 2" xmlns="http://www.w3.org/2000/svg" viewBox="0 0 915.8 983.94"><title>grafik_senilai_b</title><polyline points="162.34 97.27 162.34 800.55 857.58 800.55" fill="none" stroke="#97b6ec" stroke-linecap="round" stroke-miterlimit="10" stroke-width="10"/><polyline points="148.04 101.17 162.29 86.92 176.63 101.25" fill="none" stroke="#97b6ec" stroke-linecap="round" stroke-miterlimit="10" stroke-width="10"/><polyline points="850.49 786.26 864.74 800.51 850.41 814.84" fill="none" stroke="#97b6ec" stroke-linecap="round" stroke-miterlimit="10" stroke-width="10"/><text transform="translate(148.04 876.63)" font-size="48" font-family="Poppins-Medium, Poppins">0<tspan x="29.9" y="0" letter-spacing="-0.11em">	</tspan><tspan x="36" y="0" letter-spacing="0.52em">	</tspan><tspan x="72" y="0" xml:space="preserve"> 1</tspan><tspan x="97.97" y="0" letter-spacing="-0.02em">	</tspan><tspan x="108" y="0" xml:space="preserve" letter-spacing="0.52em">		</tspan><tspan x="180" y="0" xml:space="preserve">  2</tspan><tspan x="229.68" y="0" letter-spacing="0.23em">	</tspan><tspan x="252" y="0" xml:space="preserve" letter-spacing="0.52em">		</tspan><tspan x="324" y="0">3</tspan><tspan x="352.51" y="0" letter-spacing="-0.08em">	</tspan><tspan x="360" y="0" xml:space="preserve" letter-spacing="0.52em">			</tspan><tspan x="468" y="0">4</tspan><tspan x="498.48" y="0" letter-spacing="-0.12em">	</tspan><tspan x="504" y="0" xml:space="preserve" letter-spacing="0.52em">		</tspan><tspan x="576" y="0" xml:space="preserve">  5</tspan></text><text transform="translate(120.16 738.46) rotate(-90)" font-size="48" font-family="Poppins-Medium, Poppins">60<tspan x="59.81" y="0" letter-spacing="0.02em">	</tspan><tspan x="72" y="0" xml:space="preserve">    120     180</tspan><tspan x="319.86" y="0" letter-spacing="-0.15em">	</tspan><tspan x="324" y="0" xml:space="preserve">    240</tspan><tspan x="456.52" y="0" letter-spacing="0.01em">	</tspan><tspan x="468" y="0" xml:space="preserve">    300</tspan></text><line x1="142.3" y1="709.85" x2="182.37" y2="709.85" fill="none" stroke="#97b6ec" stroke-linecap="round" stroke-miterlimit="10" stroke-width="10"/><line x1="142.3" y1="586.48" x2="182.37" y2="586.48" fill="none" stroke="#97b6ec" stroke-linecap="round" stroke-miterlimit="10" stroke-width="10"/><line x1="142.3" y1="463.1" x2="182.37" y2="463.1" fill="none" stroke="#97b6ec" stroke-linecap="round" stroke-miterlimit="10" stroke-width="10"/><line x1="142.3" y1="323.17" x2="182.37" y2="323.17" fill="none" stroke="#97b6ec" stroke-linecap="round" stroke-miterlimit="10" stroke-width="10"/><line x1="142.3" y1="187.97" x2="182.37" y2="187.97" fill="none" stroke="#97b6ec" stroke-linecap="round" stroke-miterlimit="10" stroke-width="10"/><line x1="238.71" y1="780.51" x2="238.71" y2="820.59" fill="none" stroke="#97b6ec" stroke-linecap="round" stroke-miterlimit="10" stroke-width="10"/><line x1="362.09" y1="780.51" x2="362.09" y2="820.59" fill="none" stroke="#97b6ec" stroke-linecap="round" stroke-miterlimit="10" stroke-width="10"/><line x1="485.46" y1="780.51" x2="485.46" y2="820.59" fill="none" stroke="#97b6ec" stroke-linecap="round" stroke-miterlimit="10" stroke-width="10"/><line x1="625.39" y1="780.51" x2="625.39" y2="820.59" fill="none" stroke="#97b6ec" stroke-linecap="round" stroke-miterlimit="10" stroke-width="10"/><line x1="760.59" y1="780.51" x2="760.59" y2="820.59" fill="none" stroke="#97b6ec" stroke-linecap="round" stroke-miterlimit="10" stroke-width="10"/><text transform="translate(418.23 956)" font-size="48" font-family="Poppins-Medium, Poppins">Detik</text><text transform="translate(40.97 490.36) rotate(-90)" font-size="48" font-family="Poppins-Medium, Poppins">Menit</text><text transform="translate(890.17 814.84)" font-size="48" font-family="Poppins-Medium, Poppins">x</text><text transform="translate(148.04 40.97)" font-size="48" font-family="Poppins-Medium, Poppins">y</text></svg>