<?xml version="1.0" encoding="utf-8"?>
<!-- Generator: Adobe Illustrator 22.1.0, SVG Export Plug-In . SVG Version: 6.00 Build 0)  -->
<svg version="1.1" xmlns="http://www.w3.org/2000/svg" xmlns:xlink="http://www.w3.org/1999/xlink" x="0px" y="0px"
	 viewBox="0 0 30 30" enable-background="new 0 0 30 30" xml:space="preserve">
<g id="Layer_1" display="none">
	<g>
		<circle display="inline" fill="none" stroke="#FFFFFF" stroke-miterlimit="10" cx="15" cy="15" r="15"/>
	</g>
	<g display="inline">
		<g>
			<g>
				<path fill="#97B6EC" d="M22.4,16c0.8,0,1.5-0.5,1.6-1.4c0-0.4-0.2-0.9-0.5-1.2c-0.1-0.1-0.2-0.2-0.4-0.4
					c-0.6-0.6-1.2-1.2-1.8-1.8c-1.5-1.5-2.9-2.9-4.4-4.4c-0.2-0.2-0.3-0.3-0.5-0.5c-0.5-0.5-1.3-0.8-2-0.5c-0.6,0.2-1.1,0.8-1.6,1.3
					c-1.5,1.5-3,3-4.5,4.5c-0.5,0.5-1.1,1.1-1.6,1.6c-0.2,0.2-0.4,0.4-0.5,0.6c-0.5,0.7-0.1,1.6,0.5,2C7,15.9,7.4,16,7.6,16
					c1.3,0,2.6,0,3.9,0C15.1,16,18.7,16,22.4,16C22.3,16,22.4,16,22.4,16c0.7,0,1.2-0.6,1.2-1.2c0-0.7-0.6-1.2-1.2-1.2
					c-3.4,0-6.8,0-10.1,0c-1.1,0-2.2,0-3.3,0c-0.3,0-0.7,0-1,0c-0.1,0-0.2,0-0.3,0c0,0,0,0-0.1,0c0.1,0,0.5,0.2,0.5,0.2
					c0.1,0.2,0.2,0.4,0.3,0.5c0.1,0.2,0,0.7-0.2,0.8c0,0,0,0,0,0C8.4,15,8.4,15,8.5,14.9c0.2-0.2,0.4-0.4,0.7-0.7
					c0.7-0.7,1.4-1.4,2.1-2.1c1.3-1.3,2.6-2.6,3.9-3.9c0,0,0.1-0.1,0.1-0.1c-0.1,0.1-0.5,0.2-0.7,0c0.1,0.1,0.2,0.2,0.3,0.3
					c0.6,0.6,1.1,1.1,1.7,1.7c1.5,1.5,3,3,4.4,4.4c0.2,0.2,0.3,0.3,0.5,0.5c0,0,0.1,0.1,0.1,0.1c0,0,0,0,0,0
					c-0.1-0.1-0.2-0.6-0.2-0.8c0.1-0.2,0.2-0.4,0.3-0.5c0.2-0.1,0.3-0.2,0.5-0.2c-0.7,0-1.2,0.5-1.2,1.2C21.2,15.4,21.7,16,22.4,16z
					"/>
			</g>
		</g>
		<g>
			<g>
				<path fill="#97B6EC" d="M19.6,22.6c0-0.3,0.3-0.5,0.5-0.5c-0.1,0-0.1,0-0.2,0c-0.3,0-0.6,0-0.8,0c-1,0-1.9,0-2.9,0
					c-2,0-3.9,0-5.9,0c-0.2,0-0.3,0-0.5,0c0.3,0,0.5,0.2,0.5,0.5c0-0.1,0-0.1,0-0.2c0-0.8,0-1.7,0-2.5c0-1.1,0-2.2,0-3.3
					c0-0.3,0-0.7,0-1c0-0.1,0-0.1,0-0.2c0,0.3-0.3,0.5-0.5,0.5c3.4,0,6.7,0,10.1,0c0.1,0,0.1,0,0.2,0c0,0,0,0,0,0
					c-0.1,0-0.3-0.1-0.4-0.2c-0.1-0.1-0.2-0.2-0.2-0.4c0,0,0,0,0,0.1c0,0.1,0,0.2,0,0.3c0,0.8,0,1.6,0,2.4
					C19.6,19.7,19.6,21.1,19.6,22.6c0,0.7,0.6,1.2,1.2,1.2c0.7,0,1.2-0.6,1.2-1.2c0-1.7,0-3.4,0-5.1c0-0.7,0-1.4,0-2
					c0-1-0.9-1.9-1.9-1.9c-0.1,0-0.3,0-0.4,0c-1.9,0-3.9,0-5.8,0c-1,0-2,0-2.9,0c-0.5,0-1.2-0.1-1.7,0.1c-0.8,0.3-1.3,1-1.3,1.9
					c0,0.3,0,0.6,0,0.9c0,1.1,0,2.1,0,3.2c0,0.9,0,1.8,0,2.7c0,0.4,0.1,0.8,0.3,1.3c0.3,0.6,1.1,0.9,1.8,0.9c3.4,0,6.8,0,10.1,0
					c1.1,0,1.9-0.8,2-1.9c0-0.7-0.6-1.2-1.2-1.2C20.1,21.4,19.7,22,19.6,22.6z"/>
			</g>
		</g>
		<g>
			<g>
				<path fill="#97B6EC" d="M14.2,23.3c0-0.9,0-1.7,0-2.6c0-0.3,0-0.6,0-0.9c0,0.3-0.2,0.5-0.5,0.5c0,0,0.1,0,0.1,0
					c0.2,0,0.4,0,0.6,0c0.5,0,1.1,0,1.6,0c0.1,0,0.2,0,0.3,0c-0.3,0-0.5-0.2-0.5-0.5c0,0,0,0.1,0,0.1c0,1,0,1.9,0,2.9
					c0,0.2,0,0.3,0,0.5c0,0.7,0.6,1.2,1.2,1.2c0.7,0,1.2-0.6,1.2-1.2c0-0.9,0-1.7,0-2.6c0-0.3,0-0.6,0-0.9c-0.1-1.1-1-1.8-2-1.8
					c-0.5,0-1,0-1.5,0c-0.4,0-0.9,0-1.4,0c-1,0.2-1.5,1.1-1.5,2c0,0.4,0,0.9,0,1.3c0,0.7,0,1.3,0,2c0,0.7,0.6,1.2,1.2,1.2
					C13.7,24.5,14.2,24,14.2,23.3L14.2,23.3z"/>
			</g>
		</g>
	</g>
</g>
<g id="Layer_2">
	
		<polyline fill="none" stroke="#FFFFFF" stroke-width="2" stroke-linecap="round" stroke-linejoin="round" stroke-miterlimit="10" points="
		4.4,15.6 4.4,28.9 25.7,28.9 25.7,15.6 	"/>
	
		<polyline fill="none" stroke="#FFFFFF" stroke-width="2" stroke-linecap="round" stroke-linejoin="round" stroke-miterlimit="10" points="
		11.4,28.4 11.4,23.5 18.8,23.5 18.8,28.4 	"/>
	
		<polyline fill="none" stroke="#FFFFFF" stroke-width="2" stroke-linecap="round" stroke-linejoin="round" stroke-miterlimit="10" points="
		29.4,15.2 14.7,1.2 0.7,15.2 29.4,15.2 	"/>
</g>
</svg>
