<?xml version="1.0" encoding="utf-8"?>
<!-- Generator: Adobe Illustrator 16.0.0, SVG Export Plug-In . SVG Version: 6.00 Build 0)  -->
<!DOCTYPE svg PUBLIC "-//W3C//DTD SVG 1.1//EN" "http://www.w3.org/Graphics/SVG/1.1/DTD/svg11.dtd">
<svg version="1.1" xmlns="http://www.w3.org/2000/svg" xmlns:xlink="http://www.w3.org/1999/xlink" x="0px" y="0px" width="1000px"
	 height="1000px" viewBox="0 0 1000 1000" enable-background="new 0 0 1000 1000" xml:space="preserve">
<g id="Layer_2" display="none">
	<rect y="0" display="inline" fill="none" width="1000" height="1000"/>
</g>
<g id="background" display="none">
	<g display="inline">
		<path fill="#D3CDFC" d="M705.438,761.833c-118.13,154.052-287.64,150.137-405.771-3.915
			c-154.052-200.896-159.518-319.131-5.466-520.027c118.13-154.052,237.474-98.117,406.321-2.32
			C935.9,369.113,859.49,560.938,705.438,761.833z"/>
	</g>
</g>
<g id="materi" display="none">
	<g display="inline">
		<path fill="#97B6EC" d="M450.381,693.224c0,6.6-5.4,12-12,12h-75.551c-6.6,0-12-5.4-12-12V306.257c0-6.6,5.4-12,12-12h75.551
			c6.6,0,12,5.4,12,12V693.224z"/>
		<g>
			<path fill="#282828" d="M447.881,693.224c-0.44,8.099-7.092,9.5-13.547,9.5c-6.081,0-12.161,0-18.241,0
				c-15.093,0-30.186,0-45.278,0c-3.6,0-7.595,0.445-11.103-0.525c-4.492-1.242-6.382-5.844-6.382-10.065c0-4.523,0-9.047,0-13.57
				c0-52.13,0-104.259,0-156.389c0-59.232,0-118.465,0-177.697c0-12.549,0-25.098,0-37.647c0-11.93,12.879-10.073,20.934-10.073
				c15.424,0,30.849,0,46.272,0c8.202,0,27.344-3.288,27.344,9.585c0,3.22,0,6.441,0,9.661c0,19.394,0,38.788,0,58.182
				c0,62.979,0,125.957,0,188.935c0,42.616,0,85.232,0,127.848C447.881,691.72,447.881,692.472,447.881,693.224c0,3.225,5,3.225,5,0
				c0-35.331,0-70.663,0-105.994c0-63.901,0-127.803,0-191.705c0-22.934,0-45.868,0-68.801c0-11.819,3.608-32.158-12.533-34.807
				c-3.21-0.527-6.723-0.16-9.952-0.16c-6.973,0-13.945,0-20.918,0c-14.2,0-28.401,0-42.601,0c-4.571,0-9.091-0.042-12.89,3.056
				c-3.718,3.032-5.657,7.229-5.657,12.017c0,4.03,0,8.06,0,12.09c0,51.143,0,102.286,0,153.428c0,59.825,0,119.649,0,179.473
				c0,13.438,0,26.874,0,40.312c0,9.746,7.102,15.591,16.475,15.591c13.257,0,26.514,0,39.771,0c9.919,0,19.839,0,29.759,0
				c1.968,0,4.063,0.16,6.014-0.16c7.333-1.203,12.136-7.028,12.533-14.34C453.057,690,448.056,690.018,447.881,693.224z"/>
		</g>
	</g>
	<g display="inline">
		<path fill="#97B6EC" d="M550.289,693.528c0,6.6-5.4,12-12,12h-75.55c-6.6,0-12-5.4-12-12v-309.11c0-6.6,5.4-12,12-12h75.55
			c6.6,0,12,5.4,12,12V693.528z"/>
		<g>
			<path fill="#282828" d="M547.789,693.528c-0.491,8.437-7.458,9.5-14.039,9.5c-6.223,0-12.446,0-18.669,0
				c-14.996,0-29.992,0-44.987,0c-3.978,0-8.505,0.586-12.138-1.304c-3.71-1.93-4.717-5.911-4.717-9.709c0-5.653,0-11.308,0-16.961
				c0-57.58,0-115.161,0-172.741c0-28.11,0-56.219,0-84.329c0-8.47,0-16.939,0-25.409c0-5.354-0.905-11.146,3.239-15.289
				c3.182-3.182,8.89-2.369,13.008-2.369c6.743,0,13.486,0,20.229,0c14.506,0,29.013,0,43.519,0c5.693,0,11.473-0.108,14.03,6.382
				c0.654,1.66,0.525,3.562,0.525,5.321c0,6.114,0,12.229,0,18.343c0,58.185,0,116.369,0,174.554
				C547.789,617.521,547.789,655.524,547.789,693.528c0,3.225,5,3.225,5,0c0-40.927,0-81.854,0-122.781c0-56.77,0-113.539,0-170.309
				c0-5.064,0-10.128,0-15.193c0-4.46-1.529-8.32-4.703-11.494c-3.666-3.666-8.588-3.833-13.377-3.833c-14.031,0-28.063,0-42.096,0
				c-10.352,0-20.836-0.491-31.177,0.071c-10.003,0.543-13.197,9.789-13.197,18.139c0,6.896,0,13.792,0,20.688
				c0,26.355,0,52.71,0,79.065c0,59.642,0,119.282,0,178.924c0,7.329,0,14.658,0,21.987c0,7.277,0.919,14.933,8.891,18.074
				c3.786,1.492,7.782,1.162,11.769,1.162c6.621,0,13.242,0,19.862,0c14.644,0,29.288,0,43.931,0c1.866,0,3.731,0,5.597,0
				c8.205,0,14.043-6.653,14.5-14.5C552.977,690.306,547.976,690.324,547.789,693.528z"/>
		</g>
	</g>
	<g display="inline">
		<g>
			<path fill="#282828" d="M495.998,442.358c0,49.119,0,98.237,0,147.356c0,19.078,0,38.156,0,57.234c0,3.225,5,3.225,5,0
				c0-49.119,0-98.237,0-147.356c0-19.078,0-38.156,0-57.234C500.998,439.134,495.998,439.134,495.998,442.358L495.998,442.358z"/>
		</g>
	</g>
	<g display="inline">
		<g>
			<path fill="#282828" d="M368.351,363.372c21.106,0,42.213,0,63.32,0c3.224,0,3.224-5,0-5c-21.106,0-42.213,0-63.32,0
				C365.126,358.372,365.126,363.372,368.351,363.372L368.351,363.372z"/>
		</g>
	</g>
	<g display="inline">
		<g>
			<path fill="#282828" d="M369.129,389.842c21.107,0,42.213,0,63.32,0c3.224,0,3.224-5,0-5c-21.107,0-42.213,0-63.32,0
				C365.905,384.842,365.905,389.842,369.129,389.842L369.129,389.842z"/>
		</g>
	</g>
	<g display="inline">
		<path fill="#97B6EC" d="M649.17,693.741c0,6.6-5.4,12-12,12h-75.553c-6.6,0-12-5.4-12-12V306.776c0-6.6,5.4-12,12-12h75.553
			c6.6,0,12,5.4,12,12V693.741z"/>
		<g>
			<path fill="#282828" d="M646.67,693.741c-0.491,8.437-7.458,9.5-14.039,9.5c-6.224,0-12.446,0-18.67,0
				c-14.996,0-29.992,0-44.988,0c-4.182,0-8.747,0.587-12.515-1.534c-3.412-1.921-4.341-5.732-4.341-9.31c0-4.718,0-9.437,0-14.154
				c0-52.513,0-105.025,0-157.538c0-58.984,0-117.969,0-176.953c0-12.188,0-24.377,0-36.565c0-12.201,14.342-9.911,22.442-9.911
				c15.486,0,30.972,0,46.458,0c8.168,0,25.652-2.986,25.652,9.667c0,3.425,0,6.851,0,10.276c0,19.685,0,39.37,0,59.056
				c0,63.086,0,126.173,0,189.26c0,42.093,0,84.187,0,126.279C646.67,692.457,646.67,693.1,646.67,693.741c0,3.225,5,3.225,5,0
				c0-35.331,0-70.662,0-105.993c0-63.901,0-127.803,0-191.704c0-22.934,0-45.867,0-68.801c0-11.82,3.608-32.158-12.533-34.807
				c-3.21-0.527-6.723-0.16-9.952-0.16c-6.973,0-13.945,0-20.918,0c-14.201,0-28.401,0-42.603,0c-4.571,0-9.091-0.042-12.89,3.056
				c-3.719,3.032-5.657,7.229-5.657,12.017c0,4.03,0,8.06,0,12.09c0,51.143,0,102.285,0,153.428c0,59.824,0,119.648,0,179.472
				c0,13.438,0,26.874,0,40.312c0,10.005,7.375,15.591,16.835,15.591c13.467,0,26.933,0,40.399,0c9.59,0,19.181,0,28.771,0
				c1.987,0,4.137,0.176,6.105-0.171c7.309-1.285,12.017-7.027,12.441-14.329C651.857,690.519,646.856,690.537,646.67,693.741z"/>
		</g>
	</g>
	<g display="inline">
		<g>
			<path fill="#282828" d="M550.529,357.662c32.871,0,65.742,0,98.613,0c3.225,0,3.225-5,0-5c-32.871,0-65.742,0-98.613,0
				C547.305,352.662,547.305,357.662,550.529,357.662L550.529,357.662z"/>
		</g>
	</g>
	<g display="inline">
		<g>
			<path fill="#282828" d="M549.75,651.949c32.871,0,65.742,0,98.613,0c3.225,0,3.225-5,0-5c-32.871,0-65.742,0-98.613,0
				C546.525,646.949,546.525,651.949,549.75,651.949L549.75,651.949z"/>
		</g>
	</g>
	<g display="inline">
		<g>
			<path fill="#282828" d="M550.529,509.478c32.871,0,65.742,0,98.613,0c3.225,0,3.225-5,0-5c-32.871,0-65.742,0-98.613,0
				C547.305,504.478,547.305,509.478,550.529,509.478L550.529,509.478z"/>
		</g>
	</g>
</g>
<g id="evaluasi" display="none">
	
		<text transform="matrix(1 0 0 1 457.7412 551.1563)" fill="#282828" stroke="#282828" stroke-width="2" stroke-miterlimit="10" font-family="'SourceSansPro-Bold'" font-size="192.2106">?</text>
	<g display="inline">
		<g>
			<g>
				<path fill="#FF9F98" d="M615.192,693.742c0,6.6-5.4,12-12,12h-274.34c-6.6,0-12-5.4-12-12V306.258c0-6.6,5.4-12,12-12h274.34
					c6.6,0,12,5.4,12,12V693.742z"/>
				<g>
					<path fill="#282828" d="M612.692,693.742c-0.607,10.434-10.144,9.5-17.472,9.5c-8.986,0-17.972,0-26.957,0
						c-29.427,0-58.854,0-88.279,0c-49.752,0-99.503,0-149.255,0c-6.669,0-11.376-4.118-11.376-10.977c0-4.806,0-9.611,0-14.416
						c0-21.601,0-43.201,0-64.802c0-63.644,0-127.286,0-190.929c0-38.484,0-76.968,0-115.451c0-8.509,7.136-9.91,13.652-9.91
						c7.621,0,15.242,0,22.862,0c28.108,0,56.216,0,84.325,0c52.764,0,105.528,0,158.293,0c6.567,0,14.208,0.915,14.208,9.775
						c0,3.622,0,7.243,0,10.864c0,19.94,0,39.88,0,59.82c0,63.152,0,126.305,0,189.457c0,41.767,0,83.534,0,125.301
						C612.692,692.563,612.692,693.153,612.692,693.742c0,3.225,5,3.225,5,0c0-35.275,0-70.551,0-105.825
						c0-63.894,0-127.788,0-191.681c0-23.023,0-46.046,0-69.07c0-5.841,0-11.682,0-17.523c0-7.94-2.662-15.138-11.27-17.518
						c-3.979-1.1-9.088-0.367-13.126-0.367c-9.521,0-19.043,0-28.564,0c-29.909,0-59.817,0-89.727,0c-48.363,0-96.726,0-145.089,0
						c-8.749,0-15.564,6.229-15.564,15.162c0,4.121,0,8.243,0,12.364c0,20.646,0,41.292,0,61.937c0,63.384,0,126.768,0,190.153
						c0,40.426,0,80.853,0,121.279c0,8.684,6.151,15.589,15.076,15.589c5.228,0,10.457,0,15.685,0c25.559,0,51.119,0,76.678,0
						c56.61,0,113.221,0,169.831,0c3.454,0,6.907,0,10.361,0c8.624,0,15.198-5.724,15.709-14.5
						C617.88,690.52,612.879,690.538,612.692,693.742z"/>
				</g>
			</g>
			<g>
				<path fill="#FECFCC" d="M593.803,669.979c0,6.6-5.4,12-12,12H350.242c-6.6,0-12-5.4-12-12V330.021c0-6.6,5.4-12,12-12h231.561
					c6.6,0,12,5.4,12,12V669.979z"/>
				<g>
					<path fill="#282828" d="M591.303,669.979c-0.633,10.876-11.22,9.5-18.805,9.5c-10.229,0-20.46,0-30.689,0
						c-31.229,0-62.459,0-93.688,0c-27.273,0-54.546,0-81.819,0c-5.285,0-10.57,0-15.855,0c-8.774,0-9.704-7.594-9.704-14.084
						c0-48.479,0-96.959,0-145.438c0-56.68,0-113.36,0-170.041c0-5.841,0-11.682,0-17.523c0-6.697,3.643-11.871,10.923-11.871
						c19.537,0,39.074,0,58.611,0c55.337,0,110.675,0,166.013,0c6.781,0,15.014,0.427,15.014,9.814c0,4.094,0,8.188,0,12.283
						c0,21.976,0,43.953,0,65.929c0,63.225,0,126.449,0,189.675C591.303,622.141,591.303,646.06,591.303,669.979
						c0,3.225,5,3.225,5,0c0-38.612,0-77.226,0-115.838c0-61.166,0-122.331,0-183.496c0-13.412,0-26.824,0-40.236
						c0-9.544-7.699-14.887-16.495-14.887c-7.235,0-14.47,0-21.705,0c-59.16,0-118.319,0-177.479,0c-8.608,0-17.217,0-25.826,0
						c-1.488,0-2.977,0-4.465,0c-8.223,0-14.161,6.577-14.591,14.5c-0.613,11.29,0,22.784,0,34.085c0,60.141,0,120.281,0,180.421
						c0,41.688,0,83.376,0,125.064c0,9.544,7.699,14.887,16.496,14.887c7.235,0,14.47,0,21.705,0c29.03,0,58.061,0,87.091,0
						c29.895,0,59.789,0,89.684,0c8.74,0,17.48,0,26.22,0c1.575,0,3.149,0,4.725,0c8.263,0,14.179-6.542,14.642-14.5
						C596.49,666.756,591.489,666.774,591.303,669.979z"/>
				</g>
			</g>
			<g>
				<g>
					<g>
						<path fill="#282828" d="M381.022,462.035c35.111,0,70.222,0,105.333,0c3.224,0,3.224-5,0-5c-35.111,0-70.222,0-105.333,0
							C377.798,457.035,377.798,462.035,381.022,462.035L381.022,462.035z"/>
					</g>
				</g>
				<g>
					<g>
						<path fill="#282828" d="M381.022,491.035c49.896,0,99.791,0,149.687,0c6.771,0,13.542,0,20.313,0c3.225,0,3.225-5,0-5
							c-49.896,0-99.791,0-149.686,0c-6.771,0-13.542,0-20.314,0C377.798,486.035,377.798,491.035,381.022,491.035L381.022,491.035z
							"/>
					</g>
				</g>
				<g>
					<g>
						<path fill="#282828" d="M381.022,520.035c49.896,0,99.791,0,149.687,0c6.771,0,13.542,0,20.313,0c3.225,0,3.225-5,0-5
							c-49.896,0-99.791,0-149.686,0c-6.771,0-13.542,0-20.314,0C377.798,515.035,377.798,520.035,381.022,520.035L381.022,520.035z
							"/>
					</g>
				</g>
				<g>
					<g>
						<path fill="#282828" d="M381.022,549.035c49.896,0,99.791,0,149.687,0c6.771,0,13.542,0,20.313,0c3.225,0,3.225-5,0-5
							c-49.896,0-99.791,0-149.686,0c-6.771,0-13.542,0-20.314,0C377.798,544.035,377.798,549.035,381.022,549.035L381.022,549.035z
							"/>
					</g>
				</g>
			</g>
		</g>
		<g>
			<g>
				<path fill="#FF9F98" d="M667.606,371.781"/>
				<g>
					<path fill="#282828" d="M667.606,374.281c3.225,0,3.225-5,0-5S664.382,374.281,667.606,374.281L667.606,374.281z"/>
				</g>
			</g>
			<g>
				<path fill="#FF9F98" d="M651.772,352.813c0.447-8.229,7.262-14.763,15.602-14.763c8.307,0,15.099,6.484,15.596,14.668"/>
				<g>
					<path fill="#282828" d="M654.272,352.813c1.547-15.799,24.553-15.891,26.197-0.095c0.33,3.174,5.334,3.206,5,0
						c-1.018-9.775-8.22-16.741-18.096-17.168c-9.868-0.427-17.203,8.085-18.102,17.263
						C648.958,356.022,653.961,355.992,654.272,352.813L654.272,352.813z"/>
				</g>
			</g>
			<g>
				<rect x="651.689" y="353.156" fill="#FF9F98" width="31.333" height="277.334"/>
				<g>
					<path fill="#282828" d="M683.022,627.99c-10.444,0-20.889,0-31.333,0c0.833,0.833,1.667,1.667,2.5,2.5
						c0-43.397,0-86.795,0-130.192c0-48.599,0-97.198,0-145.797c0-0.448,0-0.897,0-1.345c-0.833,0.833-1.667,1.667-2.5,2.5
						c10.444,0,20.889,0,31.333,0c-0.833-0.833-1.667-1.667-2.5-2.5c0,43.397,0,86.795,0,130.192c0,48.599,0,97.198,0,145.796
						c0,0.449,0,0.897,0,1.346c0,3.225,5,3.225,5,0c0-43.397,0-86.795,0-130.192c0-48.599,0-97.198,0-145.797
						c0-0.448,0-0.897,0-1.345c0-1.363-1.138-2.5-2.5-2.5c-10.444,0-20.889,0-31.333,0c-1.363,0-2.5,1.137-2.5,2.5
						c0,43.397,0,86.795,0,130.192c0,48.599,0,97.198,0,145.796c0,0.449,0,0.897,0,1.346c0,1.363,1.137,2.5,2.5,2.5
						c10.444,0,20.889,0,31.333,0C686.247,632.99,686.247,627.99,683.022,627.99z"/>
				</g>
			</g>
			<g>
				<line fill="#FF9F98" x1="667.606" y1="384.365" x2="667.606" y2="605.677"/>
				<g>
					<path fill="#282828" d="M665.106,384.365c0,48.059,0,96.118,0,144.177c0,25.712,0,51.423,0,77.135c0,3.225,5,3.225,5,0
						c0-48.059,0-96.118,0-144.177c0-25.712,0-51.423,0-77.135C670.106,381.141,665.106,381.141,665.106,384.365L665.106,384.365z"
						/>
				</g>
			</g>
			<g>
				<polygon fill="#FECFCC" points="683.03,631.038 668.246,661.949 651.613,631.031 				"/>
				<g>
					<path fill="#282828" d="M680.871,629.776c-4.928,10.304-9.855,20.607-14.783,30.911c1.438,0,2.878,0,4.316,0
						c-5.544-10.306-11.088-20.612-16.633-30.918c-0.719,1.254-1.438,2.508-2.158,3.762c10.473,0.002,20.944,0.005,31.417,0.007
						c3.225,0.001,3.225-4.999,0-5c-10.473-0.002-20.944-0.005-31.417-0.007c-1.946,0-3.048,2.109-2.158,3.762
						c5.544,10.306,11.088,20.612,16.633,30.918c0.844,1.569,3.508,1.691,4.316,0c4.929-10.304,9.856-20.607,14.785-30.911
						C686.573,629.406,682.263,626.868,680.871,629.776z"/>
				</g>
			</g>
			<g>
				<rect x="651.814" y="352.337" fill="#FECFCC" width="31.333" height="15.153"/>
				<g>
					<path fill="#282828" d="M683.147,364.99c-10.444,0-20.889,0-31.333,0c0.833,0.833,1.667,1.667,2.5,2.5
						c0-5.051,0-10.102,0-15.153c-0.833,0.833-1.667,1.667-2.5,2.5c10.444,0,20.889,0,31.333,0c-0.833-0.833-1.667-1.667-2.5-2.5
						c0,5.051,0,10.102,0,15.153c0,3.224,5,3.224,5,0c0-5.051,0-10.102,0-15.153c0-1.363-1.138-2.5-2.5-2.5
						c-10.444,0-20.889,0-31.333,0c-1.363,0-2.5,1.137-2.5,2.5c0,5.051,0,10.102,0,15.153c0,1.363,1.137,2.5,2.5,2.5
						c10.444,0,20.889,0,31.333,0C686.372,369.99,686.372,364.99,683.147,364.99z"/>
				</g>
			</g>
		</g>
	</g>
</g>
<g id="kikd" display="none">
	<g>
		<g display="inline">
			<path fill="#282828" d="M525.455,281.661c10.853,1.459,21.034,4.697,30.377,10.47c9.183,5.674,16.727,13.678,23.533,21.955
				c2.05,2.493,5.565-1.066,3.535-3.535c-14.802-18-32.636-30.555-56.115-33.711C523.634,276.416,522.272,281.233,525.455,281.661
				L525.455,281.661z"/>
		</g>
	</g>
	<g>
		<g display="inline">
			<path fill="#282828" d="M586.865,321.305c3.225,0,3.225-5,0-5S583.641,321.305,586.865,321.305L586.865,321.305z"/>
		</g>
	</g>
	<g display="inline">
		<path fill="#97B6EC" d="M536.775,664.587c0,20.988-20.369,37.999-45.5,37.999c-25.129,0-45.5-17.011-45.5-37.999"/>
		<g>
			<path fill="#282828" d="M534.275,664.587c-0.909,46.883-85.091,46.882-86,0c-0.063-3.22-5.063-3.227-5,0
				c0.489,25.219,24.856,40.187,48,40.499c23.146,0.313,47.52-15.734,48-40.499C539.338,661.36,534.338,661.367,534.275,664.587
				L534.275,664.587z"/>
		</g>
	</g>
	<g display="inline">
		<path fill="#97B6EC" d="M553.275,622.788v27.799c0,7.7-6.3,14-14,14h-96c-7.7,0-14-6.3-14-14V623.4"/>
		<g>
			<path fill="#282828" d="M550.775,622.788c0,5.94,0,11.882,0,17.822c0,7.589,1.33,15.892-6.455,20.308
				c-3.062,1.736-7.661,1.169-11.082,1.169c-5.989,0-11.979,0-17.968,0c-15.997,0-31.994,0-47.99,0c-5.989,0-11.979,0-17.967,0
				c-3.708,0-7.62,0.396-11.082-1.169c-7.756-3.507-6.456-12.608-6.456-19.521c0-5.999,0-11.998,0-17.997c0-3.225-5-3.225-5,0
				c0,5.999,0,11.998,0,17.997c0,6.587-0.76,13.193,3.204,18.909c6.175,8.903,18.936,6.78,28.296,6.78c26.715,0,53.43,0,80.145,0
				c10.116,0,17.355-7.566,17.355-17.588c0-8.903,0-17.808,0-26.711C555.775,619.563,550.775,619.563,550.775,622.788
				L550.775,622.788z"/>
		</g>
	</g>
	<g display="inline">
		<path fill="#97B6EC" d="M567.261,605.698v16.888c0,7.7-6.3,14-14,14H429.29c-7.7,0-14-6.3-14-14v-16.434"/>
		<g>
			<path fill="#282828" d="M564.761,605.698c0,5.604,0,11.21,0,16.814c0,7.601-6.394,11.573-13.232,11.573
				c-10.434,0-20.867,0-31.301,0c-28.573,0-57.146,0-85.72,0c-5.167,0-9.685,0.253-13.775-3.838
				c-3.561-3.561-2.942-8.874-2.942-13.446c0-3.55,0-7.1,0-10.649c0-3.225-5-3.225-5,0c0,5.478,0,10.956,0,16.434
				c0,8.986,7.574,16.5,16.542,16.5c7.87,0,15.739,0,23.608,0c29.803,0,59.605,0,89.407,0c6.17,0,12.731,0.748,18.481-1.852
				c11.726-5.302,8.932-21.24,8.932-31.536C569.761,602.474,564.761,602.474,564.761,605.698L564.761,605.698z"/>
		</g>
	</g>
	<g display="inline">
		<path fill="#97B6EC" d="M566.453,607.767c30.479-23.608,51.236-62.092,51.236-104.211c0-71.412-56.599-129.303-126.414-129.303
			c-69.816,0-126.414,57.891-126.414,129.303c0,40.988,20.125,79.001,49.214,102.69"/>
		<g>
			<path fill="#282828" d="M568.221,609.534c39.592-31.042,58.716-82.319,49.51-131.69c-8.024-43.03-38.202-79.723-78.407-96.611
				c-41.184-17.3-89.63-10.212-125.01,16.599c-35.913,27.216-55.169,72.238-51.449,116.965c2.999,36.051,21.625,70.29,49.443,93.217
				c2.467,2.033,6.025-1.482,3.535-3.535c-40.456-33.344-57.896-88.18-42.937-138.547c12.988-43.729,49.939-77.634,94.546-86.844
				c45.598-9.414,93.122,9.633,121.341,46.193c30.63,39.683,34.345,94.674,11.135,138.785
				c-8.583,16.313-20.758,30.576-35.242,41.933C562.149,607.987,565.715,611.5,568.221,609.534L568.221,609.534z"/>
		</g>
	</g>
	<g display="inline">
		<g>
			<g>
				<path fill="#282828" d="M345.644,348.536c11.633,11.633,23.266,23.267,34.899,34.899c2.282,2.282,5.817-1.253,3.535-3.535
					c-11.633-11.633-23.266-23.267-34.899-34.899C346.897,342.719,343.361,346.254,345.644,348.536L345.644,348.536z"/>
			</g>
		</g>
		<g>
			<g>
				<path fill="#282828" d="M619.457,383.436c11.633-11.633,23.267-23.266,34.899-34.899c2.282-2.282-1.254-5.817-3.535-3.535
					c-11.634,11.633-23.267,23.266-34.899,34.899C613.64,382.182,617.176,385.718,619.457,383.436L619.457,383.436z"/>
			</g>
		</g>
		<g>
			<g>
				<path fill="#282828" d="M494.904,346.769c0.008-16.452,0.016-32.903,0.023-49.354c0.001-3.225-4.999-3.224-5,0
					c-0.008,16.452-0.016,32.903-0.023,49.354C489.903,349.993,494.903,349.993,494.904,346.769L494.904,346.769z"/>
			</g>
		</g>
	</g>
	<g display="inline">
		<g>
			<g>
				<path fill="#282828" d="M582.85,440.13c-17.841-24.631-43.272-42.554-72.747-50.315c-3.122-0.822-4.445,4.001-1.33,4.821
					c28.155,7.414,52.693,24.455,69.759,48.017C580.403,445.238,584.744,442.747,582.85,440.13L582.85,440.13z"/>
			</g>
		</g>
		<g>
			<g>
				<path fill="#282828" d="M587.722,454.849c3.225,0,3.225-5,0-5S584.497,454.849,587.722,454.849L587.722,454.849z"/>
			</g>
		</g>
	</g>
	<path display="inline" fill="none" stroke="#282828" stroke-miterlimit="10" d="M513.942,393.478"/>
</g>
<g id="Layer_6" display="none">
</g>
<g id="Layer_8">
	<g>
		<g>
			<path fill="#FF9F98" d="M273.8,532.703c0,0-4.801-1.078-10.669-2.396s-10.669-10.046-10.669-19.396v-38.833
				c0-9.35,4.801-18.188,10.669-19.641c5.868-1.452,10.669-2.641,10.669-2.641"/>
			<g>
				<path fill="#282828" d="M274.465,530.292c-4.203-0.943-10.047-1.166-13.482-3.824c-4.507-3.49-6.021-10.493-6.021-15.847
					c0-6.211,0-12.421,0-18.632c0-6.466,0-12.933,0-19.399c0-5.531,1.446-11.118,5.131-15.361c3.129-3.604,9.915-3.918,14.371-5.021
					c3.129-0.774,1.801-5.596-1.329-4.821c-4.753,1.176-10.837,1.579-14.758,4.705c-4.954,3.95-7.67,10.508-8.222,16.72
					c-0.651,7.33-0.193,14.843-0.193,22.191c0,7.178-0.166,14.377,0.049,21.553c0.19,6.383,2.77,13.039,7.436,17.448
					c3.951,3.734,10.622,3.974,15.688,5.111C276.276,535.819,277.61,530.999,274.465,530.292L274.465,530.292z"/>
			</g>
		</g>
		<g>
			<path fill="#FF9F98" d="M341.815,675.25c0,7.7-6.3,14-14,14h-6.396c-7.7,0-14-6.3-14-14v-81.266c0-7.7,6.3-14,14-14h6.396
				c7.7,0,14,6.3,14,14V675.25z"/>
			<g>
				<path fill="#282828" d="M339.315,675.25c-0.548,11.435-15.423,14.595-24.048,9.702c-5.505-3.122-5.347-9.105-5.347-14.487
					c0-14.271,0-28.541,0-42.812c0-11.138,0-22.275,0-33.413c0-4.658,2.479-8.332,6.456-10.587c3.232-1.833,7.859-1.169,11.44-1.169
					c8.462,0,11.5,7.351,11.5,14.465C339.315,623.05,339.315,649.149,339.315,675.25c0,3.225,5,3.225,5,0
					c0-24.764,0-49.527,0-74.291c0-3.442,0.151-6.878-0.343-10.291c-1.403-9.701-10.89-13.184-19.355-13.184
					c-9.132,0-17.02,3.578-19.355,13.184c-0.78,3.208-0.343,7.032-0.343,10.291c0,22.438,0,44.878,0,67.316
					c0,9.016,0.497,17.809,10.099,22.15c4.623,2.091,11.174,1.695,16.113,0.981c7.838-1.134,12.83-8.773,13.184-16.157
					C344.47,672.025,339.469,672.041,339.315,675.25z"/>
			</g>
		</g>
		<g>
			<path fill="#FECFCC" d="M301.194,567.633c0,0-7.16-1.986-15.91-4.414s-15.91-12.064-15.91-21.414V441.6
				c0-9.35,7.16-19.19,15.911-21.866s15.911-4.866,15.911-4.866"/>
			<g>
				<path fill="#282828" d="M301.858,565.222c-11.474-3.183-23.913-4.658-28.819-17.133c-1.45-3.687-1.166-7.685-1.166-11.56
					c0-13.451,0-26.902,0-40.353c0-14.761,0-29.521,0-44.282c0-3.324,0-6.648,0-9.972c0-4.124,1.387-7.795,3.501-11.283
					c4.309-7.111,11.685-8.834,19.088-11.098c2.465-0.754,4.931-1.508,7.397-2.263c3.074-0.94,1.763-5.767-1.329-4.821
					c-9.809,3-20.344,4.681-27.354,12.776c-4.346,5.019-6.303,11.348-6.303,17.884c0,11.443,0,22.886,0,34.329
					c0,15.663,0,31.326,0,46.989c0,9.822-1.396,20.569,3.421,29.509c6.109,11.337,18.98,12.977,30.234,16.1
					C303.642,570.907,304.961,566.083,301.858,565.222L301.858,565.222z"/>
			</g>
		</g>
		<g>
			<path fill="#FECFCC" d="M636.117,654.75c0,9.35-7.459,15.302-16.576,13.227l-308.848-70.315
				c-9.117-2.075-16.576-11.424-16.576-20.773V413.612c0-9.35,7.42-18.863,16.488-21.14l309.023-77.583
				c9.068-2.277,16.488,3.51,16.488,12.86V654.75z"/>
			<g>
				<path fill="#282828" d="M633.617,654.75c-0.315,7.864-6.353,12.423-13.99,10.684c-1.577-0.358-3.153-0.718-4.729-1.076
					c-7.291-1.66-14.582-3.32-21.872-4.979c-26.123-5.947-52.245-11.895-78.367-17.842c-58.315-13.277-116.631-26.554-174.946-39.83
					c-7.491-1.706-14.982-3.411-22.474-5.117c-8.363-1.903-15.646-4.444-19.402-13.468c-2.541-6.104-1.219-14.938-1.219-21.34
					c0-13.484,0-26.969,0-40.454c0-30.245,0-60.489,0-90.734c0-6.118-0.185-12.268,0.055-18.383
					c0.438-11.202,10.292-16.245,19.592-18.58c48.869-12.269,97.739-24.538,146.608-36.807
					c50.228-12.61,100.455-25.22,150.683-37.83c6.022-1.512,12.517-4.017,17.602,1.304c3.365,3.521,2.46,10.605,2.46,15.191
					c0,20.325,0,40.649,0,60.974c0,62.916,0,125.831,0,188.746C633.617,608.388,633.617,631.568,633.617,654.75c0,3.225,5,3.225,5,0
					c0-39.522,0-79.045,0-118.566c0-59.634,0-119.267,0-178.9c0-7.691,0-15.382,0-23.074c0-5.604,0.389-11.04-2.82-16.037
					c-4.823-7.509-13.426-6.549-20.802-4.697c-6.731,1.69-13.462,3.38-20.193,5.069c-57.199,14.36-114.398,28.721-171.598,43.082
					c-26.958,6.768-53.917,13.536-80.875,20.304c-8.118,2.038-16.235,4.076-24.353,6.114c-4.252,1.067-8.587,1.906-12.582,3.757
					c-8.052,3.731-13.776,13.167-13.776,21.939c0,2.064,0,4.128,0,6.192c0,11.22,0,22.44,0,33.66c0,31.377,0,62.754,0,94.131
					c0,9.056,0,18.11,0,27.165c0,11.527,6.984,22.581,18.738,25.257c13.614,3.1,27.227,6.198,40.841,9.298
					c60.103,13.684,120.205,27.367,180.307,41.051c23.1,5.259,46.199,10.519,69.299,15.777c5.386,1.226,10.771,2.452,16.155,3.678
					c11.177,2.545,21.165-2.881,21.659-15.2C638.746,651.524,633.746,651.537,633.617,654.75z"/>
			</g>
		</g>
		<g>
			<path fill="#FF9F98" d="M351.115,606.863l-40.421-9.202c-9.117-2.075-16.576-11.424-16.576-20.773V413.612
				c0-9.35,7.42-18.863,16.488-21.14l40.512-10.17"/>
			<g>
				<path fill="#282828" d="M351.779,604.452c-11.989-2.729-23.979-5.458-35.968-8.188c-8.46-1.927-15.394-5.572-18.434-14.49
					c-0.94-2.759-0.759-5.73-0.759-8.6c0-25.809,0-51.617,0-77.425c0-26.03,0-52.061,0-78.091c0-2.555-0.088-5.048,0.392-7.576
					c1.785-9.388,9.686-14.052,18.11-16.167c12.21-3.065,24.421-6.131,36.632-9.196c0.01-0.003,0.02-0.005,0.03-0.008
					c3.126-0.785,1.799-5.607-1.329-4.821c-12.016,3.017-24.032,6.033-36.049,9.05c-6.807,1.709-12.534,4.037-17.211,9.681
					c-3.786,4.568-5.576,10.26-5.576,16.127c0,23.343,0,46.687,0,70.03c0,28.007,0,56.014,0,84.02
					c0,10.423,0.698,19.675,9.707,26.995c4.636,3.767,10.324,4.646,15.945,5.927c7.567,1.723,15.134,3.445,22.701,5.168
					c3.493,0.795,6.986,1.59,10.479,2.386C353.589,609.988,354.923,605.168,351.779,604.452L351.779,604.452z"/>
			</g>
		</g>
		<g>
			<path fill="#97B6EC" d="M351.115,606.863"/>
			<g>
				<path fill="#282828" d="M351.115,609.363c3.224,0,3.224-5,0-5S347.891,609.363,351.115,609.363L351.115,609.363z"/>
			</g>
		</g>
		<g>
			<path fill="#97B6EC" d="M610.117,665.831"/>
			<g>
				<path fill="#282828" d="M610.117,668.331c3.225,0,3.225-5,0-5S606.893,668.331,610.117,668.331L610.117,668.331z"/>
			</g>
		</g>
		<g>
			<line fill="#97B6EC" x1="607.496" y1="317.936" x2="607.496" y2="665.234"/>
			<g>
				<path fill="#282828" d="M604.996,317.936c0,38.081,0,76.162,0,114.243c0,61.853,0,123.706,0,185.559c0,15.833,0,31.665,0,47.497
					c0,3.225,5,3.225,5,0c0-38.081,0-76.162,0-114.243c0-61.853,0-123.706,0-185.559c0-15.832,0-31.665,0-47.497
					C609.996,314.711,604.996,314.711,604.996,317.936L604.996,317.936z"/>
			</g>
		</g>
		<g>
			<line fill="#97B6EC" x1="351.115" y1="383.667" x2="351.115" y2="604.583"/>
			<g>
				<path fill="#282828" d="M348.615,383.667c0,47.973,0,95.946,0,143.919c0,25.666,0,51.331,0,76.997c0,3.225,5,3.225,5,0
					c0-47.974,0-95.946,0-143.92c0-25.666,0-51.331,0-76.997C353.615,380.442,348.615,380.442,348.615,383.667L348.615,383.667z"/>
			</g>
		</g>
		<g>
			<g>
				<g>
					<path fill="#282828" d="M699.779,356.041c-10.841,10.841-21.682,21.682-32.521,32.523c-2.282,2.282,1.254,5.817,3.535,3.535
						c10.841-10.841,21.682-21.682,32.521-32.523C705.597,357.294,702.061,353.759,699.779,356.041L699.779,356.041z"/>
				</g>
			</g>
			<g>
				<g>
					<path fill="#282828" d="M667.258,611.438c10.84,10.841,21.681,21.681,32.521,32.521c2.281,2.282,5.817-1.254,3.535-3.535
						c-10.84-10.84-21.681-21.681-32.521-32.521C668.512,605.621,664.976,609.157,667.258,611.438L667.258,611.438z"/>
				</g>
			</g>
			<g>
				<g>
					<path fill="#282828" d="M701.547,495.422c15.33,0.007,30.66,0.015,45.99,0.022c3.225,0.001,3.225-4.999,0-5
						c-15.33-0.007-30.66-0.015-45.99-0.022C698.322,490.421,698.322,495.421,701.547,495.422L701.547,495.422z"/>
				</g>
			</g>
			<g>
				<g>
					<path fill="#282828" d="M693.695,439.303c13.979-6.295,27.957-12.589,41.936-18.884c2.936-1.322,0.392-5.63-2.523-4.317
						c-13.979,6.295-27.957,12.589-41.936,18.884C688.236,436.308,690.78,440.615,693.695,439.303L693.695,439.303z"/>
				</g>
			</g>
			<g>
				<g>
					<path fill="#282828" d="M735.631,565.691c-13.979-6.294-27.957-12.589-41.936-18.883c-2.915-1.313-5.459,2.995-2.523,4.316
						c13.979,6.295,27.957,12.59,41.936,18.885C736.022,571.322,738.566,567.014,735.631,565.691L735.631,565.691z"/>
				</g>
			</g>
		</g>
	</g>
</g>
<g id="Layer_7">
</g>
</svg>
