<?xml version="1.0" encoding="utf-8"?>
<!-- Generator: Adobe Illustrator 22.1.0, SVG Export Plug-In . SVG Version: 6.00 Build 0)  -->
<svg version="1.1" xmlns="http://www.w3.org/2000/svg" xmlns:xlink="http://www.w3.org/1999/xlink" x="0px" y="0px"
	 viewBox="0 0 1366 768" enable-background="new 0 0 1366 768" xml:space="preserve">
<g id="Layer_1">
	<rect x="0.5" y="0.5" fill="#EDE6DD" width="1365" height="768"/>
	<g>
		<g>
			<line fill="none" stroke="#27333F" stroke-width="0.5" stroke-miterlimit="10" x1="1311.6" y1="0.5" x2="1311.6" y2="768"/>
		</g>
		<g>
			<line fill="none" stroke="#27333F" stroke-width="0.5" stroke-miterlimit="10" x1="1227.6" y1="0.5" x2="1227.6" y2="768"/>
		</g>
		<g>
			<line fill="none" stroke="#27333F" stroke-width="0.5" stroke-miterlimit="10" x1="1143.6" y1="0.5" x2="1143.6" y2="768"/>
		</g>
		<g>
			<line fill="none" stroke="#27333F" stroke-width="0.5" stroke-miterlimit="10" x1="1059.6" y1="0.5" x2="1059.6" y2="768"/>
		</g>
		<g>
			<line fill="none" stroke="#27333F" stroke-width="0.5" stroke-miterlimit="10" x1="975.6" y1="0.5" x2="975.6" y2="768"/>
		</g>
		<g>
			<line fill="none" stroke="#27333F" stroke-width="0.5" stroke-miterlimit="10" x1="891.6" y1="0.5" x2="891.6" y2="768"/>
		</g>
		<g>
			<line fill="none" stroke="#27333F" stroke-width="0.5" stroke-miterlimit="10" x1="807.6" y1="0.5" x2="807.6" y2="768"/>
		</g>
		<g>
			<line fill="none" stroke="#27333F" stroke-width="0.5" stroke-miterlimit="10" x1="723.6" y1="0.5" x2="723.6" y2="768"/>
		</g>
		<g>
			<line fill="none" stroke="#27333F" stroke-width="0.5" stroke-miterlimit="10" x1="639.6" y1="0.5" x2="639.6" y2="768"/>
		</g>
		<g>
			<line fill="none" stroke="#27333F" stroke-width="0.5" stroke-miterlimit="10" x1="555.6" y1="0.5" x2="555.6" y2="768"/>
		</g>
		<g>
			<line fill="none" stroke="#27333F" stroke-width="0.5" stroke-miterlimit="10" x1="471.6" y1="0.5" x2="471.6" y2="768"/>
		</g>
		<g>
			<line fill="none" stroke="#27333F" stroke-width="0.5" stroke-miterlimit="10" x1="387.6" y1="0.5" x2="387.6" y2="768"/>
		</g>
		<g>
			<line fill="none" stroke="#27333F" stroke-width="0.5" stroke-miterlimit="10" x1="303.6" y1="0.5" x2="303.6" y2="768"/>
		</g>
		<g>
			<line fill="none" stroke="#27333F" stroke-width="0.5" stroke-miterlimit="10" x1="219.6" y1="0.5" x2="219.6" y2="768"/>
		</g>
		<g>
			<line fill="none" stroke="#27333F" stroke-width="0.5" stroke-miterlimit="10" x1="135.6" y1="0.5" x2="135.6" y2="768"/>
		</g>
		<g>
			<line fill="none" stroke="#27333F" stroke-width="0.5" stroke-miterlimit="10" x1="51.6" y1="0.5" x2="51.6" y2="768"/>
		</g>
	</g>
	<g>
		<g>
			<line fill="none" stroke="#27333F" stroke-width="0.5" stroke-miterlimit="10" x1="0.5" y1="711.1" x2="1366" y2="711.1"/>
		</g>
		<g>
			<line fill="none" stroke="#27333F" stroke-width="0.5" stroke-miterlimit="10" x1="0.5" y1="630.1" x2="1366" y2="630.1"/>
		</g>
		<g>
			<line fill="none" stroke="#27333F" stroke-width="0.5" stroke-miterlimit="10" x1="0.5" y1="549.1" x2="1366" y2="549.1"/>
		</g>
		<g>
			<line fill="none" stroke="#27333F" stroke-width="0.5" stroke-miterlimit="10" x1="0.5" y1="468.1" x2="1366" y2="468.1"/>
		</g>
		<g>
			<line fill="none" stroke="#27333F" stroke-width="0.5" stroke-miterlimit="10" x1="0.5" y1="387.1" x2="1366" y2="387.1"/>
		</g>
		<g>
			<line fill="none" stroke="#27333F" stroke-width="0.5" stroke-miterlimit="10" x1="0.5" y1="306.1" x2="1366" y2="306.1"/>
		</g>
		<g>
			<line fill="none" stroke="#27333F" stroke-width="0.5" stroke-miterlimit="10" x1="0.5" y1="225.1" x2="1366" y2="225.1"/>
		</g>
		<g>
			<line fill="none" stroke="#27333F" stroke-width="0.5" stroke-miterlimit="10" x1="0.5" y1="144.1" x2="1366" y2="144.1"/>
		</g>
		<g>
			<line fill="none" stroke="#27333F" stroke-width="0.5" stroke-miterlimit="10" x1="0.5" y1="63.1" x2="1366" y2="63.1"/>
		</g>
	</g>
</g>
<g id="Layer_2" display="none">
	
		<image display="inline" overflow="visible" width="370" height="370" xlink:href="C:\Users\user\Downloads\afed069693e872ef50117bdf37182f83.jpg"  transform="matrix(1 0 0 1 380 201)">
	</image>
</g>
</svg>
