<?xml version="1.0" encoding="utf-8"?>
<!-- Generator: Adobe Illustrator 22.1.0, SVG Export Plug-In . SVG Version: 6.00 Build 0)  -->
<svg version="1.1" xmlns="http://www.w3.org/2000/svg" xmlns:xlink="http://www.w3.org/1999/xlink" x="0px" y="0px"
	 viewBox="0 0 30 30" enable-background="new 0 0 30 30" xml:space="preserve">
<g id="Layer_2" display="none">
	<rect x="-2.2" y="-1.1" display="inline" fill="#0F0F0F" width="38" height="36.6"/>
</g>
<g id="Layer_1">
	<path fill="none" stroke="#FFFFFF" stroke-miterlimit="10" d="M11.7,28.9c0,0.6-0.5,0.7-1,0.7c-0.4,0-0.9,0-1.3,0
		c-1.1,0-2.2,0-3.2,0c-0.3,0-0.5,0-0.8,0c-0.3-0.1-0.5-0.4-0.5-0.7c0-0.3,0-0.6,0-1c0-3.7,0-7.5,0-11.2c0-4.2,0-8.5,0-12.7
		c0-0.9,0-1.8,0-2.7c0-0.9,0.9-0.7,1.5-0.7c1.1,0,2.2,0,3.3,0c0.6,0,2-0.2,2,0.7c0,0.2,0,0.5,0,0.7c0,1.4,0,2.8,0,4.2
		c0,4.5,0,9,0,13.5c0,3.1,0,6.1,0,9.2C11.7,28.7,11.7,28.8,11.7,28.9c0,0.2,0.4,0.2,0.4,0c0-2.5,0-5.1,0-7.6c0-4.6,0-9.2,0-13.7
		c0-1.6,0-3.3,0-4.9c0-0.8,0.3-2.3-0.9-2.5c-0.2,0-0.5,0-0.7,0c-0.5,0-1,0-1.5,0c-1,0-2,0-3.1,0c-0.3,0-0.7,0-0.9,0.2
		C4.7,0.5,4.6,0.8,4.6,1.2c0,0.3,0,0.6,0,0.9c0,3.7,0,7.3,0,11c0,4.3,0,8.6,0,12.9c0,1,0,1.9,0,2.9c0,0.7,0.5,1.1,1.2,1.1
		c1,0,1.9,0,2.9,0c0.7,0,1.4,0,2.1,0c0.1,0,0.3,0,0.4,0c0.5-0.1,0.9-0.5,0.9-1C12.1,28.6,11.7,28.6,11.7,28.9z"/>
	<g>
		<path fill="none" stroke="#FFFFFF" stroke-miterlimit="10" d="M18.9,28.9c0,0.6-0.5,0.7-1,0.7c-0.4,0-0.9,0-1.3,0
			c-1.1,0-2.2,0-3.2,0c-0.3,0-0.6,0-0.9-0.1c-0.3-0.1-0.3-0.4-0.3-0.7c0-0.4,0-0.8,0-1.2c0-4.1,0-8.3,0-12.4c0-2,0-4,0-6
			c0-0.6,0-1.2,0-1.8c0-0.4-0.1-0.8,0.2-1.1C12.6,6,13,6,13.3,6c0.5,0,1,0,1.5,0c1,0,2.1,0,3.1,0c0.4,0,0.8,0,1,0.5
			c0,0.1,0,0.3,0,0.4c0,0.4,0,0.9,0,1.3c0,4.2,0,8.3,0,12.5C18.9,23.4,18.9,26.2,18.9,28.9c0,0.2,0.4,0.2,0.4,0c0-2.9,0-5.9,0-8.8
			c0-4.1,0-8.1,0-12.2c0-0.4,0-0.7,0-1.1c0-0.3-0.1-0.6-0.3-0.8c-0.3-0.3-0.6-0.3-1-0.3c-1,0-2,0-3,0c-0.7,0-1.5,0-2.2,0
			c-0.7,0-0.9,0.7-0.9,1.3c0,0.5,0,1,0,1.5c0,1.9,0,3.8,0,5.7c0,4.3,0,8.6,0,12.8c0,0.5,0,1.1,0,1.6c0,0.5,0.1,1.1,0.6,1.3
			c0.3,0.1,0.6,0.1,0.8,0.1c0.5,0,0.9,0,1.4,0c1,0,2.1,0,3.1,0c0.1,0,0.3,0,0.4,0c0.6,0,1-0.5,1-1C19.2,28.6,18.9,28.6,18.9,28.9z"
			/>
	</g>
	<g>
		<g>
			<path fill="none" stroke="#FFFFFF" stroke-miterlimit="10" d="M15.2,10.9c0,3.5,0,7,0,10.6c0,1.4,0,2.7,0,4.1
				c0,0.2,0.4,0.2,0.4,0c0-3.5,0-7,0-10.6c0-1.4,0-2.7,0-4.1C15.5,10.6,15.2,10.6,15.2,10.9L15.2,10.9z"/>
		</g>
	</g>
	<g>
		<g>
			<path fill="none" stroke="#FFFFFF" stroke-miterlimit="10" d="M6.9,5.3c1,0,1.9,0,2.9,0c0.1,0,0.1-0.3,0-0.3c-1,0-1.9,0-2.9,0
				C6.8,5,6.8,5.3,6.9,5.3L6.9,5.3z"/>
		</g>
	</g>
	<g>
		<path fill="none" stroke="#FFFFFF" stroke-miterlimit="10" d="M26,28.9c0,0.6-0.5,0.7-1,0.7c-0.4,0-0.9,0-1.3,0
			c-1.1,0-2.2,0-3.2,0c-0.3,0-0.6,0-0.9-0.1c-0.2-0.1-0.3-0.4-0.3-0.7c0-0.3,0-0.7,0-1c0-3.8,0-7.5,0-11.3c0-4.2,0-8.5,0-12.7
			c0-0.9,0-1.7,0-2.6c0-0.9,1-0.7,1.6-0.7c1.1,0,2.2,0,3.3,0c0.6,0,1.8-0.2,1.8,0.7c0,0.2,0,0.5,0,0.7c0,1.4,0,2.8,0,4.2
			c0,4.5,0,9,0,13.6c0,3,0,6,0,9.1C26,28.8,26,28.8,26,28.9c0,0.2,0.4,0.2,0.4,0c0-2.5,0-5.1,0-7.6c0-4.6,0-9.2,0-13.7
			c0-1.6,0-3.3,0-4.9c0-0.8,0.3-2.3-0.9-2.5c-0.2,0-0.5,0-0.7,0c-0.5,0-1,0-1.5,0c-1,0-2,0-3.1,0c-0.3,0-0.7,0-0.9,0.2
			c-0.3,0.2-0.4,0.5-0.4,0.9c0,0.3,0,0.6,0,0.9c0,3.7,0,7.3,0,11c0,4.3,0,8.6,0,12.9c0,1,0,1.9,0,2.9c0,0.7,0.5,1.1,1.2,1.1
			c1,0,1.9,0,2.9,0c0.7,0,1.4,0,2.1,0c0.1,0,0.3,0,0.4,0c0.5-0.1,0.9-0.5,0.9-1C26.3,28.7,26,28.7,26,28.9z"/>
	</g>
	<g>
		<g>
			<path fill="none" stroke="#FFFFFF" stroke-miterlimit="10" d="M19.7,4.8c1.9,0,3.8,0,5.6,0c0.2,0,0.2-0.4,0-0.4
				c-1.9,0-3.8,0-5.6,0C19.5,4.4,19.5,4.8,19.7,4.8L19.7,4.8z"/>
		</g>
	</g>
	<g>
		<g>
			<path fill="none" stroke="#FFFFFF" stroke-miterlimit="10" d="M19.7,25.9c1.9,0,3.8,0,5.6,0c0.2,0,0.2-0.4,0-0.4
				c-1.9,0-3.8,0-5.6,0C19.5,25.5,19.5,25.9,19.7,25.9L19.7,25.9z"/>
		</g>
	</g>
	<g>
		<g>
			<path fill="none" stroke="#FFFFFF" stroke-miterlimit="10" d="M19.7,15.7c1.9,0,3.8,0,5.6,0c0.2,0,0.2-0.4,0-0.4
				c-1.9,0-3.8,0-5.6,0C19.5,15.3,19.5,15.7,19.7,15.7L19.7,15.7z"/>
		</g>
	</g>
	<g>
		<g>
			<path fill="none" stroke="#FFFFFF" stroke-miterlimit="10" d="M6.9,8.5c1,0,1.9,0,2.9,0c0.1,0,0.1-0.3,0-0.3c-1,0-1.9,0-2.9,0
				C6.8,8.2,6.8,8.5,6.9,8.5L6.9,8.5z"/>
		</g>
	</g>
</g>
</svg>
