<svg id="Layer_1" data-name="Layer 1" xmlns="http://www.w3.org/2000/svg" viewBox="0 0 1551.69 561.75"><title>peta_konsep</title><rect x="2.5" y="244.88" width="214.75" height="70.49" fill="#ff9f98" stroke="#231f20" stroke-miterlimit="10" stroke-width="5"/><text transform="translate(25.45 289.57)" opacity="0.97" font-size="24" font-family="Poppins-Regular, Poppins">Perbandingan</text><rect x="381.5" y="244.5" width="295.69" height="70.49" fill="#ff9f98" stroke="#231f20" stroke-miterlimit="10" stroke-width="5"/><text transform="translate(404.45 289.19)" opacity="0.97" font-size="24" font-family="Poppins-Regular, Poppins">Perbandingan Senilai</text><rect x="381.5" y="123.5" width="373.69" height="70.49" fill="#ff9f98" stroke="#231f20" stroke-miterlimit="10" stroke-width="5"/><text transform="translate(404.45 168.19)" opacity="0.97" font-size="24" font-family="Poppins-Regular, Poppins">Perbandingan Dua Besaran</text><rect x="381.5" y="2.5" width="355.69" height="70.49" fill="#ff9f98" stroke="#231f20" stroke-miterlimit="10" stroke-width="5"/><text transform="translate(404.45 47.19)" opacity="0.97" font-size="24" font-family="Poppins-Regular, Poppins">Pengertian Perbandingan</text><rect x="381.5" y="486.5" width="373.69" height="70.49" fill="#ff9f98" stroke="#231f20" stroke-miterlimit="10" stroke-width="5"/><text transform="translate(404.45 531.19)" opacity="0.97" font-size="24" font-family="Poppins-Regular, Poppins">Perbandingan Berbalik Nilai</text><rect x="381.5" y="365.5" width="107.38" height="70.49" fill="#ff9f98" stroke="#231f20" stroke-miterlimit="10" stroke-width="5"/><text transform="translate(404.45 410.19)" opacity="0.97" font-size="24" font-family="Poppins-Regular, Poppins">Skala</text><rect x="931.28" y="245.25" width="251.69" height="70.49" fill="#ff9f98" stroke="#231f20" stroke-miterlimit="10" stroke-width="5"/><text transform="translate(954.23 289.94)" opacity="0.97" font-size="24" font-family="Poppins-Regular, Poppins">Latihan Sub Bab 3</text><rect x="931.28" y="123.5" width="251.69" height="70.49" fill="#ff9f98" stroke="#231f20" stroke-miterlimit="10" stroke-width="5"/><text transform="translate(954.23 168.19)" opacity="0.97" font-size="24" font-family="Poppins-Regular, Poppins">Latihan Sub Bab 2</text><rect x="931.28" y="488.76" width="251.69" height="70.49" fill="#ff9f98" stroke="#231f20" stroke-miterlimit="10" stroke-width="5"/><text transform="translate(954.23 533.45)" opacity="0.97" font-size="24" font-family="Poppins-Regular, Poppins">Latihan Sub Bab 5</text><rect x="931.28" y="367.01" width="251.69" height="70.49" fill="#ff9f98" stroke="#231f20" stroke-miterlimit="10" stroke-width="5"/><text transform="translate(954.23 411.7)" opacity="0.97" font-size="24" font-family="Poppins-Regular, Poppins">Latihan Sub Bab 4</text><rect x="931.28" y="2.5" width="251.69" height="70.49" fill="#ff9f98" stroke="#231f20" stroke-miterlimit="10" stroke-width="5"/><text transform="translate(954.23 47.19)" opacity="0.97" font-size="24" font-family="Poppins-Regular, Poppins">Latihan Sub Bab 1</text><rect x="1407.28" y="244.5" width="141.91" height="70.49" fill="#ff9f98" stroke="#231f20" stroke-miterlimit="10" stroke-width="5"/><text transform="translate(1430.23 289.19)" opacity="0.97" font-size="24" font-family="Poppins-Regular, Poppins">Evaluasi</text><line x1="217.25" y1="279.75" x2="381.5" y2="279.75" fill="#97b6ec" stroke="#231f20" stroke-miterlimit="10" stroke-width="5"/><line x1="217.25" y1="315.37" x2="381.5" y2="521.75" fill="#97b6ec" stroke="#231f20" stroke-miterlimit="10" stroke-width="5"/><line x1="217.25" y1="289.94" x2="381.5" y2="400.75" fill="#97b6ec" stroke="#231f20" stroke-miterlimit="10" stroke-width="5"/><line x1="217.25" y1="244.88" x2="381.5" y2="37.75" fill="#97b6ec" stroke="#231f20" stroke-miterlimit="10" stroke-width="5"/><line x1="217.25" y1="263.88" x2="381.5" y2="158.75" fill="#97b6ec" stroke="#231f20" stroke-miterlimit="10" stroke-width="5"/><line x1="737.19" y1="37.75" x2="931.28" y2="37.75" fill="#97b6ec" stroke="#231f20" stroke-miterlimit="10" stroke-width="5"/><line x1="755.19" y1="158.75" x2="931.28" y2="158.75" fill="#97b6ec" stroke="#231f20" stroke-miterlimit="10" stroke-width="5"/><line x1="677.19" y1="279.75" x2="931.28" y2="280.88" fill="#97b6ec" stroke="#231f20" stroke-miterlimit="10" stroke-width="5"/><line x1="488.88" y1="400.75" x2="931.28" y2="400.75" fill="#97b6ec" stroke="#231f20" stroke-miterlimit="10" stroke-width="5"/><line x1="755.19" y1="521.75" x2="931.28" y2="521.75" fill="#97b6ec" stroke="#231f20" stroke-miterlimit="10" stroke-width="5"/><line x1="1182.98" y1="37.75" x2="1407.28" y2="244.5" fill="#97b6ec" stroke="#231f20" stroke-miterlimit="10" stroke-width="5"/><line x1="1182.98" y1="559.25" x2="1407.28" y2="314.99" fill="#97b6ec" stroke="#231f20" stroke-miterlimit="10" stroke-width="5"/><line x1="1182.98" y1="158.75" x2="1407.28" y2="263.88" fill="#97b6ec" stroke="#231f20" stroke-miterlimit="10" stroke-width="5"/><line x1="1182.98" y1="279.75" x2="1407.28" y2="279.75" fill="#97b6ec" stroke="#231f20" stroke-miterlimit="10" stroke-width="5"/><line x1="1182.98" y1="400.75" x2="1407.28" y2="289.94" fill="#97b6ec" stroke="#231f20" stroke-miterlimit="10" stroke-width="5"/></svg>