<svg id="Layer_1" data-name="Layer 1" xmlns="http://www.w3.org/2000/svg" viewBox="0 0 948.63 475.79"><title>rumus_berbalik_nilai</title><rect x="2.5" y="263.92" width="491.59" height="209.38" fill="#ff9f98" stroke="#262626" stroke-linecap="round" stroke-miterlimit="10" stroke-width="5"/><rect x="34.42" y="23.29" width="417.19" height="209.38" fill="#ff9f98" stroke="#262626" stroke-linecap="round" stroke-miterlimit="10" stroke-width="5"/><text transform="translate(159.99 101.4)" font-size="48" fill="#262626" font-family="Poppins-Italic, Poppins" font-style="italic">x</text><text transform="translate(183.9 117.38) scale(0.58)" font-size="48" fill="#262626" font-family="Poppins-Italic, Poppins" font-style="italic">1</text><line x1="140.99" y1="126.06" x2="215.66" y2="126.06" fill="none" stroke="#262626" stroke-miterlimit="10" stroke-width="5"/><text transform="translate(159.99 169.02)" font-size="48" fill="#262626" font-family="Poppins-Italic, Poppins" font-style="italic">x</text><text transform="translate(183.9 185.01) scale(0.58)" font-size="48" fill="#262626" font-family="Poppins-Italic, Poppins" font-style="italic">2</text><text transform="translate(234.12 143.08)" font-size="48" fill="#262626" font-family="Poppins-Medium, Poppins">=</text><text transform="translate(299.93 101.4)" font-size="48" fill="#262626" font-family="Poppins-Italic, Poppins" font-style="italic">y</text><text transform="translate(326.86 117.38) scale(0.58)" font-size="48" fill="#262626" font-family="Poppins-Italic, Poppins" font-style="italic">2</text><line x1="280.93" y1="126.06" x2="355.6" y2="126.06" fill="none" stroke="#262626" stroke-miterlimit="10" stroke-width="5"/><text transform="translate(299.93 169.02)" font-size="48" fill="#262626" font-family="Poppins-Italic, Poppins" font-style="italic">y</text><text transform="translate(326.86 185.01) scale(0.58)" font-size="48" fill="#262626" font-family="Poppins-Italic, Poppins" font-style="italic" letter-spacing="0em">1</text><text transform="translate(39.75 368.61)" font-size="48" fill="#262626" font-family="Poppins-Italic, Poppins" font-style="italic">x</text><text transform="translate(63.65 384.59) scale(0.58)" font-size="48" fill="#262626" font-family="Poppins-Italic, Poppins" font-style="italic">1<tspan x="13.78" y="0" letter-spacing="-0.1em">	</tspan><tspan x="20.75" y="0" letter-spacing="1.04em">	</tspan><tspan x="82.5" y="0">.</tspan><tspan x="90.71" y="0" letter-spacing="0.87em">	</tspan></text><text transform="translate(147.75 368.61)" font-size="48" fill="#262626" font-family="Poppins-Italic, Poppins" font-style="italic">y</text><text transform="translate(174.67 384.59) scale(0.58)" font-size="48" fill="#262626" font-family="Poppins-Italic, Poppins" font-style="italic">1</text><text transform="translate(234.63 386.33)" font-size="48" fill="#262626" font-family="Poppins-Medium, Poppins">=</text><text transform="translate(299.93 368.61)" font-size="48" fill="#262626" font-family="Poppins-Italic, Poppins" font-style="italic">x</text><text transform="translate(323.84 384.59) scale(0.58)" font-size="48" fill="#262626" font-family="Poppins-Italic, Poppins" font-style="italic">2<tspan x="26.88" y="0" letter-spacing="0.91em">	</tspan><tspan x="82.5" y="0">.</tspan><tspan x="90.71" y="0" letter-spacing="0.87em">	</tspan></text><text transform="translate(407.93 368.61)" font-size="48" fill="#262626" font-family="Poppins-Italic, Poppins" font-style="italic">y</text><text transform="translate(434.86 384.59) scale(0.58)" font-size="48" fill="#262626" font-family="Poppins-Italic, Poppins" font-style="italic">2</text><path d="M476.41,397.34a43.53,43.53,0,0,1,29.18-9.17c5.23.31,13.93,1.32,15.85,7.09a9.53,9.53,0,0,1-2,9.24c-.8.93-6.46,6-7.86,3.36-1.1-2.06,2.62-6.2,3.91-7.41a26.27,26.27,0,0,1,6.25-4.18,68.88,68.88,0,0,1,16.57-5.42c11.64-2.43,23.62-2.62,35.46-2.81,3.22-.05,3.23-5.06,0-5-17.89.29-36.67.65-53.23,8.29-5.64,2.59-11.64,6.8-13.43,13.09-1.61,5.64,1.23,10.9,7.61,8.93,12.59-3.89,17.59-21.83,3.67-27.55-14.5-6-32.34-2.09-44.47,7.22-2.52,1.93,0,6.27,2.52,4.32Z" transform="translate(-44.04 -272.39)" fill="#262626"/><path d="M563.85,381.07a27.84,27.84,0,0,1,12,5.06l-.9-3.42-8.93,12.58c-1.86,2.63,2.47,5.13,4.32,2.52l8.93-12.58c.83-1.17.11-2.68-.9-3.42a31.19,31.19,0,0,0-13.23-5.57c-3.15-.53-4.5,4.29-1.33,4.83Z" transform="translate(-44.04 -272.39)" fill="#262626"/><path d="M524,648.08a43.52,43.52,0,0,1,29.18-9.16c5.22.31,13.93,1.31,15.85,7.09a9.54,9.54,0,0,1-2,9.24c-.8.93-6.46,6-7.86,3.36-1.1-2.07,2.61-6.2,3.91-7.41a26.07,26.07,0,0,1,6.25-4.18,68.74,68.74,0,0,1,16.57-5.42c11.64-2.44,23.61-2.62,35.46-2.81,3.21-.06,3.22-5.06,0-5-17.9.29-36.67.64-53.24,8.28-5.63,2.6-11.63,6.81-13.43,13.1-1.61,5.64,1.23,10.9,7.62,8.93,12.59-3.89,17.59-21.83,3.67-27.55-14.5-6-32.35-2.09-44.48,7.22-2.52,1.93,0,6.27,2.53,4.31Z" transform="translate(-44.04 -272.39)" fill="#262626"/><path d="M611.44,631.81a28,28,0,0,1,12,5.07l-.89-3.42L613.66,646c-1.87,2.63,2.47,5.13,4.32,2.52L626.9,636c.84-1.18.12-2.68-.89-3.42A31.23,31.23,0,0,0,612.77,627c-3.15-.53-4.5,4.29-1.33,4.82Z" transform="translate(-44.04 -272.39)" fill="#262626"/><text transform="translate(569.74 64.38) scale(0.58)" font-size="60" font-family="Poppins-Medium, Poppins">Lakukan perkalian <tspan x="0" y="61.75">silang antara kedua </tspan><tspan x="0" y="123.5">perbandingan di </tspan><tspan x="0" y="185.25">samping.</tspan></text><text transform="translate(608.94 364.35) scale(0.58)" font-size="60" font-family="Poppins-Medium, Poppins">Merupakan hasil <tspan x="0" y="61.75">dari perkalian</tspan><tspan x="0" y="123.5">silangnya.</tspan></text><path d="M158,659.5c5.15,0,5.16-8,0-8s-5.16,8,0,8Z" transform="translate(-44.04 -272.39)" fill="#262626"/><path d="M418.38,659.38c5.14,0,5.15-8,0-8s-5.16,8,0,8Z" transform="translate(-44.04 -272.39)" fill="#262626"/></svg>